<svg id="Layer_1" data-name="Layer 1" xmlns="http://www.w3.org/2000/svg" xmlns:xlink="http://www.w3.org/1999/xlink" viewBox="0 0 400 404"><defs><style>.cls-1,.cls-87{fill:none;}.cls-2{opacity:0.05;}.cls-3{clip-path:url(#clip-path);}.cls-4{clip-path:url(#clip-path-2);}.cls-5{fill:#b0c3cc;}.cls-6{fill:#e2e5e6;}.cls-7{fill:#bfced6;}.cls-8{fill:#e7eef4;}.cls-9{clip-path:url(#clip-path-4);}.cls-10{fill:#b4c9d3;}.cls-11{fill:#f9fbfc;}.cls-12{fill:#f1f5f8;}.cls-13{fill:#d4d6d8;}.cls-14{fill:#d7e2eb;}.cls-15{fill:#9fb0bd;}.cls-16{fill:#edeff3;}.cls-17{fill:#b2c1c8;}.cls-18{fill:#edf0f3;}.cls-19{clip-path:url(#clip-path-6);}.cls-20{fill:#9fb0b8;}.cls-21{fill:#e1e2e6;}.cls-22{fill:#bec8cf;}.cls-23{clip-path:url(#clip-path-8);}.cls-24{fill:#a4b6bd;}.cls-25{fill:#ece5e5;}.cls-26{clip-path:url(#clip-path-10);}.cls-27{clip-path:url(#clip-path-11);}.cls-28{clip-path:url(#clip-path-12);}.cls-29{fill:#bbc4c6;}.cls-30{fill:#a7acae;}.cls-31{fill:#e1e5eb;}.cls-32{clip-path:url(#clip-path-14);}.cls-33{fill:#eee;}.cls-34{fill:#ecebee;}.cls-35{fill:#eff0f2;}.cls-36{fill:#b5bbbc;}.cls-37{fill:#9ab1ba;}.cls-38{fill:#acb3b3;}.cls-39{fill:#dfe5eb;}.cls-40{fill:#a6b7c1;}.cls-41{fill:#eff3f7;}.cls-42{fill:#a7b8c1;}.cls-43{fill:#f0f4f7;}.cls-44{fill:#aab1b0;}.cls-45{fill:#80939b;}.cls-46{fill:#aeb5b5;}.cls-47{fill:#e1e6ec;}.cls-48{fill:#eff2f4;}.cls-49{fill:#7c8e94;}.cls-50{fill:#f2f5f8;}.cls-51{fill:#abb9c2;}.cls-52{fill:#e4e8ee;}.cls-53{fill:#eef0f0;}.cls-54{fill:#eeedec;}.cls-55{fill:#e2e7ec;}.cls-56{fill:#a0a6a7;}.cls-57{clip-path:url(#clip-path-16);}.cls-58{fill:#afb8bc;}.cls-59{fill:#edf1f5;}.cls-60{fill:#d6dee4;}.cls-61{clip-path:url(#clip-path-18);}.cls-62{clip-path:url(#clip-path-20);}.cls-63{clip-path:url(#clip-path-22);}.cls-64{clip-path:url(#clip-path-23);}.cls-65{fill:#fad3c2;}.cls-66{fill:#c2bcc4;}.cls-67{fill:#bbbcbe;}.cls-68{fill:#d4d7db;}.cls-69{fill:#93939e;}.cls-70{fill:#c5c0c8;}.cls-71{fill:#e3e3e8;}.cls-72{fill:#eff4f8;}.cls-73{fill:#ebeced;}.cls-74{fill:#ecedef;}.cls-75{fill:#c1c0c6;}.cls-76{fill:#bbbbbf;}.cls-77{fill:#eef1f4;}.cls-78{fill:#a88f71;}.cls-79{fill:#e4e2e7;}.cls-80{fill:#d1d7dc;}.cls-81{fill:#c2c1c8;}.cls-82{fill:#cfd6dc;}.cls-83{fill:#ededf0;}.cls-84{fill:#f8eff3;}.cls-85{fill:#f9ce20;}.cls-86{fill:#6b5d5a;}.cls-87{stroke:#000;stroke-miterlimit:10;}</style><clipPath id="clip-path"><rect class="cls-1" x="67.55" y="288.28" width="284.49" height="83.29"/></clipPath><clipPath id="clip-path-2"><rect class="cls-1" x="207.99" y="42.6" width="65.94" height="74.45"/></clipPath><clipPath id="clip-path-4"><rect class="cls-1" x="171.85" y="89.88" width="108.85" height="183.71"/></clipPath><clipPath id="clip-path-6"><rect class="cls-1" x="67.55" y="288.25" width="243.83" height="21.81"/></clipPath><clipPath id="clip-path-8"><rect class="cls-1" x="117.62" y="271.55" width="161.06" height="20.14"/></clipPath><clipPath id="clip-path-10"><rect class="cls-1" x="175.98" y="101.92" width="95.26" height="147.12"/></clipPath><clipPath id="clip-path-11"><rect class="cls-1" x="153.09" y="241.8" width="25.06" height="69.72"/></clipPath><clipPath id="clip-path-12"><rect class="cls-1" x="73.32" y="156.63" width="52.48" height="23.14"/></clipPath><clipPath id="clip-path-14"><rect class="cls-1" x="56.38" y="96.3" width="98.25" height="81.85"/></clipPath><clipPath id="clip-path-16"><rect class="cls-1" x="232.75" y="262.1" width="68.87" height="54.67"/></clipPath><clipPath id="clip-path-18"><rect class="cls-1" x="179.12" y="281.87" width="46.12" height="53.86"/></clipPath><clipPath id="clip-path-20"><rect class="cls-1" x="248.73" y="201.24" width="79.02" height="52.69"/></clipPath><clipPath id="clip-path-22"><rect class="cls-1" x="67.54" y="236.6" width="89.85" height="73.45"/></clipPath><clipPath id="clip-path-23"><rect class="cls-1" x="93.65" y="63.32" width="198.62" height="264.02"/></clipPath></defs><title>acaratekno</title><g class="cls-2"><g class="cls-3"><path d="M67.55,297l2,6.9a60.54,60.54,0,0,0,54.1,43.49l.81.05,37.1,1.92A154,154,0,0,1,183.18,352l28.06,5.49a116.13,116.13,0,0,1,28.69,9.59,46.28,46.28,0,0,0,31,3.19l12.16-3a173.46,173.46,0,0,0,28-9.44l15.26-6.65A64,64,0,0,0,348.94,335c5.66-6.43,3.31-15.55-5-19.45L288,289.38l-74.26-1.1-137.54,5Z"/></g></g><g class="cls-4"><g class="cls-4"><path class="cls-5" d="M264.1,56.08a9.83,9.83,0,1,1,0,19.65,9.68,9.68,0,0,1-4.92-1.32,9.82,9.82,0,0,1,4.92-18.33"/><path class="cls-5" d="M271.24,79.21v37.84H265.6V81.74a3.12,3.12,0,0,0-5.32-2.21,3.15,3.15,0,0,0-.91,2.21v35.31h-2.22V81a11.84,11.84,0,0,1,2-6.61,9.68,9.68,0,0,0,4.92,1.32A9.81,9.81,0,0,0,269.62,74l.21.37a8.88,8.88,0,0,1,1.41,4.8"/><path class="cls-6" d="M265.6,81.74v35.31h-6.23V81.74a3.13,3.13,0,0,1,.91-2.21,3.12,3.12,0,0,1,5.32,2.21"/><path class="cls-7" d="M223.34,60.56a9.83,9.83,0,1,1,4.31-8.13,9.76,9.76,0,0,1-4.31,8.13"/><path class="cls-7" d="M225,65.73v37.84h-5.63V68.25a3.12,3.12,0,0,0-6.24,0v35.32h-2.21v-36a11.84,11.84,0,0,1,2-6.62,9.85,9.85,0,0,0,10.44-.37l.21.37a8.91,8.91,0,0,1,1.41,4.8"/><path class="cls-8" d="M219.33,68.25v35.32h-6.24V68.25a3.12,3.12,0,0,1,6.24,0"/></g></g><g class="cls-9"><g class="cls-9"><path class="cls-10" d="M271.44,253.87l9.26,19.72h-106l6-19.72Zm-22.13,8.86H209.87v5.83h39.44Zm-13.69-4.43a2.87,2.87,0,0,0-.85-2.06,2.91,2.91,0,0,0-2.06-.86H219.43a2.92,2.92,0,0,0,0,5.84h13.28a2.91,2.91,0,0,0,2.91-2.92"/><path class="cls-11" d="M271.44,241.8v12.07H177.88a6,6,0,1,1,0-12.07h93.56Z"/><path class="cls-12" d="M271.44,233.35v8.45H203.83v-4a4.42,4.42,0,0,1,4.43-4.42Z"/><path class="cls-13" d="M271.44,229.73v3.62H208.26a4.42,4.42,0,0,0-4.43,4.42v4H181.9a12.06,12.06,0,0,1,9.33-11.75,11.81,11.81,0,0,1,2.74-.32h77.47Z"/><path class="cls-11" d="M271.44,122.58V229.73h-7V129a29.48,29.48,0,0,0-29.48-29.48,22.84,22.84,0,0,0-22.84,22.84V229.73H194a11.81,11.81,0,0,0-2.74.32l-.07-.32v-96A43.86,43.86,0,0,1,235,89.88h3.72a32.7,32.7,0,0,1,32.7,32.7"/><path class="cls-14" d="M264.4,129V229.73H212.08V122.38a22.84,22.84,0,0,1,22.84-22.84A29.48,29.48,0,0,1,264.4,129"/><rect class="cls-15" x="209.87" y="262.73" width="39.44" height="5.84"/><path class="cls-15" d="M234.77,256.24a2.87,2.87,0,0,1,.85,2.06,2.91,2.91,0,0,1-2.91,2.92H219.43a2.92,2.92,0,0,1,0-5.84h13.28a2.91,2.91,0,0,1,2.06.86"/></g></g><path class="cls-16" d="M95.82,222.62a1.5,1.5,0,0,0-1.49,1.5v66.07a1.5,1.5,0,1,0,3,0V224.12a1.49,1.49,0,0,0-.44-1.06,1.51,1.51,0,0,0-1.07-.44m11.4,0a1.5,1.5,0,0,0-1.5,1.5v66.07a1.5,1.5,0,1,0,3,0V224.12a1.5,1.5,0,0,0-1.5-1.5m9.89,0a1.5,1.5,0,0,0-1.49,1.5v66.07a1.5,1.5,0,1,0,3,0V224.12a1.49,1.49,0,0,0-.44-1.06,1.51,1.51,0,0,0-1.07-.44m-43.37-1.06h54.4l1.1,67.57,0,9.28h-56l-.57-9.28Zm51.41,1.06a1.5,1.5,0,0,0-1.5,1.5v66.07a1.51,1.51,0,1,0,3,0V224.12a1.49,1.49,0,0,0-.44-1.06,1.53,1.53,0,0,0-1.07-.44m-40.37,0a1.5,1.5,0,0,0-1.5,1.5v66.07a1.51,1.51,0,1,0,3,0V224.12a1.49,1.49,0,0,0-.44-1.06,1.53,1.53,0,0,0-1.07-.44m-8.12,0a1.5,1.5,0,0,0-1.5,1.5v66.07a1.5,1.5,0,1,0,3,0V224.12a1.49,1.49,0,0,0-.44-1.06,1.51,1.51,0,0,0-1.06-.44"/><path class="cls-17" d="M126.66,224.12v66.07a1.51,1.51,0,1,1-3,0V224.12a1.5,1.5,0,0,1,1.5-1.5,1.53,1.53,0,0,1,1.07.44,1.49,1.49,0,0,1,.44,1.06"/><path class="cls-17" d="M118.62,224.12v66.07a1.5,1.5,0,1,1-3,0V224.12a1.5,1.5,0,0,1,1.49-1.5,1.51,1.51,0,0,1,1.07.44,1.49,1.49,0,0,1,.44,1.06"/><path class="cls-17" d="M108.72,224.12v66.07a1.5,1.5,0,1,1-3,0V224.12a1.5,1.5,0,0,1,3,0"/><path class="cls-17" d="M78.16,224.12v66.07a1.5,1.5,0,1,1-3,0V224.12a1.5,1.5,0,0,1,3,0"/><path class="cls-17" d="M86.29,224.12v66.07a1.51,1.51,0,1,1-3,0V224.12a1.5,1.5,0,0,1,1.5-1.5,1.53,1.53,0,0,1,1.07.44,1.49,1.49,0,0,1,.44,1.06"/><path class="cls-17" d="M97.33,224.12v66.07a1.5,1.5,0,1,1-3,0V224.12a1.5,1.5,0,0,1,1.49-1.5,1.51,1.51,0,0,1,1.07.44,1.49,1.49,0,0,1,.44,1.06"/><path class="cls-17" d="M131,217.87a3.64,3.64,0,0,1-1.85,3.21,8.12,8.12,0,0,1-1,.48H73.74a8.12,8.12,0,0,1-1-.48,3.78,3.78,0,0,1,.19-6.6l.21-.1h0l1.55-.33h52.55a9,9,0,0,0,1,.15,3.79,3.79,0,0,1,2.74,3.67"/><path class="cls-18" d="M125,179.68a18.28,18.28,0,0,1,18.51,19.79c0,.18,0,.36-.05.54a17.07,17.07,0,0,1-4.8,10.41,16.49,16.49,0,0,1-1.63,1.43,12.36,12.36,0,0,1-8.78,2.35,3.84,3.84,0,0,0-1.07-.15H74.68a3.72,3.72,0,0,0-1.55.33h0l-1.32.29a14.3,14.3,0,0,1-11.52-4.15A17.1,17.1,0,0,1,55.38,200c0-.17,0-.34-.05-.51a18.29,18.29,0,0,1,18.51-19.79H125Z"/><path class="cls-17" d="M75,199.74a2.07,2.07,0,0,1,.54.67,1,1,0,0,1,.06.88,2.34,2.34,0,0,1-1.41,1.05A1.67,1.67,0,0,1,72.4,202a2.6,2.6,0,0,1-.73-1.7,3.19,3.19,0,0,1,1.9-3.06L74,197c.15-.05.31-.08.46-.12a3.28,3.28,0,0,1,1-.13,2.79,2.79,0,0,1,1.85.78,4.86,4.86,0,0,1-.58,7,5.42,5.42,0,0,1-3.8.83c-.32,0-.63-.1-.94-.15a6.89,6.89,0,0,1-1-.29,5,5,0,0,1-1.73-1.16,5.1,5.1,0,0,1-1-1.82,6.35,6.35,0,0,1-.26-2,8.94,8.94,0,0,1,3.6-6.71,6.35,6.35,0,0,1,3.93-1.21,7.34,7.34,0,0,1,3.84,1.35,13.22,13.22,0,0,1,2.79,2.64,9.21,9.21,0,0,1,1.78,3.58,7.94,7.94,0,0,1,.23,2.06,9.84,9.84,0,0,1-.29,2,11.25,11.25,0,0,1-4.56,6.34,13,13,0,0,1-7.45,2.16,11.87,11.87,0,0,1-7.46-2.57A12.62,12.62,0,0,1,60.15,203a13.59,13.59,0,0,1-.36-1.91c-.07-.62-.16-1.23-.18-1.86a20.3,20.3,0,0,1,.11-3.81,16.66,16.66,0,0,1,1-3.8,14.72,14.72,0,0,1,2-3.44A16.16,16.16,0,0,1,69,183.55a22.72,22.72,0,0,1,3.61-1.18c.62-.14,1.23-.27,1.86-.36a18.25,18.25,0,0,1,2-.2h.15a45.77,45.77,0,0,1,5.08.63c1.66.29,3.3.66,4.94,1.11q1.22.34,2.43.75l1.2.43.54.19c.16.05.31.12.48.16a19.32,19.32,0,0,0,4.34.64,42.59,42.59,0,0,0,4.65-.07c1.55-.11,3.15-.25,4.65-.48a37.87,37.87,0,0,0,4.53-1c.74-.21,1.49-.44,2.23-.69s1.66-.53,2.49-.73a37.18,37.18,0,0,1,10.22-1c.43,0,.83,0,1.28.07A13.15,13.15,0,0,1,127,182a14.39,14.39,0,0,1,2.72.73,14.9,14.9,0,0,1,4.71,2.91,19.42,19.42,0,0,1,3.44,4.11,15.85,15.85,0,0,1,2.14,5,14.63,14.63,0,0,1-1.57,10.71,14.11,14.11,0,0,1-8.59,6.51,13.51,13.51,0,0,1-5.48.29,11.31,11.31,0,0,1-5.15-2.1,10.06,10.06,0,0,1-3.33-4.51c-.08-.22-.16-.41-.24-.67a5.23,5.23,0,0,1-.18-.76,10.73,10.73,0,0,1-.12-1.41,14.37,14.37,0,0,1,.18-2.69,9.65,9.65,0,0,1,2.36-5,8.55,8.55,0,0,1,2.29-1.69,7.8,7.8,0,0,1,2.73-.8,8.87,8.87,0,0,1,5.36,1.19,7,7,0,0,1,3.33,4.42,5.63,5.63,0,0,1-.16,2.88,5.81,5.81,0,0,1-1.54,2.38,7.59,7.59,0,0,1-2.32,1.43,6.09,6.09,0,0,1-2.72.43,4.53,4.53,0,0,1-2.59-1.09,4.88,4.88,0,0,1-1.48-2.31,4.28,4.28,0,0,1,.08-2.74,3.41,3.41,0,0,1,1.87-2,4,4,0,0,1,2.65-.22,3.47,3.47,0,0,1,2.08,1.59,2.53,2.53,0,0,1,.38,1.28,2.18,2.18,0,0,1-.44,1.26,2.57,2.57,0,0,1-2.3,1h0a1.14,1.14,0,0,1-1-.93,1.12,1.12,0,0,1,.59-1.21,1.08,1.08,0,0,0-.49,1.19,1,1,0,0,0,1,.75h0a2.32,2.32,0,0,0,1.93-1,1.74,1.74,0,0,0-.1-2,2.91,2.91,0,0,0-1.78-1.19,3.22,3.22,0,0,0-2.11.31,2.84,2.84,0,0,0-1.23,3.59A3.45,3.45,0,0,0,125,204a4.55,4.55,0,0,0,2-.43,6,6,0,0,0,1.75-1.2,3.78,3.78,0,0,0,1-3.65,4.42,4.42,0,0,0-.95-1.75,5.49,5.49,0,0,0-1.58-1.28,6.68,6.68,0,0,0-4-.73,5.28,5.28,0,0,0-1.89.63,6.18,6.18,0,0,0-1.56,1.25,7.09,7.09,0,0,0-1.55,3.76,12.06,12.06,0,0,0-.07,2.17,8.86,8.86,0,0,0,.11,1,4,4,0,0,0,.3.88A7.15,7.15,0,0,0,121,207.8a8.38,8.38,0,0,0,3.83,1.42,10.53,10.53,0,0,0,4.18-.34,10.93,10.93,0,0,0,7.49-13.26,12,12,0,0,0-1.72-3.86,16.1,16.1,0,0,0-2.84-3.29,11.54,11.54,0,0,0-3.56-2.14,10.4,10.4,0,0,0-2-.52c-.33-.07-.68-.07-1-.12l-1.14-.05a33.54,33.54,0,0,0-9.13.92c-.74.19-1.44.4-2.17.65s-1.61.53-2.42.77a44,44,0,0,1-5,1.13,51,51,0,0,1-10.13.6,23.08,23.08,0,0,1-5.27-.83,5.82,5.82,0,0,1-.67-.22l-.61-.22-1.09-.4q-1.09-.37-2.22-.69c-1.5-.43-3-.78-4.56-1.06a44.45,44.45,0,0,0-4.59-.6h.15c-.41,0-1,.08-1.49.15s-1,.18-1.55.3a18.92,18.92,0,0,0-3,1,12.32,12.32,0,0,0-4.86,3.45A10.11,10.11,0,0,0,64.11,193a12.7,12.7,0,0,0-.81,2.9,16.86,16.86,0,0,0-.14,3.11c0,.53.08,1.07.13,1.6a10,10,0,0,0,.25,1.5,9.15,9.15,0,0,0,3,4.92,8.5,8.5,0,0,0,5.37,2,9.8,9.8,0,0,0,5.73-1.47A8.34,8.34,0,0,0,81.15,203a6,6,0,0,0-1.05-5.41c-1.23-1.64-2.93-3.12-4.72-3.25a5.18,5.18,0,0,0-4.62,2.89,6.74,6.74,0,0,0-1,2.85,4.83,4.83,0,0,0,.11,1.43,3.31,3.31,0,0,0,.6,1.2,4,4,0,0,0,2.56,1.22,4.08,4.08,0,0,0,2.86-.44A3.38,3.38,0,0,0,77.37,201a3.53,3.53,0,0,0-.76-2.83,1.87,1.87,0,0,0-1.23-.61,2.23,2.23,0,0,0-.76.06l-.39.07-.37.14a2.59,2.59,0,0,0-1.69,2.38,2.18,2.18,0,0,0,.5,1.46,1.33,1.33,0,0,0,1.43.39,2.13,2.13,0,0,0,1.37-.86c.26-.51-.1-1.11-.49-1.5"/><g class="cls-19"><g class="cls-19"><path class="cls-20" d="M311.37,300v3.4a4.93,4.93,0,0,1-.41,2,6.8,6.8,0,0,1-1.51,2.2,7,7,0,0,1-2.23,1.45,14.09,14.09,0,0,1-5.33,1H82.16c-5.3-.67-10.48-5.58-10.48-5.58H304.05a9.24,9.24,0,0,0,3.64-.72,6.24,6.24,0,0,0,3.68-3.76"/><path class="cls-21" d="M311.37,294.9V300a6.24,6.24,0,0,1-3.68,3.76,9.24,9.24,0,0,1-3.64.72H71.68C67.35,300.56,67,297,68,294.16a9.06,9.06,0,0,1,8.58-5.91H301.9a14.47,14.47,0,0,1,2.71.26,14,14,0,0,1,2.61.78,6.66,6.66,0,0,1,2.23,1.45,6.6,6.6,0,0,1,1.51,2.2,4.92,4.92,0,0,1,.41,2m-3.53-.7v-1.11a2.45,2.45,0,0,0-2.45-2.45H282.9a2.45,2.45,0,0,0-2.45,2.45v1.11a2.45,2.45,0,0,0,2.45,2.45h22.49a2.45,2.45,0,0,0,2.45-2.45"/><path class="cls-22" d="M307.84,293.09v1.1a2.45,2.45,0,0,1-2.45,2.45H282.9a2.45,2.45,0,0,1-2.45-2.45v-1.1a2.45,2.45,0,0,1,2.45-2.45h22.49a2.45,2.45,0,0,1,2.45,2.45"/></g></g><g class="cls-23"><g class="cls-23"><path class="cls-24" d="M278.69,281.62v4.78a5.27,5.27,0,0,1-2.12,4.23,5.25,5.25,0,0,1-3.18,1.07H130.93a13.93,13.93,0,0,1-11.06-5.33,12.09,12.09,0,0,1-1.39-2.29h0a9.24,9.24,0,0,0,2,2.06,11.07,11.07,0,0,0,6.6,2.11H271.93a5.37,5.37,0,0,0,4.74-2.84Z"/><path class="cls-25" d="M278.69,279.39v2.23l-2,3.79a5.37,5.37,0,0,1-4.74,2.84H127.11a11.07,11.07,0,0,1-6.6-2.11,9.24,9.24,0,0,1-2-2.06h0a9.24,9.24,0,0,1-.86-4,9,9,0,0,1,8.93-8.51H270.19a9.16,9.16,0,0,1,5.69,2,7.5,7.5,0,0,1,2.81,5.84"/></g></g><g class="cls-2"><g class="cls-26"><path d="M257.78,104.92l10.8-3c5.39,4.11,1,16.26.5,23l-.58,8.37a124.44,124.44,0,0,0,.62,23.79l1.19,9.78a23.2,23.2,0,0,1-.85,9.59l-5.75,18.69a140.74,140.74,0,0,0-5.62,28.3L256.9,236.2a10.1,10.1,0,0,1-12.09,9l-5.6-1.16a19.18,19.18,0,0,0-10.45.77,70.34,70.34,0,0,1-28.93,4.12l-.76,0A65.32,65.32,0,0,1,176,242.89l29.91-23,15.1-.25,10.82-33.16s-4.5-28.69-4.45-29.43.2-26.25.2-26.25l12.2-14.69Z"/></g></g><g class="cls-2"><g class="cls-27"><path d="M177.88,241.8s1.31,19.12-1.9,33.54a81.89,81.89,0,0,0-1.87,18.11A24.32,24.32,0,0,1,167.75,310l-.06.07-14.61,1.47,8.28-57.58,6.33-12Z"/></g></g><g class="cls-28"><g class="cls-28"><polygon class="cls-29" points="125.8 179.78 73.32 179.78 74.56 178.62 74.57 178.62 124.56 178.62 124.56 178.62 125.8 179.78"/><polygon class="cls-30" points="121.27 175.57 124.56 178.62 74.57 178.62 77.85 175.57 78.99 175.57 120.4 175.57 121.27 175.57"/><polygon class="cls-29" points="118.53 173.57 120.4 175.57 78.99 175.57 80.72 173.57 81.59 173.57 117.78 173.57 118.53 173.57"/><polygon class="cls-30" points="115.03 169.64 117.78 173.57 81.59 173.57 84.12 169.64 86.7 169.64 112.76 169.64 115.03 169.64"/><polygon class="cls-31" points="109.3 156.63 112.76 169.64 86.7 169.64 90.7 156.63 109.3 156.63"/></g></g><g class="cls-32"><g class="cls-32"><polygon class="cls-30" points="148.62 143.95 154.62 153.08 150.1 159.76 149.59 160.51 142.7 153.34 142.7 149.04 148.02 145.1 148.62 143.95"/><polygon class="cls-30" points="150.2 159.82 151.78 161.51 150.5 163.34 149.76 164.03 147.84 163.71 147.19 165.73 145.04 165.36 142.93 159.93 138.3 156.29 139.52 155.64 139.81 154.31 144.44 158.66 144.49 160.08 145 161.85 148.48 162.16 149.35 160.87 149.59 160.51 150.1 159.76 150.2 159.82"/><polygon class="cls-33" points="150.5 163.34 151.78 165.18 151.36 173.4 148.07 170.68 142.7 169.53 142.7 167.65 141.46 163.44 139.25 159.64 138.68 158.65 138.53 158.39 136.33 155.64 137.44 153.79 138.68 151.72 139.52 150.33 139.52 153.34 139.81 154.32 139.52 155.64 138.3 156.29 142.93 159.93 145.04 165.36 147.19 165.73 147.84 163.71 149.76 164.03 150.5 163.34"/><polygon class="cls-29" points="142.02 169.67 142.7 169.53 148.07 170.68 151.37 173.4 151.32 173.72 148.57 178.15 144.02 178.15 138.83 178.15 132.25 171.96 132.29 171.64 133.65 171.37 141.46 169.79 142.02 169.67"/><polygon class="cls-30" points="151.32 135.29 148.84 138.54 144.03 139.44 142.98 138.5 145.41 136.53 145.41 135.7 151.32 135.29"/><polygon class="cls-31" points="151.32 135.29 145.41 135.7 144.48 134.83 140.25 130.84 142.84 129.51 143.25 129.51 145.13 129.51 145.72 130.06 151.32 135.29"/><polygon class="cls-33" points="142.7 153.34 149.59 160.51 149.35 160.87 147.06 161.05 145.78 160.59 144.44 158.65 139.81 154.32 142.7 153.34"/><polygon class="cls-34" points="149.35 160.87 148.48 162.16 145 161.85 144.49 160.08 144.44 158.66 145.78 160.59 147.06 161.05 149.35 160.87"/><polygon class="cls-31" points="148.62 143.95 148.02 145.1 142.7 149.04 142.7 153.34 139.52 153.34 139.52 150.33 139.52 149.34 142.67 146.31 145.13 143.95 148.62 143.95"/><polygon class="cls-30" points="145.77 124.52 145.77 130.01 145.72 130.06 145.13 129.51 143.25 129.51 143.25 125.55 138.43 122.45 138.31 121.44 144.08 125.07 145.77 124.52"/><polygon class="cls-31" points="145.77 124.52 144.08 125.07 138.31 121.44 138.16 120.14 145.77 124.52"/><polygon class="cls-33" points="145.41 135.7 145.41 136.53 142.98 138.5 142.43 138.22 141.46 133 144.48 134.83 145.41 135.7"/><polygon class="cls-30" points="140.25 130.84 144.48 134.83 141.46 133 142.43 138.22 140.25 137.1 140.25 130.84"/><polygon class="cls-30" points="143.25 125.55 143.25 129.51 142.84 129.51 140.25 130.84 140.25 125.55 143.25 125.55"/><polygon class="cls-33" points="143.25 125.55 140.25 125.55 135.38 122.54 138.43 122.45 143.25 125.55"/><polygon class="cls-31" points="142.7 167.65 142.7 169.53 142.02 169.67 140.84 163.8 138.88 159.85 139.25 159.64 141.46 163.44 142.7 167.65"/><polygon class="cls-29" points="142.7 142.35 142.52 146.15 138.68 147.76 138.68 151.72 138.68 151.72 137.44 153.79 136.7 153.34 137.6 150.74 136.33 149.34 135.86 147.94 135.85 147.93 134.63 144.3 135 142.97 135.03 142.87 135.32 142.97 136.6 144.78 139.63 144.3 140.64 143.38 141.54 142.56 141.55 142.56 142.7 142.35"/><polygon class="cls-35" points="142.7 153.34 139.81 154.32 139.52 153.34 142.7 153.34"/><polygon class="cls-33" points="142.67 146.31 139.52 149.34 139.52 150.33 138.68 151.72 138.68 151.72 138.68 147.76 142.52 146.15 142.67 146.31"/><polygon class="cls-35" points="140.84 163.8 142.02 169.67 141.46 169.79 141.01 168.21 133.41 170.13 133.65 171.37 132.29 171.64 131.15 167.65 129.09 164.31 129.09 162.63 138.88 159.85 140.84 163.8"/><polygon class="cls-30" points="139.98 138.22 141.78 142.35 141.55 142.57 141.54 142.57 140.64 143.38 138.43 142.37 137.95 139.58 139.22 139.23 139.98 138.22"/><polygon class="cls-36" points="141.01 168.21 141.46 169.79 133.65 171.37 133.41 170.13 141.01 168.21"/><polygon class="cls-30" points="140.64 143.38 139.63 144.3 136.6 144.78 138.43 142.37 140.64 143.38"/><polygon class="cls-30" points="136.01 140.11 133.36 140.83 128.99 142.03 128.22 140.93 137.52 138.04 136.88 125.48 140.25 125.55 140.25 130.84 140.25 137.1 140.25 137.86 139.98 138.22 139.22 139.23 137.95 139.58 136.01 140.11"/><polygon class="cls-31" points="140.25 125.55 136.88 125.48 132.21 122.64 128.22 123.19 123.95 127.01 123.25 133.82 122.85 133.25 122.98 131.62 123.4 126.17 126.18 123.72 128.01 122.11 133.23 121.22 135.38 122.54 140.25 125.55"/><polygon class="cls-31" points="138.68 158.66 139.25 159.64 138.88 159.85 129.09 162.63 129.09 161.51 138.68 158.66"/><polygon class="cls-35" points="138.53 158.39 138.68 158.65 129.09 161.51 129.09 159.77 127.57 158.39 136.33 155.64 138.53 158.39"/><polygon class="cls-37" points="138.31 121.44 138.43 122.45 135.38 122.54 133.23 121.22 133.41 116.63 137.78 116.86 138.16 120.14 138.31 121.44"/><polygon class="cls-34" points="137.95 139.58 138.43 142.37 136.6 144.78 136.01 140.11 137.95 139.58"/><polygon class="cls-31" points="137.71 116.2 137.78 116.86 133.41 116.63 136.88 115.44 136.88 115.44 137.71 116.2"/><polygon class="cls-30" points="136.33 149.34 137.6 150.74 136.7 153.34 129.09 155.44 129.09 153.76 127.94 152.94 128.72 151.48 128.58 151.15 136.33 149.34"/><polygon class="cls-33" points="127.57 140 123.66 134.4 123.66 134.4 123.25 133.82 123.95 127.01 128.22 123.19 132.2 122.64 136.88 125.48 137.52 138.04 128.22 140.93 127.57 140"/><polygon class="cls-31" points="137.44 153.79 136.33 155.64 127.57 158.39 127.35 154.07 127.94 152.94 129.09 153.76 129.09 155.44 136.7 153.34 137.44 153.79"/><polygon class="cls-31" points="136.53 115.13 136.88 115.44 133.41 116.63 128.42 117.61 124.82 122.64 124.82 121.22 126.12 119.43 128.22 116.54 129.98 116.13 131.81 115.69 132.1 115.62 136.53 115.13"/><polygon class="cls-37" points="136.01 140.11 136.6 144.78 135.32 142.97 135.03 142.87 133.41 142.35 133.39 142.35 133.36 140.83 136.01 140.11"/><polygon class="cls-33" points="135.86 147.94 136.33 149.34 128.58 151.15 128.58 151.15 126.54 146.42 135.86 147.94 135.86 147.94"/><polygon class="cls-29" points="135.85 147.93 135.86 147.94 135.86 147.94 135.85 147.93"/><polygon class="cls-31" points="135.85 147.93 135.86 147.94 126.54 146.42 129.98 146.15 133.88 144.49 135.85 147.93"/><polygon class="cls-34" points="134.63 144.3 135.85 147.93 133.88 144.49 129.98 146.15 126.54 146.42 125.97 145.1 126.97 143.93 128.03 145.1 133.41 143.28 133.39 142.35 133.41 142.35 135.03 142.87 135 142.97 134.63 144.3"/><polygon class="cls-33" points="133.41 116.63 133.23 121.22 128.01 122.11 126.18 123.72 124.82 122.64 128.42 117.61 133.41 116.63"/><polygon class="cls-30" points="133.39 142.35 133.41 143.28 128.03 145.1 126.97 143.93 127.57 143.22 127.57 140 128.22 140.93 128.99 142.03 133.36 140.83 133.39 142.35"/><polygon class="cls-38" points="124.58 120.14 123.81 116.63 124.82 112.68 130.39 112.92 131.79 115.62 131.81 115.69 129.98 116.12 129.27 114.28 125.97 114.28 124.82 116.49 126.12 119.43 124.82 121.22 124.58 120.14"/><polygon class="cls-39" points="130.39 112.92 124.82 112.68 123.81 116.63 121.29 118.1 120.44 118.6 121.09 112.68 124.14 111.45 130.39 112.92"/><polygon class="cls-37" points="129.27 114.28 129.98 116.13 128.22 116.54 126.12 119.43 124.82 116.49 125.97 114.28 129.27 114.28"/><polygon class="cls-33" points="129.09 162.63 129.09 164.31 125.97 159.31 126.2 155.02 127.35 154.07 127.57 158.39 129.09 159.77 129.09 161.51 129.09 162.63"/><polygon class="cls-29" points="123.95 148.82 123.25 149.34 120.93 149.34 120.65 149.34 120.93 148.69 120.93 148.69 121.11 148.27 122.85 147.67 124.82 143.63 126.2 142.03 123.66 134.4 127.57 140 127.57 143.22 126.97 143.93 125.97 145.1 125.74 145.38 125.51 147.67 124.92 148.1 123.95 148.82"/><polygon class="cls-37" points="123.66 134.4 126.2 142.03 124.82 143.63 122.85 147.67 121.11 148.27 122.85 144.18 122.58 143.63 124.82 142.03 121.75 133.82 122.98 131.62 122.85 133.25 123.25 133.82 123.66 134.4 123.66 134.4"/><polygon class="cls-40" points="124.92 148.1 126.2 150.14 124.13 151.48 123.95 148.82 124.92 148.1"/><polygon class="cls-30" points="126.18 123.72 123.4 126.17 122.98 131.62 121.75 133.82 124.82 142.03 122.58 143.63 120.45 139.3 120.86 137.51 120.17 136 116.87 134.28 109.17 137.1 105.39 142.6 105.09 147.41 104.93 149.98 103.05 145.83 89.85 145.83 91.13 143.63 87.64 139.51 84.74 138.02 85.1 137.31 85.9 137.31 85.9 134.93 86.82 136.48 89.16 137.65 93.56 143.63 94.73 143.63 99.56 143.63 100.64 143.63 105.66 137.96 109.72 135.25 109.94 134.83 111.25 133.82 117.9 131.62 120.93 129.06 120.93 124.17 119.74 122.85 120.07 121.9 120.44 118.6 121.29 118.1 122.48 122 124.58 120.14 124.82 121.22 124.82 122.64 126.18 123.72"/><polygon class="cls-41" points="123.81 116.63 124.58 120.14 122.48 122 121.29 118.1 123.81 116.63"/><polygon class="cls-33" points="124.13 151.48 124.39 155.44 122.21 154.54 121.11 152.76 120.93 149.34 123.25 149.34 123.95 148.82 124.13 151.48"/><polygon class="cls-31" points="124.39 155.44 117.49 157.91 115.76 157.13 117.76 156.56 118 155.38 121.11 152.76 122.21 154.54 124.39 155.44"/><polygon class="cls-30" points="119.74 122.85 119.28 124.17 118.09 125.48 113.89 125.48 117.12 124.45 121.29 96.31 122.85 96.69 121.09 112.68 120.44 118.6 120.07 121.9 119.74 122.85"/><polygon class="cls-42" points="122.58 143.63 122.85 144.18 121.11 148.27 120.93 148.69 120.93 144.3 118.18 139.44 120.17 136 120.86 137.51 120.45 139.3 122.58 143.63"/><polygon class="cls-31" points="121.29 96.31 117.12 124.45 113.89 125.48 113.32 124.74 112.88 124.17 112.98 118.51 112.98 118.51 113.33 117.21 114.87 117.21 121.29 96.31"/><polygon class="cls-30" points="120.93 149.34 121.11 152.76 118 155.38 118.66 152.11 117.08 151.48 120.65 149.34 120.93 149.34"/><polygon class="cls-29" points="120.93 144.3 120.93 148.69 120.93 148.69 120.65 149.34 117.08 151.48 112.33 154.31 107.31 152.87 106.68 152.11 104.93 149.98 105.09 147.41 108.75 142.81 118.18 139.44 120.93 144.3"/><polygon class="cls-37" points="120.93 124.17 120.93 129.06 117.9 131.62 117.81 128.23 120.93 124.17"/><polygon class="cls-31" points="119.74 122.85 120.93 124.17 117.81 128.23 113.31 130.43 111.58 128.57 111.58 126.05 113.32 124.74 113.89 125.48 118.09 125.48 119.28 124.17 119.74 122.85"/><polygon class="cls-31" points="120.17 136 118.18 139.44 108.75 142.81 109.17 137.1 116.87 134.28 120.17 136"/><polygon class="cls-33" points="106.24 152.87 106.68 152.11 107.31 152.87 112.33 154.31 117.08 151.48 118.66 152.11 118 155.38 117.76 156.56 115.76 157.13 115.56 157.19 111.37 158.39 111.27 158.35 111.27 158.35 107.25 156.68 105.66 156.01 105.66 153.88 106.24 152.87"/><polygon class="cls-43" points="117.81 128.23 117.9 131.62 111.25 133.82 112.48 131.8 113.31 130.43 117.81 128.23"/><polygon class="cls-40" points="115.56 157.19 114.87 159.52 110.82 161.85 108.11 160.03 111.25 158.39 111.27 158.35 111.37 158.39 115.56 157.19"/><polygon class="cls-44" points="95.28 134.81 92.79 134.8 91.87 134.8 84.96 129.79 85.03 129.7 83.24 128.55 83.24 123.56 83.16 123.01 83.6 123.55 83.6 123.56 83.88 123.9 84 127.27 91.43 131.62 99.61 131.62 109.92 125.69 112.88 115.18 113.32 114.65 113.89 115.12 113.33 117.21 112.98 118.51 112.98 118.51 110.56 127.5 109.94 127.93 106.35 130.43 104.24 131.9 101.67 133.68 100.02 134.83 95.28 134.81"/><polygon class="cls-44" points="111.9 113.47 113.32 114.65 112.88 115.18 111.78 114.69 109.31 121.7 109.65 110.9 110.95 108.66 111.48 108.79 111.9 113.47"/><polygon class="cls-45" points="112.88 124.17 113.32 124.74 111.58 126.05 111.58 128.57 110.56 127.5 112.98 118.51 112.88 124.17"/><polygon class="cls-40" points="111.58 128.57 113.31 130.43 112.48 131.8 112.44 131.78 111.19 129.85 109.94 127.93 110.56 127.5 111.58 128.57"/><path class="cls-33" d="M112.88,115.18l-3,10.51-10.31,5.93c-.32-16.37,1.1-25.48,1.1-25.48L111,108.66l-1.31,2.24-.34,10.8,2.47-7Z"/><polygon class="cls-46" points="112.48 131.8 111.25 133.82 109.94 134.83 110.95 132.91 110.95 131.26 110.95 130.01 111.19 129.85 112.44 131.78 112.48 131.8"/><polygon class="cls-33" points="111.27 158.35 111.27 158.35 111.25 158.39 108.11 160.03 105.25 161.51 106.07 157.91 107.25 156.68 107.25 156.68 111.27 158.35"/><polygon class="cls-46" points="111.19 129.85 110.95 130.01 109.17 131.46 106.35 130.43 106.35 130.43 109.94 127.93 111.19 129.85"/><polygon class="cls-33" points="110.95 131.26 110.95 132.91 109.94 134.83 109.72 135.25 105.66 137.96 100.64 143.63 99.56 143.63 100.14 140.29 104.01 136 105.66 135.18 110.95 131.26"/><polygon class="cls-47" points="97.09 139.36 100.3 139.3 103.64 135.36 105.32 134.58 107.57 132.76 109.17 131.46 110.95 130.01 110.95 131.26 105.66 135.18 104.01 136 100.14 140.29 92.79 140.29 94.73 143.63 93.56 143.63 89.16 137.65 86.82 136.48 85.9 134.93 84.34 132.29 85.41 132.36 89.22 135.52 92.67 139.44 97.09 139.36"/><polygon class="cls-48" points="109.17 137.1 108.75 142.81 105.09 147.41 105.39 142.6 109.17 137.1"/><polygon class="cls-49" points="109.17 131.46 107.57 132.76 104.24 131.9 106.35 130.43 106.35 130.43 109.17 131.46"/><polygon class="cls-42" points="107.57 132.76 105.32 134.58 101.67 133.68 104.24 131.9 107.57 132.76"/><polygon class="cls-30" points="107.25 156.68 107.25 156.68 106.07 157.91 105.25 161.51 102.22 162.63 102.22 154.31 100.3 147.94 103.05 145.84 104.93 149.98 106.24 152.87 105.66 153.88 105.66 156.01 107.25 156.68"/><polygon class="cls-40" points="106.68 152.11 106.24 152.87 104.93 149.98 106.68 152.11"/><polygon class="cls-29" points="105.32 134.58 103.64 135.36 100.3 139.3 95.28 134.81 100.02 134.83 101.67 133.68 105.32 134.58"/><polygon class="cls-34" points="103.05 145.83 100.3 147.94 88.33 147.41 88.66 146.82 89.2 145.83 89.85 145.83 103.05 145.83"/><polygon class="cls-29" points="102.22 154.31 102.22 162.63 101.76 162.8 88.93 162.8 87.85 160.63 86.22 157.33 84.62 154.08 102.22 154.31"/><polygon class="cls-31" points="100.3 147.94 102.22 154.31 84.62 154.08 84.98 153.44 88.33 147.41 100.3 147.94"/><path class="cls-12" d="M92.79,106.14h7.92s-1.42,9.11-1.1,25.48H91.43c.11-17.42,1.36-25.48,1.36-25.48"/><polygon class="cls-45" points="100.3 139.3 97.09 139.36 92.79 134.83 92.79 134.8 95.28 134.81 100.3 139.3"/><polygon class="cls-50" points="100.14 140.29 99.56 143.63 94.73 143.63 92.79 140.29 100.14 140.29"/><polygon class="cls-51" points="92.79 134.83 97.09 139.36 92.66 139.44 89.22 135.52 85.41 132.36 84.34 132.29 83.88 131.07 84.96 129.79 91.87 134.8 92.79 134.8 92.79 134.83"/><path class="cls-52" d="M83.72,109.46l9.07-3.32s-1.25,8.06-1.36,25.48L84,127.27l-.12-3.37-.28-.34h0l-.2-5.93.32,1.07v-9.23Z"/><polygon class="cls-53" points="87.64 139.51 91.13 143.63 89.84 145.83 89.2 145.83 88.66 146.82 85.41 142.35 87.64 139.51"/><polygon class="cls-29" points="76.92 149.17 75.36 146.29 76.18 144.42 78.38 139.42 85.41 142.35 88.66 146.82 88.33 147.41 84.98 153.44 82.88 153.44 82.04 152.87 78.7 150.59 77.1 149.5 76.92 149.17"/><polygon class="cls-40" points="86.22 157.33 87.85 160.63 85.08 162.24 82.97 160.37 82.97 158.15 84.89 158.39 86.22 157.33"/><polygon class="cls-31" points="87.64 139.51 85.41 142.35 78.38 139.42 81.73 136.48 84.74 138.02 87.64 139.51"/><polygon class="cls-33" points="82.97 158.15 82.74 158.12 81.23 156.47 81.23 155.63 81.23 153.72 82.04 152.87 82.88 153.44 84.97 153.44 84.62 154.09 86.22 157.33 84.89 158.39 82.97 158.15"/><polygon class="cls-54" points="84.34 132.29 85.9 134.93 85.9 137.31 85.1 137.31 79.96 133.94 79.31 131.95 79.2 131.62 84.34 132.29"/><polygon class="cls-40" points="85.1 137.31 84.73 138.02 81.73 136.48 78.38 139.42 76.18 144.42 75.92 144.3 73.69 141.4 75.36 141.09 76.44 132.42 78.7 132.15 79.31 131.95 79.96 133.94 85.1 137.31"/><polygon class="cls-55" points="85.03 129.7 84.96 129.79 83.88 131.07 84.34 132.29 79.2 131.62 78.15 129.54 77.91 129.06 78.9 126.49 78.93 126.46 79.2 126.79 79.39 129.6 81.55 130.66 82.97 128.37 83.24 128.55 85.03 129.7"/><polygon class="cls-44" points="83.72 112.92 83.72 118.69 83.4 117.61 82.39 114.28 83.72 112.92"/><polygon class="cls-33" points="83.4 117.61 83.6 123.55 83.16 123.01 81.75 113.92 81.9 112.68 82.39 114.28 83.4 117.61"/><polygon class="cls-40" points="83.24 123.56 83.24 128.55 82.97 128.37 81.55 130.66 79.39 129.6 79.2 126.78 81.11 129.06 81.9 127.01 83.24 123.56"/><path class="cls-31" d="M83.16,123l.08.55L81.9,127l-2.7-2.27L77.91,96.37a3.12,3.12,0,0,1,1.21.51l2.63,17Z"/><polygon class="cls-37" points="82.04 152.87 81.23 153.72 81.23 155.63 78.7 156.01 78.7 151.75 78.7 150.59 82.04 152.87"/><path class="cls-35" d="M77.89,119,77,96.32a3.08,3.08,0,0,1,.92,0l1.29,28.38L81.9,127l-.79,2-1.91-2.27-.27-.33-.77-.91,0-.81Z"/><polygon class="cls-56" points="79.2 131.62 79.31 131.95 78.7 132.15 76.44 132.42 75.36 141.09 73.69 141.4 73.14 141.5 73.69 129.53 78.15 129.53 79.2 131.62"/><polygon class="cls-33" points="78.16 125.55 78.93 126.46 78.9 126.49 77.91 129.06 74.6 124.74 78.12 124.74 78.16 125.55"/><polygon class="cls-30" points="78.7 150.59 78.7 151.75 76.64 155.37 74.6 155.83 71.83 154.77 68.44 156.65 68.62 154.77 70.91 150.26 74.33 147.41 76.92 149.17 77.1 149.5 78.7 150.59"/><polygon class="cls-31" points="78.15 129.54 73.69 129.54 70.86 125.48 66.88 125.21 61.51 129.54 61.38 128.71 66.95 123.62 74.17 124.17 74.6 124.74 74.6 124.74 77.91 129.06 78.15 129.54"/><polygon class="cls-53" points="77.89 118.99 78.12 124.74 74.6 124.74 74.6 124.74 74.17 124.17 74.17 122.8 71.83 118.51 77.89 118.99"/><polygon class="cls-37" points="75.36 146.29 76.92 149.17 74.33 147.41 72.86 146.41 71.6 145.56 67.59 144.26 66.37 143.86 66.6 143.12 72.93 143.63 73.14 141.5 73.69 141.4 75.92 144.3 76.18 144.42 75.36 146.29"/><polygon class="cls-29" points="74.8 158.39 74.8 161.03 70.91 162.8 67.84 162.63 64.86 161.72 63.55 158.39 67.22 158.09 69.48 159.66 74.8 158.39"/><polygon class="cls-31" points="68.03 156.53 68.44 156.65 71.83 154.77 74.6 155.83 74.8 158.39 69.48 159.66 67.22 158.09 63.55 158.39 63.21 151.15 63.43 151.29 67.38 153.81 67.38 156.33 68.03 156.53"/><polygon class="cls-31" points="74.33 147.41 70.91 150.26 68.62 154.77 68.44 156.65 68.03 156.53 68.11 154.31 70.22 149.96 65.64 147.12 66.1 146.38 70.91 148.57 72.86 146.42 72.86 146.41 74.33 147.41"/><polygon class="cls-33" points="74.17 122.8 74.17 124.17 66.95 123.62 67.61 119 71.83 118.51 74.17 122.8"/><polygon class="cls-33" points="70.87 125.48 73.68 129.53 73.14 141.5 66.6 140.88 63.55 139.16 62.96 138.82 62.66 136.9 61.94 132.29 61.51 129.53 66.88 125.2 70.87 125.48"/><polygon class="cls-30" points="73.14 141.5 72.93 143.63 66.6 143.12 66.6 142.12 66.6 140.88 73.14 141.5"/><polygon class="cls-56" points="72.86 146.41 72.86 146.42 70.91 148.57 66.1 146.38 67.59 144.26 67.59 144.26 71.6 145.56 72.86 146.41"/><polygon class="cls-33" points="70.22 149.96 68.12 154.31 68.03 156.53 67.38 156.33 67.38 153.81 63.43 151.29 63.55 151.11 65.27 146.89 65.64 147.12 70.22 149.96"/><path class="cls-31" d="M67.59,144.26h0l-1.49,2.12-.46.74-.37-.23-1.72,4.22-.12.18-.22-.14a4.61,4.61,0,0,1,.28-2.58,16.86,16.86,0,0,1,2.88-4.71Z"/><path class="cls-37" d="M66.6,142.12v1l-.23.74a16.86,16.86,0,0,0-2.88,4.71l-.36-2.74,2.14-3.71Z"/><polygon class="cls-56" points="63.55 139.16 58.69 141.5 58.63 140.29 62.66 136.9 62.96 138.82 63.55 139.16"/><polygon class="cls-31" points="61.94 132.29 62.66 136.89 58.63 140.29 56.38 137.86 60.6 132.29 61.94 132.29"/><polygon class="cls-37" points="58.63 140.29 58.69 141.5 56.38 139.16 56.38 137.86 58.63 140.29"/></g></g><g class="cls-57"><g class="cls-57"><polygon class="cls-58" points="298.7 273.16 301.62 277.92 292.4 283.45 290.02 283.36 290.07 278.41 298.7 273.16"/><polygon class="cls-58" points="297.1 283.64 299.98 289.06 295.46 297.17 292.59 292.29 297.1 283.64"/><path class="cls-59" d="M253.38,295.66c3.15,2.9,10.1,2.64,16.74-.88s10.76-9.15,10.12-13.37a5.13,5.13,0,0,0-.55-1.67c-2.27-4.3-10.25-4.52-17.82-.51s-11.85,10.74-9.58,15a5.28,5.28,0,0,0,1.09,1.39m-5.42,12,2.19-3.86-5.31-2.49-9.34,4.24-2.75-5.53,8.75-4.36,0-1.13.18-5-7.26-.34,4.28-7.57,9.4-.5,4.41-4.17-1.21-6.08,9.11-5.19,4,4.34,6.84-.61,5.35-7.33,9.71,0-3.68,7.4,3.7,1.78.36.17L296,268l2.75,5.18-8.63,5.25-.05,4.95,2.38.09,4.7.19-4.51,8.65-9.29,0-4.52,4.11,1.21,6-9.17,4.83-3.76-4-6.19.78-5.53,7.1-9.35,0Z"/><polygon class="cls-60" points="292.59 292.29 295.46 297.17 286.53 297.18 283.31 292.31 292.59 292.29"/><polygon class="cls-58" points="286.35 262.1 289.04 266.98 286.37 271.28 282.67 269.5 286.35 262.1"/><polygon class="cls-58" points="283.31 292.31 286.53 297.18 281.35 301.66 282.97 307.37 279.99 302.44 278.78 296.42 283.31 292.31"/><polygon class="cls-60" points="279.99 302.44 282.97 307.37 272.85 312.45 270.82 307.27 279.99 302.44"/><path class="cls-58" d="M280.24,281.41h0c-3.16-2.87-10.1-2.61-16.71.9s-10.75,9.12-10.13,13.35a5.28,5.28,0,0,1-1.09-1.39c-2.27-4.3,2-11,9.58-15s15.55-3.79,17.82.51a5.13,5.13,0,0,1,.55,1.67"/><polygon class="cls-58" points="270.82 307.27 272.85 312.45 269.51 308.16 262.84 309.07 257.49 316.41 255.34 311.17 260.87 304.07 267.06 303.29 270.82 307.27"/><polygon class="cls-60" points="255.34 311.17 257.49 316.41 248.74 316.78 245.99 311.19 255.34 311.17"/><polygon class="cls-58" points="250.15 303.85 247.96 307.71 246.52 307.31 244.84 301.36 250.15 303.85"/><polygon class="cls-60" points="244.84 301.36 246.52 307.31 238.54 310.82 235.5 305.6 244.84 301.36"/><polygon class="cls-60" points="241.72 289.57 241.54 294.58 236.13 294.82 234.46 289.23 241.72 289.57"/></g></g><g class="cls-61"><g class="cls-61"><polygon class="cls-58" points="217.59 284.51 221.6 286.63 217.43 294.32 215.72 295.23 213.72 291.75 217.59 284.51"/><polygon class="cls-58" points="220.81 292.5 225.05 295.11 225.24 302.65 221.22 300.42 220.81 292.5"/><path class="cls-59" d="M196.34,329.66l-.06-3.61-4.75.45-4.79,6.83-4.21-2.74,4.32-6.67-.43-.8-1.94-3.59-5.23,2.76-.13-7.06L185.5,311l1.36-4.74-3.35-3.75,4.23-7.4,4.59,1.38,4.54-3.25.72-7.34,6.79-4,.47,6.69,3.33-.28.32,0,5-6.24,4.06,2.49-3.87,7.24,2,3.48,1.7-.91,3.38-1.82.41,7.92-6.5,3.85L213.25,309l3.33,3.71-4.42,7.18-4.27-1.24-4,3.11-.94,7.25-6.54,3.87Zm10.17-18.21c3.2-5.21,3.76-10.85,1.56-13.55A4.19,4.19,0,0,0,207,297c-3.37-2.06-9.05,1.07-12.69,7s-3.86,12.42-.49,14.49a4.06,4.06,0,0,0,1.34.52c3.4.73,8.16-2.33,11.35-7.53"/><polygon class="cls-60" points="221.22 300.42 225.24 302.65 218.99 306.35 214.72 304.27 221.22 300.42"/><polygon class="cls-58" points="204.38 281.87 208.28 284.17 208.18 288.28 204.85 288.56 204.38 281.87"/><polygon class="cls-58" points="214.72 304.27 218.99 306.35 217.22 311.62 220.71 314.96 216.58 312.73 213.25 309.02 214.72 304.27"/><polygon class="cls-60" points="216.58 312.73 220.71 314.96 215.72 322.69 212.16 319.91 216.58 312.73"/><path class="cls-58" d="M208.07,297.9h0c-3.4-.7-8.15,2.35-11.33,7.54S193,316.29,195.16,319a4.06,4.06,0,0,1-1.34-.52c-3.37-2.07-3.15-8.56.49-14.49s9.32-9.07,12.69-7a4.19,4.19,0,0,1,1.07.94"/><polygon class="cls-58" points="212.16 319.91 215.72 322.69 211.61 321.07 207.32 324.46 206.61 331.81 202.93 329.03 203.87 321.78 207.89 318.67 212.16 319.91"/><polygon class="cls-60" points="202.93 329.03 206.61 331.81 200.63 335.69 196.39 332.9 202.93 329.03"/><polygon class="cls-58" points="196.28 326.05 196.34 329.66 195.16 329.97 191.53 326.5 196.28 326.05"/><polygon class="cls-60" points="191.53 326.5 195.16 329.97 191.03 335.72 186.74 333.33 191.53 326.5"/><polygon class="cls-60" points="184.48 319.53 186.41 323.12 182.73 325.52 179.25 322.3 184.48 319.53"/></g></g><g class="cls-62"><g class="cls-62"><polygon class="cls-58" points="249.04 230.23 248.95 236.42 260.88 236.47 263.1 235.03 260.25 230.35 249.04 230.23"/><polygon class="cls-58" points="256.5 239.32 256.84 246.11 265.74 251.28 265.7 245.01 256.5 239.32"/><path class="cls-59" d="M317,234.41,312.74,232l3.64-5.38,11.32-1.25-.52-6.84-10.81.8-.68-1.05-3-4.67,6.74-4.44-8.37-4.8-9.26,4.86-6.56-1.49-2.3-6.47-11.62.21-1.35,6.4-6.88,3.31-9.26-4-9.26,5.48,7.69,5-2.51,3.8-.24.37-10.76,1.92.31,6.5,11.21.12L263.1,235l-2.22,1.43-4.38,2.85,9.2,5.69,8.87-5.26,6.64,1.37,2.27,6.41L295,247l1.33-5.94,6.35-2.76,9.29,3.64,8.93-5.29Zm-28.46.23c-8.34.41-15.45-2.62-17.23-7a5.9,5.9,0,0,1-.43-1.9c-.26-5.38,7.22-10.12,16.71-10.59s17.39,3.53,17.65,8.92A5.56,5.56,0,0,1,305,226c-1.37,4.54-8.14,8.24-16.46,8.64"/><polygon class="cls-60" points="265.7 245.01 265.73 251.28 274.26 246.23 274.57 239.75 265.7 245.01"/><polygon class="cls-58" points="254.55 212.68 254.75 218.86 259.74 221.44 262.24 217.65 254.55 212.68"/><polygon class="cls-58" points="274.57 239.75 274.26 246.23 281.73 247.57 283.43 253.94 283.48 247.53 281.21 241.12 274.57 239.75"/><polygon class="cls-60" points="283.48 247.53 283.43 253.94 295.96 253.04 294.96 246.96 283.48 247.53"/><path class="cls-58" d="M271.32,227.62h0c1.39-4.52,8.15-8.2,16.46-8.6s15.42,2.61,17.22,7a5.81,5.81,0,0,0,.25-1.95c-.27-5.39-8.17-9.38-17.66-8.92s-17,5.21-16.71,10.59a5.9,5.9,0,0,0,.43,1.9"/><polygon class="cls-58" points="294.96 246.96 295.96 253.04 296.71 247.06 303.59 244.15 312.85 248.11 311.93 241.9 302.64 238.26 296.29 241.03 294.96 246.96"/><polygon class="cls-60" points="311.93 241.9 312.85 248.11 321.41 243.5 320.86 236.61 311.93 241.9"/><polygon class="cls-58" points="312.74 231.97 317.01 234.41 318.16 233.22 316.38 226.59 312.74 231.97"/><polygon class="cls-60" points="316.38 226.59 318.16 233.22 327.75 232.04 327.7 225.34 316.38 226.59"/><polygon class="cls-60" points="312.67 213.58 315.69 218.25 320.98 215.42 319.41 209.13 312.67 213.58"/></g></g><g class="cls-2"><g class="cls-63"><path d="M72.64,262.72s16.3,3.73,24.69,1.21c4.72-1.42,6.25.12,9.89.76s2.88-22.32,6.67-22.89l5-4.12c3.87-3.18,27.58,1.22,27.58,6.22l-.72,27.25,11.62,1.51-10.95,37.39H82.16S69.23,307,67.55,297c0,0-.43-4.85,5.09-7.82Z"/></g></g><g class="cls-64"><g class="cls-64"><path class="cls-65" d="M245.93,116.39c-2,1-3.27,1.79-3.27,1.79a23,23,0,0,1-.75,8.1,21.36,21.36,0,0,1-1,2.44c-.44.91-.93,1.83-1.41,2.69-1.16,2.08-2.25,3.75-2.25,3.75s-.07.33-.14.91a19,19,0,0,0-.18,2.26,18.58,18.58,0,0,0,.7,5.85,5.76,5.76,0,0,1,.29,3.29.75.75,0,0,1-1.43-.06l-2-7.18a.11.11,0,0,0-.21,0,81.25,81.25,0,0,1,.16,10c-.17,1.54-.68,2-1.14,2a.92.92,0,0,1-1-.77,115.26,115.26,0,0,1-.55-11.55.27.27,0,0,0-.54,0c-.48,3-.86,8.07-1,10.43a3.23,3.23,0,0,1-.31,1.18,3.45,3.45,0,0,1-.72,1,.55.55,0,0,1-.86-.14c-.88-1.58-.18-6.59-.18-6.59l.53-7.23a.4.4,0,0,0-.77-.2,23.33,23.33,0,0,0-1.68,5.42c-.66,3.59-1.71,4.86-2.55,5.26a.68.68,0,0,1-1-.82,41.12,41.12,0,0,0,1.09-5.61,16.08,16.08,0,0,1,.66-2.76,15.42,15.42,0,0,1,1.14-2.6,26.5,26.5,0,0,0,1.94-4.4l3.69-11s4.75-10.1,9-13l5.35-3.9s0,.07.06,0l1.77-1.27,2.45-1.77,2.18-1.56,1.62-1.15,1.15-.81,1.73-1.22,1.94-1.36,2.07-1.43c1.05-.73,2.06-1.41,3-2a64.9,64.9,0,0,1,5.79-3.61,9.16,9.16,0,0,1,.89-.39,19.07,19.07,0,0,1,3.8-.92c1.29-.2,2.66-.33,4-.41,2.86-.16,5.61-.11,7.28,0a11.76,11.76,0,0,1,3.05.53l2.36.74a2.24,2.24,0,0,1,1.13.8,2.29,2.29,0,0,1,.43,1.33,5.08,5.08,0,0,1-1.06,3.11c-.68.88-1.8,2.43-3.62,5.16-4.68,7-14.71,8.8-14.71,8.8s-9,2.23-14.14,3.34a22.41,22.41,0,0,0-2.71.84l-.72.28-.89.36-1.39.6-.89.41c-.67.3-1.33.62-2,.94l-1.35.67-1.42.73-1.46.77"/><path class="cls-66" d="M288.35,87.51A11.76,11.76,0,0,0,285.3,87c-1.67-.07-4.42-.12-7.28,0v-.1l2.9-2.64a12.41,12.41,0,0,1,7.44,3.23"/><path class="cls-67" d="M280.91,84.28,278,86.91V87c-1.35.08-2.72.21-4,.41v-.09c1-1.36,4.9-3.14,4.9-3.14.8,0,1.49.07,2,.08"/><path class="cls-68" d="M278.9,84.2S275,86,274,87.34v.09a19.07,19.07,0,0,0-3.8.92A50.24,50.24,0,0,1,275.74,84l3.16.18"/><path class="cls-68" d="M273.63,83.89l2.11.13a50.24,50.24,0,0,0-5.53,4.33,9.16,9.16,0,0,0-.89.39,64.9,64.9,0,0,0-5.79,3.61c1.49-5,10.1-8.46,10.1-8.46"/><path class="cls-69" d="M270.21,83.66l3.42.23s-8.61,3.49-10.1,8.46l-3,2a14.18,14.18,0,0,1,9.68-10.72"/><path class="cls-69" d="M265.83,83.36c1.31.1,2.82.2,4.38.3a14.18,14.18,0,0,0-9.68,10.73l-2.07,1.43c.81-9.67,7.37-12.46,7.37-12.46"/><path class="cls-70" d="M265.83,83.36s-6.56,2.79-7.37,12.46l-1.94,1.36a49.56,49.56,0,0,1,1.26-7.34,11,11,0,0,1,4.65-6.72l3.4.24"/><path class="cls-70" d="M261.52,83.05l.91.07a11,11,0,0,0-4.65,6.72,49.56,49.56,0,0,0-1.26,7.34l-1.73,1.22.77-6.75a11.41,11.41,0,0,1,3.73-7.2l1.49-1.33.74-.07"/><path class="cls-68" d="M260.78,83.12l-1.49,1.33a11.41,11.41,0,0,0-3.73,7.2l-.77,6.75-1.15.81v-10A4.83,4.83,0,0,1,254.91,86l2.17-2.37c1.57-.24,2.91-.38,3.7-.46"/><path class="cls-68" d="M257.86,128.81c0,1,0,2.08,0,3.12a58.25,58.25,0,0,1-4.19-6.88c-1.51-3.11-.64-12.06-.63-12.18l1.39-.6s-.74,8.18.9,10.82a26.85,26.85,0,0,1,2.54,5.72"/><path class="cls-68" d="M257.85,131.93c0,1.58,0,3.16-.07,4.72-.48-1-2.94-5.76-4.86-9.3-2.13-3.93-.78-14.07-.78-14.07l.89-.41c0,.12-.88,9.07.62,12.18a59.23,59.23,0,0,0,4.2,6.88"/><path class="cls-70" d="M257.74,122.41c.08,2,.11,4.17.12,6.4a26.85,26.85,0,0,0-2.54-5.72c-1.64-2.64-.9-10.82-.9-10.82l.89-.36c0,1.72,0,9.63,2.43,10.5"/><path class="cls-71" d="M257.78,136.65c0,1.31-.07,2.6-.11,3.85h-.2a40.79,40.79,0,0,0-5.33-10.9c-3.49-4.72-2-15.37-2-15.37.65-.32,1.31-.64,2-.94,0,0-1.35,10.13.78,14.07,1.92,3.54,4.38,8.35,4.86,9.3"/><path class="cls-71" d="M257.47,140.49h.2c0,.7,0,1.38-.07,2.05h-.13s-1.63-2.46-6.14-10.36-2.52-17.3-2.52-17.3l1.35-.67s-1.51,10.65,2,15.37a40.79,40.79,0,0,1,5.33,10.9"/><path class="cls-70" d="M257.58,119.19c.07,1,.12,2.09.16,3.22-2.47-.87-2.46-8.78-2.43-10.5l.72-.28a2.05,2.05,0,0,1,.49.78h0a11.55,11.55,0,0,0,1.06,6.78"/><path class="cls-67" d="M257.47,142.55h.13c-.06,1.55-.12,3-.19,4.34-.06-.1-7-12.61-9.11-18.69a28.39,28.39,0,0,1-.91-12.58l1.42-.73s-2,9.39,2.52,17.3,6.14,10.36,6.14,10.36"/><path class="cls-69" d="M256.52,112.41a25.79,25.79,0,0,1,1.06,6.78,11.55,11.55,0,0,1-1.06-6.78"/><path class="cls-67" d="M246.72,126.77a52.23,52.23,0,0,1-.79-10.38l1.46-.77a28.39,28.39,0,0,0,.91,12.58c2.07,6.08,9.05,18.59,9.11,18.69h0c-.08,1.5-.16,2.82-.23,3.9-.67,9.46-7.24,7.85-7.24,7.85q.13-1,.33-1.95s.44.9,3-1.33,0-11.59,0-11.59-.08-.27-.25-.78c-.28-.84-.81-2.35-1.69-4.4-.29-.66-.6-1.37-1-2.13s-.72-1.51-1.14-2.34c-.13-.27-.27-.54-.42-.82s-.36-.73-.52-1.11a24.16,24.16,0,0,1-.91-2.6c-.27-.93-.49-1.88-.67-2.82"/><path class="cls-71" d="M257.08,83.58,254.91,86a4.83,4.83,0,0,0-1.27,3.27v10L252,100.36c-1.49-12.73.11-15.47,1-16l.58-.12c1.18-.26,2.36-.46,3.44-.62"/><path class="cls-70" d="M253.28,143.77s2.56,9.36,0,11.59-3,1.33-3,1.33c.7-3.35,2.28-10.27,1.77-12,.33-.53.67-1.09,1-1.71.17.51.25.78.25.78"/><path class="cls-69" d="M252,144.7c-4.33,6.68-9.27,6.08-9.38,6.07a16,16,0,0,0-.9-2.29s6.41-1.48,9.57-9.89c.89,2,1.43,3.56,1.7,4.4-.32.62-.66,1.18-1,1.71"/><path class="cls-71" d="M253.06,84.32c-.93.57-2.53,3.31-1,16l-2.18,1.56h0c2-11.82-5.58-15-5.58-15l1-.21a22.21,22.21,0,0,0,3.82-1.18,26.78,26.78,0,0,1,4-1.2"/><path class="cls-72" d="M243.56,175.3a38.08,38.08,0,0,1-7.59,4.38,40.91,40.91,0,0,1-11.77,2.86,13.22,13.22,0,0,1-9.06-2.32,26.62,26.62,0,0,1-4.2-3.58l-.28-.32a15.94,15.94,0,0,1-1.16-1.64c-.29-.46-.57-.94-.86-1.46a105.47,105.47,0,0,1-5.57-12.85s-.67-1.63-4.53-4.38c-2.88-2.05-2.49-5.62-2.1-7.31l.15-.72c.18-.85.32-1.7.43-2.57.73-5.39,2.34-18.5,1.52-22.3l.14,0a24.17,24.17,0,0,1,5.58,10s5.52,14.26,6.21,18.71c.54,3.45,1.79,14.46,4.25,20.65a5.8,5.8,0,0,0,6.11,3.64c4-.49,10.44-2,15.18-6.68,5.51-5.43,7.39-9.43,7.38-14a16.11,16.11,0,0,0-.73-4.68c.11,0,5.05.61,9.38-6.07.51,1.72-1.07,8.64-1.77,12q-.2,1-.33,1.95c-.05.38-.1.77-.14,1.15-1.09,10.23-4.54,14-4.54,14A12.16,12.16,0,0,1,243.9,175l-.34.27"/><path class="cls-69" d="M250.38,136.46c.36.76.67,1.47,1,2.13-3.17,8.41-9.58,9.89-9.58,9.89-.52-1.11-1.2-2.54-1.92-4.06,0,0,5.87,0,10.32-7.86Z"/><path class="cls-69" d="M250.38,136.46l-.22.1c-4.45,7.83-10.32,7.86-10.32,7.86l-2.41-5c1.36.22,6.61.62,11.81-5.27.42.82.8,1.6,1.14,2.33"/><path class="cls-67" d="M244.26,86.92s7.59,3.18,5.58,15h0l-2.45,1.76c2.69-11.67-4.69-16.34-4.69-16.34a15.21,15.21,0,0,1,1.56-.42"/><path class="cls-70" d="M248.82,133.3c.15.28.29.55.42.82-5.2,5.9-10.45,5.5-11.81,5.28-.18-.37-.36-.73-.52-1.07a19,19,0,0,1,.18-2.26s8.68-.88,11.21-3.88c.16.38.34.75.52,1.11"/><path class="cls-67" d="M242.7,87.34s7.38,4.67,4.69,16.35L245.62,105a44.62,44.62,0,0,0,.29-6.53,9.78,9.78,0,0,0-2.1-6.42,10.89,10.89,0,0,0-3.74-3L240,89c-.33-.15-.53-.22-.53-.22h0a15.44,15.44,0,0,1,3.22-1.44"/><path class="cls-73" d="M247.39,129.59a22.17,22.17,0,0,0,.91,2.6c-2.53,3-11.21,3.88-11.21,3.88.07-.58.14-.91.14-.91s1.09-1.67,2.25-3.75a7,7,0,0,0,7.91-1.82Z"/><path class="cls-74" d="M247.39,129.59h0a7,7,0,0,1-7.91,1.82c.48-.86,1-1.78,1.41-2.69,0,0,6.22.74,5.83-2,.18.94.4,1.89.67,2.82"/><path class="cls-68" d="M246.72,126.77c.39,2.69-5.83,2-5.83,2a21.36,21.36,0,0,0,1-2.44,22.91,22.91,0,0,0,.75-8.09s1.32-.76,3.27-1.8a52.23,52.23,0,0,0,.79,10.38"/><path class="cls-75" d="M244.62,182.09c1.6,1.69,1.29,2.94,1.29,2.94a5.71,5.71,0,0,1-1.15,2.57c-1.92,2.44-6.27,4.1-14.8,6.19-11.22,2.75-26.08,9.24-26.08,9.24a31.19,31.19,0,0,0-3-1.16,95.62,95.62,0,0,1,23.25-9.78c12.42-3.48,16.64-6.44,20-9.55a6.25,6.25,0,0,0,.44-.45"/><path class="cls-71" d="M219.84,124.5c.16-9.35.67-19.8,2.16-21.64a10.44,10.44,0,0,1,.67.92s3.31,3.45,7.55,3.45,6.23,2.74,6,3.32c.09-.14,2.49-4.25-1.67-6.44,0,0-1.63-.36-1.43-1.34s1.88-1,1.88-1a2.48,2.48,0,0,0-3.2-.92c-.95.39-1.73-.34-2.3-1.27a3.46,3.46,0,0,1,1.13-4.74c1.3-.82,2.79-1,3.33,1.7a3.66,3.66,0,0,0,2.45-.89,1.35,1.35,0,0,0,.32-1.64,1.79,1.79,0,0,0-1.58-1.18s1.63-.3,5.12,1c0,0,3.58,0,3.53-1.81a9.78,9.78,0,0,1,2.1,6.42,44.62,44.62,0,0,1-.29,6.53l-.06,0c-3.18,2.3-5.35,3.9-5.35,3.9-4.24,2.9-9,13-9,13l-3.69,11a26.14,26.14,0,0,1-1.94,4.4,15.42,15.42,0,0,0-1.14,2.6,16.08,16.08,0,0,0-.66,2.76,41.12,41.12,0,0,1-1.09,5.61.68.68,0,0,0,1,.82c.84-.4,1.89-1.67,2.55-5.26a23.33,23.33,0,0,1,1.68-5.42.4.4,0,0,1,.77.2l-.53,7.23s-.7,5,.18,6.59a.55.55,0,0,0,.86.14,3.25,3.25,0,0,0,1-2.16c.17-2.35.55-7.4,1-10.43a.27.27,0,0,1,.54,0,112.08,112.08,0,0,0,.56,11.55.91.91,0,0,0,1,.77c.46-.06,1-.51,1.14-2a81.25,81.25,0,0,0-.16-10,.11.11,0,0,1,.21,0l2,7.18a.75.75,0,0,0,1.43.06,5.76,5.76,0,0,0-.29-3.29,18.55,18.55,0,0,1-.7-5.85c.16.34.34.7.52,1.07l2.41,5c.72,1.52,1.4,3,1.92,4.06a16.42,16.42,0,0,1,1.63,7c0,4.53-1.87,8.51-7.38,14-4.74,4.66-11.2,6.19-15.18,6.68a5.8,5.8,0,0,1-6.11-3.64c-2.45-6.19-3.71-17.2-4.25-20.65-.69-4.45-6.21-18.71-6.21-18.71a24.17,24.17,0,0,0-5.58-10,14.21,14.21,0,0,0-3.89-3s-.29.17-.78.49c.08-.07,1.05-1,2.58-2.07.08,0,5,2,8.26,12.39s10.54,16.51,15,17.11H220c0-4.51-.09-8-.09-8s0-.31,0-.89c0-.82,0-2.19,0-3.91,0-.91,0-1.92,0-3V130c0-.58,0-1.18,0-1.78s0-1,0-1.47c0-.73,0-1.48,0-2.23"/><path class="cls-76" d="M244.62,182.09a6.25,6.25,0,0,1-.44.45c-3.38,3.11-7.6,6.07-20,9.55a95.62,95.62,0,0,0-23.25,9.78,3.14,3.14,0,0,0-1.71-.1,29,29,0,0,1,7.13-4.59c.94-.47,2-1,3.14-1.46,0,0,0,0,0,0h0q1.39-.59,3-1.2c1.14-.42,2.35-.85,3.66-1.27h0c.74-.24,1.5-.48,2.3-.71a42.7,42.7,0,0,0,7.24-2.89l6.66-3.41c1-.52,2-1,3.08-1.49,2.45-1.12,8.41-4.38,8.12-9.44l.34-.27.09.12a3.62,3.62,0,0,1,1.91,2.91,5.25,5.25,0,0,1-1.28,4"/><path class="cls-77" d="M244.76,187.6c2.48,4.71.76,9.72-.41,12.54a10.52,10.52,0,0,0-.82,4.25c.62,24.19-25.75,31.75-27,32.08l-.2-.21a4.16,4.16,0,0,0,1.46-.79l.16-.13a5.9,5.9,0,0,0,2-3.92c.37-4.16-1.14-9.89-2.47-13.95a23.06,23.06,0,0,0-10.41-12.84,32.57,32.57,0,0,0-3.17-1.6s14.86-6.49,26.08-9.24c8.53-2.09,12.88-3.75,14.8-6.19Z"/><path class="cls-78" d="M197.66,84.79l.43.16a16.47,16.47,0,0,0,6.45,1.2,17.63,17.63,0,0,1,6.06,1c.78.28,1.64.56,2.52.81h0a19.72,19.72,0,0,0,3.76.73H217a3.46,3.46,0,0,0,2.82-.71,2.51,2.51,0,0,0,.83,1l.79.55a1.86,1.86,0,0,0,2.15,0,3.85,3.85,0,0,1,4.63-.31S232,85,234.78,88c0,0,2.31-.74,3.27,1.15a5.75,5.75,0,0,1,1.18-.25A1.79,1.79,0,0,1,240,89l.06,0a10.89,10.89,0,0,1,3.74,3c.05,1.83-3.53,1.81-3.53,1.81-3.49-1.26-5.12-1-5.12-1A1.79,1.79,0,0,1,236.74,94a1.35,1.35,0,0,1-.32,1.64,3.6,3.6,0,0,1-2.45.89c-.54-2.71-2-2.52-3.33-1.7a3.46,3.46,0,0,0-1.13,4.74c.57.93,1.35,1.66,2.3,1.27a2.48,2.48,0,0,1,3.2.92s-1.69,0-1.88,1,1.43,1.34,1.43,1.34c4.16,2.19,1.76,6.3,1.67,6.44.22-.58-1.79-3.32-6-3.32s-7.55-3.45-7.55-3.45a10.44,10.44,0,0,0-.67-.92,7.1,7.1,0,0,0-3.37-2.54c-1.3-.32-1.77-1.86-1.93-3.09a2.59,2.59,0,0,0-1.76-2.13l-.9-.29a.28.28,0,0,0-.3.44l1.08,1.37a3.18,3.18,0,0,1,.3,3.55l-.15.23a.82.82,0,0,1-1.41-.14c-1.2-2.52-5.13-7.87-4.3-5.06a14.6,14.6,0,0,1,.56,5.08.41.41,0,0,1-.73.22c-.6-.8-1.68-2.2-3.38-4.3-2.9-3.56-5.24-1.67-5.24-1.67-2.53,1-4.16-.75-5-2.06a1.07,1.07,0,0,0-.9-.5,1,1,0,0,0-.71.29,1,1,0,0,1-.68.28,1.07,1.07,0,0,1-.46-.11,5.56,5.56,0,0,0-4.89-.1l-.65.31-2.73,2-.08.06a3.86,3.86,0,0,1-5-.38,6.65,6.65,0,0,1-2-4.12C177,85.73,182,85,182,85h0a9.11,9.11,0,0,0,.35,1.09A52.63,52.63,0,0,1,193,84.31a14,14,0,0,1,4.65.48"/><path class="cls-69" d="M243.56,175.3c.29,5.06-5.67,8.32-8.12,9.44-1,.48-2.06,1-3.08,1.49l-6.66,3.41a41.06,41.06,0,0,1-7.24,2.88c-.8.24-1.57.48-2.3.72h0c-.06,0-.76,0-3.8-4-3.17-4.13-1.71-12.79-1.69-12.94l.28.32a26.62,26.62,0,0,0,4.2,3.58,13.22,13.22,0,0,0,9.06,2.32A40.91,40.91,0,0,0,236,179.68a38.08,38.08,0,0,0,7.59-4.38"/><path class="cls-78" d="M227.43,72.73a4.86,4.86,0,0,1,1.26,6.76,3.87,3.87,0,0,1-.89,4.75,12.64,12.64,0,0,1-2.9,1.88,4.86,4.86,0,0,1-4,0l-1.07-.9h0v0a8.37,8.37,0,0,0-1.35-3.13l-.49-.68L207.56,67s1.36-4.88,7.37-3.39a8,8,0,0,1,3.58,2,5.13,5.13,0,0,0,3.65,1.46c3.12,0,4.82,2,5.27,5.64"/><path class="cls-65" d="M194,106.67a4.41,4.41,0,0,1-.31.71,1.45,1.45,0,0,1-2.65-.35c-1-3.65-6-11.48-6.57-12.41l2.73-2,.65-.3a5.56,5.56,0,0,1,4.89.1,1.06,1.06,0,0,0,.46.1,1,1,0,0,0,.68-.27,1,1,0,0,1,.71-.29,1.07,1.07,0,0,1,.9.5c.81,1.31,2.44,3.1,5,2.06,0,0,2.34-1.9,5.24,1.67,1.7,2.1,2.78,3.5,3.38,4.3a.41.41,0,0,0,.73-.22,14.6,14.6,0,0,0-.56-5.08c-.83-2.81,3.1,2.54,4.3,5.06a.82.82,0,0,0,1.41.14l.15-.23a3.16,3.16,0,0,0-.3-3.55l-1.08-1.37a.28.28,0,0,1,.3-.44l.9.29a2.59,2.59,0,0,1,1.76,2.13c.16,1.23.63,2.77,1.93,3.09a7.1,7.1,0,0,1,3.37,2.54c-1.49,1.84-2,12.29-2.16,21.64a4.22,4.22,0,0,1-2.78-1,8,8,0,0,1-2.28-2.83c-.29-.58-.58-1.12-.87-1.61a9.19,9.19,0,0,0-2.49-2.76,9.38,9.38,0,0,0-3.28-1.53,9.49,9.49,0,0,0-3.72-.17l-.11-.11c.65-.69,4-1.31,5-1.67a.63.63,0,0,0,.25-1l-2.27-2.55a2,2,0,0,0-2.79-.24c-5.51,4.43-5.81-.29-5.81-.29a4.48,4.48,0,0,1-4.66-2"/><path class="cls-69" d="M220,148h-.09c-4.47-.6-11.7-6.64-15-17.11s-8.18-12.36-8.26-12.39c.61-.44,1.31-.92,2.08-1.39,0,0,6.11,4.69,9.3,16.14,0,0,2.08,7.55,11.87,5.89,0,.57,0,.88,0,.88s.08,3.47.09,8"/><path class="cls-79" d="M199.2,201.77h0a3.14,3.14,0,0,1,1.71.1,34.94,34.94,0,0,1,6.13,2.76,23,23,0,0,1,10.42,12.84c1.33,4.06,2.84,9.79,2.47,13.95a5.9,5.9,0,0,1-2,3.92l-.16.13a4.16,4.16,0,0,1-1.46.79,4.8,4.8,0,0,1-4.76-1.12,8.65,8.65,0,0,1-1-1.21l1.09-.14s2.46,2.62,4.26,1.23a4.88,4.88,0,0,0,1.42-1.35c.53-.95.54-2.62.06-7.42,0-.16,0-.31-.05-.46a25.62,25.62,0,0,0-7.6-15.29,68.48,68.48,0,0,0-5.79-5.16,5.88,5.88,0,0,0-2.27-1.1,4.55,4.55,0,0,0-4.1,1.25h0l-.75.26h0a2.88,2.88,0,0,1-.1-.47,3.16,3.16,0,0,1,2.47-3.51"/><path class="cls-80" d="M219.85,88h0a3.46,3.46,0,0,1-2.82.71h-.15a12.32,12.32,0,0,1-5.08-2.12c-3.42-2.13-11-2.84-11-2.84-12.64-.66-17.87-4-17.95-4a7.67,7.67,0,0,1,1.92-1.91h0s4.23,5,12.67,4.19h0c1.27.18,2.5.31,3.61.41,5.17.44,18.64,5.53,18.79,5.59"/><path class="cls-67" d="M219.84,85.26a.23.23,0,0,1,0,.14c-1.09-2.25-14.57-16.15-14.57-16.15a.88.88,0,0,0,.46-.58,4.56,4.56,0,0,1,.18-.52S215.28,78.28,218,81.41l.49.68a8.37,8.37,0,0,1,1.35,3.13v0"/><path class="cls-68" d="M219.84,124.5c0,.75,0,1.5,0,2.23a4.17,4.17,0,0,1-2.11-.43,8.33,8.33,0,0,1-4.59-5.17c-.91-2.89-1.7-4.88-1.7-4.88h0a9.19,9.19,0,0,1,2.49,2.76c.29.49.58,1,.87,1.61a8,8,0,0,0,2.28,2.83,4.24,4.24,0,0,0,2.78,1"/><path class="cls-68" d="M219.82,126.73c0,.5,0,1,0,1.47,0,0-7.07-.7-7.72-4.48-.56-3.28-3.23-7.84-3.94-9a9.38,9.38,0,0,1,3.28,1.53h0s.79,2,1.7,4.88a8.33,8.33,0,0,0,4.59,5.17,4.17,4.17,0,0,0,2.11.43"/><path class="cls-70" d="M219.8,135.18c0,1.72,0,3.09,0,3.92-9.79,1.66-11.87-5.89-11.87-5.89-3.19-11.45-9.3-16.14-9.3-16.14.56-.36,1.17-.71,1.8-1,0,0,7.75,9.58,9.84,15.49,2,5.6,8.81,3.85,9.49,3.66"/><path class="cls-74" d="M219.8,128.2c0,.6,0,1.2,0,1.78-2,.65-4.07-.25-5.71-1.37a11,11,0,0,1-3.91-4.91,31.67,31.67,0,0,0-5.75-9.15,9.49,9.49,0,0,1,3.72.17c.71,1.16,3.38,5.72,3.94,9,.65,3.78,7.72,4.48,7.72,4.48"/><path class="cls-74" d="M219.79,130v2.2c-3.67,0-8.52-.69-10.29-5.34s-7.45-11.58-7.45-11.58a9.34,9.34,0,0,1,2.37-.71,31.67,31.67,0,0,1,5.75,9.15,11,11,0,0,0,3.91,4.91c1.64,1.12,3.72,2,5.71,1.37"/><path class="cls-73" d="M219.79,132.19c0,1.07,0,2.08,0,3-.68.18-7.51,1.94-9.49-3.66-2.08-5.91-9.84-15.49-9.84-15.49.51-.27,1-.53,1.58-.77,0,0,5.66,6.9,7.45,11.58s6.62,5.34,10.29,5.35"/><path class="cls-78" d="M219.64,87.24a2.63,2.63,0,0,0,.21.74c-.15-.06-13.62-5.15-18.79-5.59-1.11-.1-2.34-.23-3.61-.41-4.61-.67-9.67-2-11.54-4.87,0,0,4.23-6.94,11.42-6.64a8.79,8.79,0,0,1,2.39.45,9.28,9.28,0,0,1,2.94,1.65c4,3.27,14,11.55,16.66,13l.09,0h0Z"/><path class="cls-74" d="M219.82,85.4a.33.33,0,0,1-.2.2c-2.26-3-17.87-15.82-17.87-15.82a9.14,9.14,0,0,1,3.1-.44.93.93,0,0,0,.4-.09s13.48,13.9,14.57,16.15"/><path class="cls-74" d="M219.61,85.6a.34.34,0,0,1-.2,0l-.09,0c-2.64-1.46-12.71-9.74-16.66-13a9.28,9.28,0,0,0-2.94-1.65,6,6,0,0,1,2-1.14S217.36,82.6,219.61,85.6"/><path class="cls-81" d="M207.56,67,218,81.41c-2.72-3.13-12.11-13.26-12.11-13.26a5.26,5.26,0,0,1,.7-1.18.6.6,0,0,1,1,0"/><path class="cls-65" d="M217.4,226.25c.48,4.8.47,6.47-.06,7.42a26,26,0,0,0-5.68.12l-1.09.14a65.32,65.32,0,0,0-6.91,1.38,46.06,46.06,0,0,0-6.15,2c-2.15.87-5.76,2.27-9.85,3.59-4.46,1.44-13.12,3-18.23,3.86h0l-2.26.38a2,2,0,0,0-1.68,1.85,47.53,47.53,0,0,1-2.63,10c-.41,1.2-.85,2.4-1.28,3.58-1.39,3.72-2.79,7.14-3.57,9a8.07,8.07,0,0,0-.46,1.52v0h0a12.8,12.8,0,0,1-5.34-.76c-8.57-3.14-12.86-6.42-12.86-6.42l.42-.91,5.48-14.3a21.75,21.75,0,0,0,.88-2.81c.17-.66.3-1.33.41-2l.46-3a15.78,15.78,0,0,1,.57-2.35,15.5,15.5,0,0,1,1-2.22,13.2,13.2,0,0,1,4.2-4.68l7.09-4.85,1.15-.79,4.33-3.3,4.59-3.51c1.26-1,2.55-1.88,3.87-2.74s2.67-1.69,4-2.47a74.88,74.88,0,0,1,6.89-3.43c1.6-.69,3.64-1.55,5.86-2.43h0c2-.8,4.21-1.62,6.33-2.35l.75-.26c1.42-.48,2.81-.91,4.1-1.26a5.88,5.88,0,0,1,2.27,1.1,68.48,68.48,0,0,1,5.79,5.16,25.62,25.62,0,0,1,7.6,15.29c0,.15,0,.3.05.46"/><path class="cls-82" d="M212.35,189.26c3,4,3.74,4,3.8,4-1.31.42-2.52.85-3.66,1.27a51.4,51.4,0,0,1-2.66-6c-2.9-8.18-.33-13.83-.33-13.83a15.94,15.94,0,0,0,1.16,1.64c0,.14-1.48,8.81,1.69,12.94"/><path class="cls-75" d="M217.34,233.67a4.88,4.88,0,0,1-1.42,1.35c-1.8,1.39-4.26-1.23-4.26-1.23a26,26,0,0,1,5.68-.12"/><path class="cls-83" d="M216.88,88.68a19.72,19.72,0,0,1-3.76-.73h0a24.76,24.76,0,0,1-3.55-1.47A14.93,14.93,0,0,0,204.72,85a49.87,49.87,0,0,0-7.06-.25,14,14,0,0,0-4.65-.48,36.83,36.83,0,0,1-11.22-1.7,6,6,0,0,1,1.07-2.91c.08,0,5.31,3.36,17.95,4,0,0,7.57.71,11,2.84a12.32,12.32,0,0,0,5.08,2.12"/><path class="cls-84" d="M209.57,86.48A24.76,24.76,0,0,0,213.12,88c-.88-.25-1.74-.53-2.52-.81a17.63,17.63,0,0,0-6.06-1,16.47,16.47,0,0,1-6.45-1.2l-.43-.16a49,49,0,0,1,7.06.26,14.67,14.67,0,0,1,4.85,1.43"/><path class="cls-71" d="M209.83,188.51a51.4,51.4,0,0,0,2.66,6q-1.61.62-3,1.2h0c-.08-.07-.46-.75-2.17-5.87-2.15-6.46.47-15.23.37-15.05h0c.56-1,1-1.59,1-1.59.29.51.57,1,.86,1.46,0,0-2.57,5.65.33,13.83"/><path class="cls-81" d="M207.67,174.81c.1-.18-2.52,8.59-.37,15.05,1.71,5.12,2.09,5.8,2.17,5.87-1.16.49-2.2,1-3.14,1.45,0,0-1.63-1.83-2-9.58a21.21,21.21,0,0,1,.52-5.54,28.15,28.15,0,0,1,2.82-7.25Z"/><path class="cls-77" d="M204.33,187.6c.37,7.75,2,9.58,2,9.58a29,29,0,0,0-7.13,4.59h0a3.16,3.16,0,0,0-2.47,3.51,2.88,2.88,0,0,0,.1.47h0c-2.12.73-4.3,1.55-6.33,2.35h0c-3.72.13-10.39-7.85-10.39-7.85s-10.17-9.95-14.87-9.07c.34-.12,21.59-7.87,31.45-8.31a8.45,8.45,0,0,1,4.16.68,1.64,1.64,0,0,0,1.89-.33,3.42,3.42,0,0,1,2.1-1.17h0a20.79,20.79,0,0,0-.52,5.54"/><path class="cls-75" d="M197.59,205.49a4.55,4.55,0,0,1,4.1-1.25c-1.29.35-2.68.78-4.1,1.26Z"/><path class="cls-65" d="M198.68,123.05l-.14,0c.82,3.8-.79,16.91-1.52,22.3-.11.87-.25,1.72-.43,2.57l-6.37,4.32a77.48,77.48,0,0,0-14.63,9.8,42.83,42.83,0,0,1-12.41,10.84c-6.34,3.75-16.75,5.66-21.09,6.33a7.8,7.8,0,0,0-3.43,1.44c-4.78,3.52-11,4.88-14.06,5.37a6.51,6.51,0,0,0-3,1.29,4.92,4.92,0,0,1-3.22,1.18.94.94,0,0,1-.7-1.54,19.6,19.6,0,0,1,3.49-3.07c.27-.19.52-.37.74-.51a1.11,1.11,0,0,0,.34-1.5,7.17,7.17,0,0,0-6.27-3.77h0s-1.09-1-5.8-1.16a49.88,49.88,0,0,0-6.23.28,7.21,7.21,0,0,1-2.45-.73,1.08,1.08,0,0,1,.48-2c1.94-.07,5.12-.17,7.5-.18,0,0,8.73.08,13.34,1.34,3.07.84,9-.47,12.6-1.43a10.45,10.45,0,0,0,4.9-2.92c2.82-3,8.11-8.41,11.16-10.35a103.06,103.06,0,0,1,12.8-7.35,16,16,0,0,0,5-3.7c3-3.34,8.55-9.35,12.44-13.23a27.79,27.79,0,0,0,5.3-7.33c1.21-2.44,2.73-5.22,3.83-6.27a22.81,22.81,0,0,1,3.12-2.55h0c.49-.32.78-.49.78-.49a14.21,14.21,0,0,1,3.89,3"/><path class="cls-81" d="M197.45,82h0c-8.44.81-12.67-4.19-12.67-4.19h0a7.25,7.25,0,0,1,1.13-.68c1.87,2.86,6.93,4.2,11.54,4.87"/><path class="cls-84" d="M181.79,82.61A36.83,36.83,0,0,0,193,84.31a52.63,52.63,0,0,0-10.66,1.79A9.11,9.11,0,0,1,182,85a6.82,6.82,0,0,1-.21-2.4"/><path class="cls-79" d="M180.12,200.26s6.67,8,10.39,7.85c-2.22.88-4.26,1.74-5.86,2.43-1.6-.15-3.18-2.68-4.19-4.67a23.3,23.3,0,0,0-5.41-7,37.25,37.25,0,0,0-4.51-3.39,9.47,9.47,0,0,0-3.41-1.39,6.35,6.35,0,0,0-5.77,1.93c-.46.19-.93.39-1.4.61a6.65,6.65,0,0,1,5.29-5.46h0c4.7-.88,14.87,9.07,14.87,9.07"/><path class="cls-65" d="M180.46,205.87c1,2,2.59,4.52,4.19,4.67q-3.53,1.54-6.89,3.43c-1.38.77-2.73,1.6-4,2.47s-2.61,1.78-3.87,2.74l-4.59,3.51h0c-2.62-1.18-7-.93-10-.55a.76.76,0,0,0-.23,1.44,22,22,0,0,1,4.75,3.2l-7.09,4.85a13.15,13.15,0,0,0-4.2,4.69,14.91,14.91,0,0,0-1,2.21,15.78,15.78,0,0,0-.57,2.35l-.46,3c-.11.68-.24,1.35-.41,2h0s-4.3-9.11-7-15.83a39.68,39.68,0,0,1-2.62-10.16c-.21-1.72-.41-3.66-.51-5.32a5.35,5.35,0,0,1,2.22-4.68c4.21-3,13.65-9.56,21.81-13.27.47-.22.94-.42,1.4-.62a29.8,29.8,0,0,1,5.76-1.86v-.06a9.47,9.47,0,0,1,3.41,1.39,37.25,37.25,0,0,1,4.51,3.39,23.3,23.3,0,0,1,5.41,7"/><path class="cls-65" d="M169.76,260.87a81,81,0,0,1-.51,10.79l-.62,5.43c-.06.55-.13,1.1-.21,1.64-.83-1.75-5.39-5.6-6.9-6.85a.66.66,0,0,1-.11-.9l8.33-11.11Z"/><path class="cls-85" d="M169.68,257l.06,2.88L161.41,271a.66.66,0,0,0,.11.9c1.51,1.25,6.07,5.1,6.9,6.85-.17,1.3-.38,2.59-.63,3.88,0,.18-.07.37-.1.56h0c-1.17,0-5.68,4.26-7,5.5a.66.66,0,0,0-.13.77l4.31,8.64h0c-.09.48-.17.95-.26,1.41h-1.37c-1-.66-3.38-4.47-4.34-6a.67.67,0,0,0-1-.16c-1.79,1.46-5.63,3.82-5.63,3.82h0a18.79,18.79,0,0,1-2.52-1.3l1.38-1.27a6.49,6.49,0,0,0,1.14-1.38,16.07,16.07,0,0,0,4.69-2.68.66.66,0,0,0,.08-1A25.63,25.63,0,0,0,153.4,286l.18-7.23c.22-.26.45-.52.68-.77l1.82-2a5,5,0,0,0,1.31-3.38,8.06,8.06,0,0,1,.15-1.55v0a8.2,8.2,0,0,1,.46-1.51s2.92,1.06,8-8.51a.65.65,0,0,0-.25-.88c-.69-.4-2.08-.81-4.14.39.43-1.18.87-2.38,1.28-3.58,0,0,4.4-.9,6.82,0m-4.43,24.76a.66.66,0,0,0,.18-1.08l-5.38-5.14a.66.66,0,0,0-.86,0A36.71,36.71,0,0,0,154,281a.66.66,0,0,0,.06.88,35.41,35.41,0,0,1,4.7,5.26.65.65,0,0,0,1.09,0c1.08-1.5,3.36-4.4,5.45-5.39"/><path class="cls-65" d="M169.43,244.78l.25,12.21c-2.42-.9-6.82,0-6.82,0a47.53,47.53,0,0,0,2.63-10,2,2,0,0,1,1.68-1.85l2.26-.38"/><path class="cls-75" d="M167.13,194.11v.06a29.8,29.8,0,0,0-5.76,1.86,6.36,6.36,0,0,1,5.77-1.92"/><path class="cls-65" d="M165.72,260.18a.65.65,0,0,1,.25.88c-5,9.57-8,8.51-8,8.51.78-1.86,2.18-5.28,3.57-9,2.06-1.2,3.45-.79,4.14-.39"/><path class="cls-65" d="M165.43,280.67a.66.66,0,0,1-.18,1.08c-2.09,1-4.37,3.89-5.45,5.39a.65.65,0,0,1-1.09,0,35.41,35.41,0,0,0-4.7-5.26A.66.66,0,0,1,154,281a36.73,36.73,0,0,1,5.24-5.47.64.64,0,0,1,.86,0Z"/><path class="cls-65" d="M167.69,283.17c-.69,3.65-1.83,9.7-2.8,14.91h0l-4.31-8.64a.65.65,0,0,1,.13-.77c1.3-1.24,5.81-5.48,7-5.5"/><path class="cls-85" d="M163.26,299.49h1.37c-.18,1-.36,1.93-.52,2.81h0a41.2,41.2,0,0,1-15.82-3.89,2.93,2.93,0,0,0,.05-.29,3.15,3.15,0,0,1,.31-1,3,3,0,0,1,.64-.83l.5-.47a18.79,18.79,0,0,0,2.52,1.3,29.3,29.3,0,0,0,10.95,2.37"/><path class="cls-86" d="M164.11,302.3h0c-.44,2.44-.79,4.35-.92,5.2-.6,3.72-6.54,3.35-10.11,4s-20.62,1.16-20.62,1.16h0A13.12,13.12,0,0,1,134,307.9l.21-.37s.83-1.21,4.52-2a13.13,13.13,0,0,0,5-2.3l2.89-2.17a4.25,4.25,0,0,0,1.64-2.61,41.2,41.2,0,0,0,15.82,3.89"/><path class="cls-65" d="M158.92,293.46c1,1.56,3.38,5.37,4.34,6a29.3,29.3,0,0,1-10.95-2.37h0s3.84-2.36,5.63-3.82a.67.67,0,0,1,1,.16"/><path class="cls-85" d="M157.5,271.11h0a8.06,8.06,0,0,0-.15,1.55,5,5,0,0,1-1.31,3.38l-1.82,2c-.23.25-.46.51-.68.77a33.08,33.08,0,0,0-2,2.64l-1.1,1.59a7.37,7.37,0,0,0,.65-2.84.2.2,0,0,0-.33-.17,19.78,19.78,0,0,1-6.31,3.05.2.2,0,0,0-.15.2l.25,8.28L140,298.08c-.43.63-.86,1.27-1.28,1.91.29-.45,0-1.31-.19-1.78a.21.21,0,0,0-.35,0c-1,1.35-3.59,2.41-4.19,2.64a.21.21,0,0,0-.13.19v3.14h0a31.24,31.24,0,0,1-5.74-3.29h0a17.4,17.4,0,0,1,2.88-.72.19.19,0,0,0,.16-.22l-1.1-7.34a.2.2,0,0,0-.37-.07L126,299.15a20.55,20.55,0,0,1-1.71-1.63l4.11-7.26a9.2,9.2,0,0,0,.79-1.83,9.33,9.33,0,0,0,.39-2,8.24,8.24,0,0,1,.7-2.67l9-19.87s4.29,3.28,12.86,6.42a13,13,0,0,0,5.34.76M154.08,274a.44.44,0,0,0-.35-.52l-.37-.07a15.52,15.52,0,0,0-1.79-.29c-5-.52-7.43-3.22-8.63-3.69a.21.21,0,0,0-.28.21c.07.66.32,2.87,1.22,9.89a.2.2,0,0,0,.18.18c.57,0,2.59,0,5.5-2.14a21.27,21.27,0,0,1,3.4-2.16,2.05,2.05,0,0,0,1.12-1.41m-12.9,19.41a.21.21,0,0,0,.09-.18l-.23-8.51a.21.21,0,0,0-.31-.17c-1.2.78-5.68,3.58-7.8,3.58a.21.21,0,0,0-.21.21l.61,9.88a.2.2,0,0,0,.31.15Zm0-12a.23.23,0,0,0,.06-.16c0-.81-.43-7.29-1.53-9.4a.2.2,0,0,0-.36,0c-.81,1.58-4.35,8.65-4.89,12.13a.2.2,0,0,0,.26.22c1.21-.41,5.62-2,6.46-2.79"/><path class="cls-65" d="M157.08,289.53a.66.66,0,0,1-.08,1,16.07,16.07,0,0,1-4.69,2.68,6.57,6.57,0,0,0,1-3.32l.1-3.81a25.63,25.63,0,0,1,3.68,3.49"/><path class="cls-65" d="M153.73,273.48a.44.44,0,0,1,.35.52,2.05,2.05,0,0,1-1.12,1.41,21.27,21.27,0,0,0-3.4,2.16c-2.91,2.16-4.93,2.19-5.5,2.14a.2.2,0,0,1-.18-.18c-.9-7-1.15-9.23-1.22-9.89a.21.21,0,0,1,.28-.21c1.2.47,3.62,3.17,8.63,3.69a15.52,15.52,0,0,1,1.79.29Z"/><path class="cls-65" d="M150.76,280a.2.2,0,0,1,.33.17,7.37,7.37,0,0,1-.65,2.84v0l-5.88,8.5-.25-8.28a.2.2,0,0,1,.15-.2,19.78,19.78,0,0,0,6.31-3.05"/><path class="cls-65" d="M141.27,293.23a.19.19,0,0,1-.09.17l-7.54,5a.2.2,0,0,1-.31-.15l-.61-9.88a.21.21,0,0,1,.21-.21c2.12,0,6.6-2.8,7.8-3.58a.21.21,0,0,1,.31.17Z"/><path class="cls-65" d="M141.27,281.3a.23.23,0,0,1-.06.16c-.84.83-5.25,2.38-6.46,2.79a.2.2,0,0,1-.26-.22c.54-3.48,4.08-10.55,4.89-12.13a.2.2,0,0,1,.36,0c1.1,2.12,1.49,8.6,1.53,9.41"/><path class="cls-65" d="M138.56,298.21c.19.47.48,1.33.19,1.77h0c-1.06,1.59-2.06,3.22-3,4.87-.64-.22-1.25-.47-1.84-.72h0V301a.21.21,0,0,1,.13-.19c.6-.23,3.15-1.29,4.19-2.64a.21.21,0,0,1,.35,0"/><path class="cls-85" d="M135.73,304.86q-.43.74-.84,1.47l-.45.8c-7.59-2.31-11-6.27-11.58-7.09l1.42-2.52a21.48,21.48,0,0,0,1.71,1.64c.58.5,1.3,1.08,2.16,1.69a31.83,31.83,0,0,0,5.74,3.29c.59.25,1.2.5,1.84.72"/><path class="cls-86" d="M134.44,307.13l-.22.4-.21.37a13.12,13.12,0,0,0-1.56,4.78c0,.35-.07.7-.08,1.05-.09,2.3-.46,5.41-1.7,7.06a2.74,2.74,0,0,1-.89.77,3,3,0,0,1-1.14.33,33.28,33.28,0,0,0-8.25,1.77c-4.3,1.51-11.82,3.72-18.92,3.67-10.77-.07-7.28-5.42-7.28-5.42s2.92-5.37,13.86-9.48a18.55,18.55,0,0,0,6.7-4.36,39.62,39.62,0,0,1,5.08-4.34,8.78,8.78,0,0,0,2.55-2.84l.48-.85c.63.82,4,4.78,11.58,7.09"/><path class="cls-65" d="M131.19,299.91a.19.19,0,0,1-.16.22,17.4,17.4,0,0,0-2.88.72h0a24.55,24.55,0,0,1-2.15-1.7l3.72-6.65a.2.2,0,0,1,.37.07Z"/><path class="cls-65" d="M122.29,181.91a1.11,1.11,0,0,1-.34,1.5l-.74.51-.39-.49a7.14,7.14,0,0,0-3.31-2.42,8.13,8.13,0,0,0-6.91,1.05,11,11,0,0,1-4.1,1.5.67.67,0,0,1-.54-1.15c.92-.87,2.83-2.15,6.79-3.62a9.7,9.7,0,0,1,3.27-.65,7.17,7.17,0,0,1,6.27,3.77"/><path class="cls-65" d="M116,178.14h0a9.7,9.7,0,0,0-3.27.65c-4,1.47-5.87,2.75-6.79,3.62a2.7,2.7,0,0,1-1.7.19.93.93,0,0,1-.16-1.76,9.86,9.86,0,0,0,2.56-1.53,18.43,18.43,0,0,1,3.56-2.33c4.71.12,5.8,1.16,5.8,1.16"/></g></g><path class="cls-87" d="M157.54,271.11h0a13.13,13.13,0,0,1-5.34-.77c-8.57-3.14-12.86-6.42-12.86-6.42"/></svg>