<svg width="651" height="720" viewBox="0 0 651 720" fill="none" xmlns="http://www.w3.org/2000/svg">
<path d="M119.29 60.0391C119.29 92.6439 92.8113 119.078 60.1449 119.078C27.4784 119.078 1 92.6439 1 60.0391C1 27.4344 27.4784 1 60.1449 1C92.8113 1 119.29 27.4344 119.29 60.0391Z" stroke="#ECEDE8" stroke-width="2"/>
<path d="M140.872 60.0391C140.872 71.0542 132.191 80.0423 121.289 80.5629L121.289 119.07C153.495 118.537 179.434 92.3105 179.434 60.0391C179.434 27.7678 153.495 1.54121 121.289 1.00828L121.289 39.5153C132.191 40.036 140.872 49.024 140.872 60.0391Z" stroke="#ECEDE8" stroke-width="2"/>
<rect x="311.651" y="1.00012" width="118.29" height="118.078" stroke="#ECEDE8" stroke-width="2"/>
<path d="M181.435 1.00012L256.269 1.00012L309.307 60.0392L256.269 119.078L181.435 119.078L181.435 1.00012Z" stroke="#ECEDE8" stroke-width="2"/>
<path d="M546.975 30.5975L598.062 1.15432L649.149 30.5975V89.4809L598.062 118.924L546.975 89.4809V30.5975Z" stroke="#ECEDE8" stroke-width="2"/>
<path d="M430.594 40.5537V1H484.46C517.652 1 544.654 27.5433 544.654 60.1791C544.654 92.8149 517.652 119.358 484.46 119.358H430.594V79.8045H484.46C495.466 79.8045 504.423 70.9953 504.423 60.1791C504.423 49.361 495.466 40.5537 484.46 40.5537H430.594Z" stroke="#ECEDE8" stroke-width="2"/>
<path d="M119.29 300.196C119.29 332.8 92.8113 359.235 60.1449 359.235C27.4784 359.235 1 332.8 1 300.196C1 267.591 27.4784 241.156 60.1449 241.156C92.8113 241.156 119.29 267.591 119.29 300.196Z" stroke="#ECEDE8" stroke-width="2"/>
<path d="M140.872 300.196C140.872 311.211 132.191 320.199 121.289 320.719L121.289 359.227C153.495 358.694 179.434 332.467 179.434 300.196C179.434 267.924 153.495 241.698 121.289 241.165L121.289 279.672C132.191 280.193 140.872 289.181 140.872 300.196Z" stroke="#ECEDE8" stroke-width="2"/>
<rect x="311.651" y="241.156" width="118.29" height="118.078" stroke="#ECEDE8" stroke-width="2"/>
<path d="M181.435 241.156L256.269 241.156L309.307 300.196L256.269 359.235L181.435 359.235L181.435 241.156Z" stroke="#ECEDE8" stroke-width="2"/>
<path d="M546.975 270.754L598.062 241.311L649.149 270.754V329.637L598.062 359.081L546.975 329.637V270.754Z" stroke="#ECEDE8" stroke-width="2"/>
<path d="M431.941 280.614V241.156H485.322C518.21 241.156 544.975 267.631 544.975 300.196C544.975 332.76 518.21 359.235 485.322 359.235H431.941V319.778H485.322C496.242 319.778 505.118 310.982 505.118 300.196C505.118 289.407 496.242 280.614 485.322 280.614H431.941Z" stroke="#ECEDE8" stroke-width="2"/>
<path d="M119.29 540.352C119.29 572.957 92.8113 599.391 60.1449 599.391C27.4784 599.391 1 572.957 1 540.352C1 507.747 27.4784 481.313 60.1449 481.313C92.8113 481.313 119.29 507.747 119.29 540.352Z" stroke="#ECEDE8" stroke-width="2"/>
<path d="M140.872 540.352C140.872 551.367 132.191 560.355 121.289 560.876L121.289 599.383C153.495 598.85 179.434 572.624 179.434 540.352C179.434 508.081 153.495 481.854 121.289 481.321L121.289 519.828C132.191 520.349 140.872 529.337 140.872 540.352Z" stroke="#ECEDE8" stroke-width="2"/>
<rect x="311.651" y="481.313" width="118.29" height="118.078" stroke="#ECEDE8" stroke-width="2"/>
<path d="M181.435 481.313L256.269 481.313L309.307 540.352L256.269 599.391L181.435 599.391L181.435 481.313Z" stroke="#ECEDE8" stroke-width="2"/>
<path d="M546.975 510.91L598.062 481.467L649.149 510.91V569.794L598.062 599.237L546.975 569.794V510.91Z" stroke="#ECEDE8" stroke-width="2"/>
<path d="M431.941 520.77V481.313H485.322C518.21 481.313 544.975 507.787 544.975 540.352C544.975 572.917 518.21 599.391 485.322 599.391H431.941V559.934H485.322C496.242 559.934 505.118 551.138 505.118 540.352C505.118 529.564 496.242 520.77 485.322 520.77H431.941Z" stroke="#ECEDE8" stroke-width="2"/>
<path d="M530.859 180.117C530.859 212.722 557.338 239.156 590.004 239.156C622.671 239.156 649.149 212.722 649.149 180.117C649.149 147.513 622.671 121.078 590.004 121.078C557.338 121.078 530.859 147.513 530.859 180.117Z" stroke="#ECEDE8" stroke-width="2"/>
<path d="M509.277 180.117C509.277 191.132 517.958 200.121 528.859 200.641L528.859 239.148C496.654 238.615 470.715 212.389 470.715 180.117C470.715 147.846 496.654 121.619 528.859 121.087L528.859 159.594C517.958 160.114 509.277 169.102 509.277 180.117Z" stroke="#ECEDE8" stroke-width="2"/>
<rect x="-1" y="1" width="118.29" height="118.078" transform="matrix(-1 0 0 1 337.498 120.078)" stroke="#ECEDE8" stroke-width="2"/>
<path d="M468.715 121.078L393.88 121.078L340.843 180.117L393.88 239.156L468.715 239.156L468.715 121.078Z" stroke="#ECEDE8" stroke-width="2"/>
<path d="M103.174 150.676L52.087 121.232L1.00004 150.676V209.559L52.087 239.002L103.174 209.559V150.676Z" stroke="#ECEDE8" stroke-width="2"/>
<path d="M218.208 160.535V121.078H164.827C131.939 121.078 105.174 147.553 105.174 180.117C105.174 212.682 131.939 239.156 164.827 239.156H218.208V199.699H164.827C153.908 199.699 145.031 190.904 145.031 180.117C145.031 169.329 153.908 160.535 164.827 160.535H218.208Z" stroke="#ECEDE8" stroke-width="2"/>
<path d="M530.859 420.274C530.859 452.879 557.338 479.313 590.004 479.313C622.671 479.313 649.149 452.879 649.149 420.274C649.149 387.669 622.671 361.235 590.004 361.235C557.338 361.235 530.859 387.669 530.859 420.274Z" stroke="#ECEDE8" stroke-width="2"/>
<path d="M509.277 420.274C509.277 431.289 517.958 440.277 528.859 440.798L528.859 479.305C496.654 478.772 470.715 452.545 470.715 420.274C470.715 388.002 496.654 361.776 528.859 361.243L528.859 399.75C517.958 400.271 509.277 409.259 509.277 420.274Z" stroke="#ECEDE8" stroke-width="2"/>
<rect x="-1" y="1" width="118.29" height="118.078" transform="matrix(-1 0 0 1 337.498 360.235)" stroke="#ECEDE8" stroke-width="2"/>
<path d="M468.715 361.235L393.88 361.235L340.843 420.274L393.88 479.313L468.715 479.313L468.715 361.235Z" stroke="#ECEDE8" stroke-width="2"/>
<path d="M103.174 390.832L52.087 361.389L1.00004 390.832V449.716L52.087 479.159L103.174 449.716V390.832Z" stroke="#ECEDE8" stroke-width="2"/>
<path d="M218.208 400.692V361.235H164.827C131.939 361.235 105.174 387.709 105.174 420.274C105.174 452.839 131.939 479.313 164.827 479.313H218.208V439.856H164.827C153.908 439.856 145.031 431.06 145.031 420.274C145.031 409.486 153.908 400.692 164.827 400.692H218.208Z" stroke="#ECEDE8" stroke-width="2"/>
<path d="M530.859 659.961C530.859 692.566 557.338 719 590.004 719C622.671 719 649.149 692.566 649.149 659.961C649.149 627.356 622.671 600.922 590.004 600.922C557.338 600.922 530.859 627.356 530.859 659.961Z" stroke="#ECEDE8" stroke-width="2"/>
<path d="M509.277 659.961C509.277 670.976 517.958 679.964 528.859 680.485L528.859 718.992C496.654 718.459 470.715 692.232 470.715 659.961C470.715 627.69 496.654 601.463 528.859 600.93L528.859 639.437C517.958 639.958 509.277 648.946 509.277 659.961Z" stroke="#ECEDE8" stroke-width="2"/>
<rect x="-1" y="1" width="118.29" height="118.078" transform="matrix(-1 0 0 1 337.498 599.922)" stroke="#ECEDE8" stroke-width="2"/>
<path d="M468.715 600.922L393.88 600.922L340.843 659.961L393.88 719L468.715 719L468.715 600.922Z" stroke="#ECEDE8" stroke-width="2"/>
<path d="M103.174 630.519L52.087 601.076L1.00004 630.519V689.403L52.087 718.846L103.174 689.403V630.519Z" stroke="#ECEDE8" stroke-width="2"/>
<path d="M218.208 640.379V600.922H164.827C131.939 600.922 105.174 627.396 105.174 659.961C105.174 692.525 131.939 719 164.827 719H218.208V679.543H164.827C153.908 679.543 145.031 670.747 145.031 659.961C145.031 649.173 153.908 640.379 164.827 640.379H218.208Z" stroke="#ECEDE8" stroke-width="2"/>
</svg>
