<svg xmlns="http://www.w3.org/2000/svg" viewBox="0 0 355.27 498.07"><defs><style>.cls-1{fill:#0183f8;}</style></defs><title>Asset 1</title><g id="Layer_2" data-name="Layer 2"><g id="Layer_1-2" data-name="Layer 1"><path class="cls-1" d="M323.08,160.81c-20.11-1.28-36.6,14.92-36.6,35.07v202h0a38.21,38.21,0,0,1-74.05,5.9,36.17,36.17,0,0,1-1.38-5.9h0V305.93h.09c0-.4,0-.79,0-1.18V98a32.23,32.23,0,0,0-.18-3.53,106,106,0,0,0-210.78,0A32.23,32.23,0,0,0,0,98V304c0,19.38,15.86,35.66,35.24,35.23a34.45,34.45,0,0,0,33.69-34.45V103.29a33.84,33.84,0,0,1,8.73-22.93,37.9,37.9,0,0,1,55.82,0,33.82,33.82,0,0,1,8.73,22.93V304.75c0,.39,0,.78,0,1.18h0v91.91h0c2.3,43.36,30.87,79.8,70.19,93.93a107.93,107.93,0,0,0,72.67,0c39.3-14.13,67.87-50.57,70.17-93.93h0V195.13A34.4,34.4,0,0,0,323.08,160.81Z"/></g></g></svg>