<svg id="Layer_1" data-name="Layer 1" xmlns="http://www.w3.org/2000/svg" xmlns:xlink="http://www.w3.org/1999/xlink" viewBox="0 0 720.86 768"><defs><style>.cls-1{fill:none;}.cls-2{clip-path:url(#clip-path);}.cls-3{opacity:0.64;}.cls-4{clip-path:url(#clip-path-4);}.cls-5{clip-path:url(#clip-path-5);}.cls-6{fill:#ecede8;}</style><clipPath id="clip-path"><rect class="cls-1" width="1366" height="768"/></clipPath><clipPath id="clip-path-4"><rect class="cls-1" x="-36.52" y="-5.81" width="757.38" height="790.53"/></clipPath><clipPath id="clip-path-5"><rect class="cls-1" x="-28.57" y="-5.81" width="736.83" height="773.81"/></clipPath></defs><title>Artboard 5</title><g class="cls-2"><g class="cls-2"><g class="cls-2"><g class="cls-3"><g class="cls-4"><g class="cls-5"><path class="cls-6" d="M-36.52,454.57c5.34-5.09,10.86-10,16-15.29,27.41-28.34,54.72-56.78,82.41-85.55l98.73,103,32.82-34.91,32.75,34.64,8.24-8.13L102.92,312.24l25.74-25.56L358.12,525l8-9.17L169,311.71l25-25.46L391.12,490.94l7-8.55-205.46-213c-9.66,10.27-20.22,21.51-31,33-8.42-9.15-16.24-17.67-23.88-26,18.25-18.81,37.25-38.4,56.54-58.27l229.06,238,8.73-9.15L235.62,243.43l24.78-25.76,230,238.82,32.53-34.74,32.46,34.74,8.92-8.74L235.48,106.87,260,81.75,612.65,447.59C572,489.71,531,532.15,489.25,575.36l-31.88-34.22L425,575.58l-24.21-25.51q28.08-29,56.86-58.76l31.57,33.52,42-43.66-7.43-7.27-32.23,34.18-32.44-35.27c-33.9,35.3-66.51,69.28-99.51,103.65l-33-35.28-32.41,34.34-25.12-26,32.55-33-9.09-9-65.24,68.6-32.67-34.46-32,33.85c-9-9.24-17.17-17.65-25.31-26l57.12-58.87c10.33,11.07,21,22.49,31.67,33.9l41-43-7.79-7.84-32.17,34.13-32.49-34.31L88.23,584.06l73.21,76.07L168,652l-64.21-67.32,24.81-25.46,31.81,33.91,32.49-35.12,34,34.85L259.59,558c18.65,19.43,36.61,38.19,54.63,56.89q78.54,81.51,157.09,163a72.47,72.47,0,0,1,5.15,6.79H460.35a39.46,39.46,0,0,0-3.13-4.25q-87.06-90.37-174.16-180.72c-7.69-8-15.18-16.19-23.4-25l-33.8,36-33.28-35.57C181.89,586.72,171.39,598,160.21,610l-32-34.33-8.08,9.14,64.71,66.79-23.24,24.88c-30.07-31.11-60.1-62.15-89.49-92.55L195,456.34l32.64,34.54c10.74-11.78,21.23-23.31,31.33-34.4,8.83,9,16.88,17.28,23.87,24.45L225,541.48l-30.1-32.4-40.58,41.2,7,9.15,33.55-35.93L227.62,559l64.79-67.84,24.92,25.55c-10.9,10.84-21.83,21.72-32.7,32.52l8.87,10.17,32.82-35.22,32,34.43,99.28-103.45,33.18,35.73,32.34-34.28,23.69,24.65L489,541.42l-30.66-33.09-40.65,41.84,7.25,9.26,33-35.41,31.4,33.78,106.4-110.21L259.74,99.05l-8.43,7.48L579.88,447.22c-8.12,8.46-16.1,16.76-25.34,26.4l-32.65-35.23-32.68,35.08L259.8,235.28l-8.72,7.46L448.57,447.4l-24.66,25.51c-76.58-79.47-153.24-159-229.19-237.87l-40.63,41.61,7.17,9.14,31.53-33.63L414,481.46,390,507,193.69,303.15l-8.77,8.41L382.58,516.17c-8,8.33-15.87,16.53-24,25L129.11,302.94,119.78,312,250.44,447.33l-24.86,26.49c-10.61-11.55-21.16-23-32.69-35.55l-32.31,34.61L62.45,370.61c-1.69,1.67-3,2.92-4.26,4.22q-44.86,46.51-89.76,93c-1.38,1.43-3.29,2.31-5,3.45Z"/><path class="cls-6" d="M248.17-.95c13,13.71,25.82,27.52,38.9,41.12q67.07,69.73,134.28,139.34c.93,1,1.94,1.85,3.15,3L457,147.84l33.12,35.66L523,148.43l32.51,35,8.06-9.43-65-67.28,24.9-25,89,92.6L490.23,301.09l-56.16-58.71L458.46,218l31,33.5,41.47-43.26-8.44-8.47-32.07,35.13-32.46-35.33c-11.13,12.12-21.58,23.47-32.46,35.31L259.5,62.3l-32.76,35L194.86,63.43,162.35,98,129.69,62.4l-1.4,1.52-8.39,7.94,65.15,67.31-24.17,24.7q-43.64-45.46-89.6-93.35c11.48-11.78,23.87-24.44,36.21-37.15q14.06-14.46,28-29A51.87,51.87,0,0,0,139.4-.95h16.11a18.15,18.15,0,0,1-2.14,3.7c-6.26,6.64-12.6,13.19-19,19.73-15.86,16.31-31.75,32.6-47.09,48.35L161.55,148l7.58-8.38-65.36-67,25.66-26.76,32.23,34.82,33.49-35.53c10.79,11.65,21.39,23.09,33,35.58l32.12-34.75L425,217.28c10.87-11.55,21.47-22.8,32.67-34.68L491,217.85c11.06-11.87,21.58-23.16,32.07-34.4l24.21,25.06-57.55,59.85L458,234.26l-8.15,7.79L490,283.69c35.33-36.62,70.84-73.44,105.45-109.3L523.12,98.77l-8.67,7.56c22.32,23,44.14,45.5,65.86,67.87L555,200.37c-10.48-11.38-21.09-22.9-32.29-35l-33.4,35.3-32.58-34.76q-16.1,16.9-32,33.6a7.21,7.21,0,0,1-1.29-.84Q329.14,100.92,235,3.15c-.91-.95-1-2.72-1.55-4.1Z"/><path class="cls-6" d="M-36.52,113.28C-28.34,105.17-20,97.2-12,88.93Q23.44,52.38,58.7,15.63c1.09-1.13,2.27-2.16,3.08-2.92L86.62,38.57l-32.24,32L161.44,181.42l31.84-33.61,33,34.72,31.8-33.69,255.68,265.3c-7.32,7.56-15.22,15.74-23.08,23.87L261.06,199.56l-32.87,35.5-33.58-36.53L95.49,302,71.13,276.22q32.09-33.09,65.07-67.14l-8.69-9c-17.83,18.64-35.57,37.28-53.41,55.82Q21.25,310.85-31.72,365.63c-1.22,1.26-3.18,1.73-4.8,2.57V352.88a39.77,39.77,0,0,0,3.59-3q57.18-59.28,114.3-118.64c15.45-16.06,30.76-32.26,46.19-48.46l25.21,26.43L87.32,276.3c2.73,3.16,5.1,5.88,7.47,8.63l99.12-103.3,33.32,36,32.6-35L490.36,421.87l7.78-7.75L258.87,165.92l-32.13,34.54L193,165.31l-31.25,33.16L38,70.31,70.66,37.69l-8.38-8.41c-1.14,1-2.18,1.91-3.1,2.87Q14.82,78.2-29.55,124.24a74.15,74.15,0,0,1-7,5.75Z"/><path class="cls-6" d="M720.86,440.64a23.51,23.51,0,0,0-4.12,2.76q-67,69.35-133.9,138.79c-.46.48-.84,1-1.45,1.81l65.32,67.22c-8.93,9.16-17,17.42-25.23,25.91-32.06-33.38-64.69-67.33-97.41-101.39L491.21,611l-32.92-35.79c-11.59,12.32-22.16,23.56-33.15,35.26l-32.77-35.33-8,7.89L491.16,693.5l31-33c33.62,35.09,66.34,69.24,99.37,103.73,25.14-26.14,49.3-51.27,73.47-76.39,7.11-7.39,14.19-14.81,21.42-22.08,1.11-1.12,2.93-1.47,4.42-2.18v15.32c-16.07,16.42-32.21,32.76-48.19,49.28-16.78,17.36-33.4,34.89-50.54,52.81L523.69,678.16l-31.63,34L368.77,584l23.74-23.57,30.93,33.12c11.74-12.52,22.29-23.77,33.06-35.24l33.26,35.25,32.84-35.1,98.77,103,7.58-9.52L563.51,585c14.68-15.17,28.29-29.18,41.86-43.24q55.54-57.61,111.1-115.21c1.16-1.2,2.91-1.76,4.39-2.62Z"/><path class="cls-6" d="M347.54-.95a20.54,20.54,0,0,0,2.28,3.77Q386,40.53,422.36,78.15c.62.64,1.35,1.15,2.33,2l32.51-34.8c11.15,12.26,21.71,23.86,32.52,35.76l32.63-34.57L653.43,183l32.63-34.77,25.93,27L613.87,276.28l8.43,9.44c15.14-15.92,29.84-31.47,44.63-46.93q24.35-25.44,48.83-50.73c1.45-1.5,3.39-2.5,5.1-3.74V201a70.94,70.94,0,0,0-6,5q-44.18,45.72-88.25,91.51c-1.4,1.45-2.92,2.79-4.24,4.06L598,276l98.46-101.75-9.66-7.11L655.4,200.92,523,63.19l-32.2,34.35L458.15,63.45l-32,34.66a48.47,48.47,0,0,1-4.41-3.41Q377.62,49,333.56,3.13c-1-1-1.43-2.71-2.13-4.08Z"/><path class="cls-6" d="M-36.52,216.36q30.47-31.31,60.88-62.66c1.55-1.6,2.56-3.76,3.89-5.78l33.39,35.21c2.9-3.63,5.25-6.56,8-9.93-21.26-21.83-43.13-44.29-64.91-66.64L29,81.24,119.34,175C105.47,189.35,91.22,204,77,218.72q-54.78,56.8-109.56,113.6c-1.06,1.1-2.65,1.65-4,2.45V318.05a26.11,26.11,0,0,0,4.09-2.92q45.84-47.38,91.61-94.85c14.7-15.19,29.51-30.26,43.27-44.38L29.13,99.45l-8.65,7.75L85.59,174,60.28,200.26,28.55,166.55c-19.79,20.52-39.69,41.21-59.68,61.79-1.45,1.49-3.58,2.25-5.39,3.35Z"/><path class="cls-6" d="M-36.52,387.71,60.89,286.12,184.35,414.26c-7.24,7.34-15.33,15.56-23.53,23.89L62.69,335.91c-11.52,12-22.28,23.36-33.1,34.61Q-.73,402-31.14,433.44c-1.39,1.43-3.57,2-5.38,3V421.14c2.63-2.45,5.36-4.78,7.86-7.36,30.21-31.31,60.38-62.66,91.26-94.73L161,421.52l7.65-7.33-107.08-111c-30.36,31.49-61,63.32-91.75,95.08-1.82,1.88-4.19,3.2-6.31,4.78Z"/><path class="cls-6" d="M720.86,645.42a40.86,40.86,0,0,0-5.06,3.85Q670.71,696,625.69,742.73c-1.09,1.13-2.28,2.17-3.28,3.13L499.86,618.64l23.94-24.89L623,697.19c2-3.32,3.06-6,4.9-8q43.74-45.65,87.7-91c1.36-1.4,3.53-2,5.31-2.92v15.32c-3.73,3.59-7.58,7.06-11.17,10.78-29.11,30.17-58.17,60.39-88.16,91.54L524.15,611.12l-7.93,7L622.45,728.6c.9-.82,1.95-1.69,2.89-2.66q44.85-46.52,89.72-93c1.65-1.71,3.86-2.84,5.8-4.24Z"/><path class="cls-6" d="M720.86,337.56c-9.75,9.75-19.63,19.37-29.24,29.27-23.16,23.85-46.19,47.83-69,71.49l-123-127.69,23.81-24.81L622,388.41c17-17.86,33.44-35.11,49.92-52.29q22.23-23.17,44.61-46.18c1.15-1.17,2.91-1.7,4.38-2.53v15.32c-32.87,33.93-65.75,67.85-99.34,102.51L523.21,302.9l-7.49,7.21L622.54,421.28c.66-.62,1.51-1.36,2.3-2.17q45.06-46.77,90.16-93.5c1.53-1.57,3.89-2.27,5.86-3.38Z"/><path class="cls-6" d="M681.92-.95c-1.1,1.87-1.9,4.05-3.35,5.56Q649,35.47,619.22,66.1c-1.71,1.76-4.21,2.7-6.94,4.39l67.16,68.78c-8.62,8.69-16.72,16.86-24.5,24.72L565.38,71l32-32.4-8.59-8.9-32,33.75L531.63,37.21c9.19-9.45,18.15-18.84,27.35-28,2.95-2.94,5.56-5.58,3.42-10.17h14.78l4.16,6L548.91,38l7.16,8.39L588.2,12.8c8.46,8.59,16.66,16.91,25.73,26.1L581.51,71.15l74,76.78,7.46-8.11L596.15,71.35l71-72.3Z"/><path class="cls-6" d="M720.86,577.16a47.7,47.7,0,0,0-5.56,4.28Q687.48,610.17,659.75,639c-1.55,1.61-3.19,3.12-4.42,4.32l-57.22-59.1,24.14-24.62c10.21,10.79,20.81,22,31,32.76L695,549.15l-7.77-6.61-31,33.28L630.6,549.33c10.54-10.85,21.33-21.91,32.06-33q27.08-28,54.12-56.1a25.2,25.2,0,0,1,4.08-2.85v16.72c-2.79,2.55-5.72,5-8.36,7.69Q679.7,515.61,647,549.52l8.86,8.86,31.39-33.77,24.09,24.87-57.8,60.2c-10.35-11-20.94-22.2-31.95-33.87l-7,7.52,41,42.64c.58-.57,1.55-1.47,2.47-2.43q28.71-29.74,57.44-59.47c1.48-1.52,3.55-2.43,5.35-3.63Z"/><path class="cls-6" d="M-36.52,489.4c12.11-12.31,24.27-24.57,36.31-37,9.69-9.95,19.23-20.05,29-30.23l32.58,34.61,8.83-9L37.21,415l25.31-25.1L119.27,449c-12.11,12.29-25.11,25.29-37.9,38.51Q25.06,545.79-31.16,604.13c-1.49,1.54-3.56,2.47-5.36,3.68V591.09a23.93,23.93,0,0,0,4.08-2.8Q19.85,534.2,72.06,480c10.41-10.78,21-21.4,31.23-31.85-14.23-14.87-27.63-28.85-40.67-42.47-2.72,2.56-5.45,5.12-9.23,8.69,11.27,11.17,22.21,22,33.05,32.77C78.1,456,70.17,464.44,61.07,474.1L28.69,439.66q-29.93,31-59.85,62c-1.4,1.44-3.56,2.07-5.36,3.08Z"/><path class="cls-6" d="M328.74,784.73c-11.83-12.57-23.56-25.25-35.53-37.69Q233,684.48,172.76,622c-1.09-1.13-2.06-2.38-3.06-3.54l24.65-25.16c7.89,8.12,16.08,16.48,24.21,24.92q77.54,80.4,155,160.88c1.48,1.55,2.36,3.71,3.52,5.59H361a38.35,38.35,0,0,0-3.64-5.29Q278.19,697.25,199,615.15c-1.66-1.72-3.42-3.35-4.53-4.43l-8.38,7.92c1.06,1.15,2,2.16,2.89,3.14q76.13,78.94,152.22,157.94c1.19,1.24,1.58,3.32,2.33,5Z"/><path class="cls-6" d="M394.54,784.73C385,774.44,375.48,764,365.73,753.88q-64-66.49-128.07-132.87c-.77-.8-1.4-1.75-2.2-2.77l24.39-25.13c1.65,1.6,3.41,3.23,5.07,5q87.54,90.76,175,181.61c1.3,1.35,2,3.35,2.95,5.05H426.77a36.12,36.12,0,0,0-3.52-5.22Q370.9,725,318.48,670.68q-29.12-30.25-58.2-60.72l-8.48,8.69C271.49,639,291,659.18,310.39,679.33q48.39,50.17,96.72,100.42c1.17,1.21,1.49,3.3,2.21,5Z"/><path class="cls-6" d="M-36.52,762.44a54.67,54.67,0,0,0,5-4.17q45.59-47.21,91.1-94.48c.78-.8,1.67-1.49,2.32-2.06l89.62,93.11L126.88,780,63.51,713.51-7,784.73H-21.75c.24-1.06.14-2.46.77-3.11C6.6,752.83,34.24,724.1,62.43,694.79l65.07,68.13,8.08-7.56L61.74,679c-.59.55-1.61,1.43-2.54,2.39Q14.6,727.67-30,773.92a63.39,63.39,0,0,1-6.51,5.23Z"/><path class="cls-6" d="M295.17,784.73c-.87-1.48-1.51-3.21-2.66-4.4q-48.28-50.28-96.7-100.44a14.36,14.36,0,0,0-1.92-1.38L162,712.66,29.76,575.11c-20.85,21.68-40.86,42.53-61,63.26-1.36,1.39-3.53,1.93-5.32,2.87V625.92c8.48-8.48,17.05-16.87,25.43-25.45C2.28,586.8,15.53,573,29,559.13L160.23,695.61l33-35.85c9.35,9.91,17.5,18.71,25.81,27.35q44.54,46.27,89.13,92.52c1.34,1.39,2.1,3.38,3.13,5.1Z"/><path class="cls-6" d="M314-.95c8.19,8.8,16.25,17.73,24.58,26.39Q391.88,80.9,445.36,136.18a18,18,0,0,0,3.65,2.4l-25.46,26.61c-13.12-13.76-26.74-28.14-40.46-42.4Q325.71,63.17,268.31,3.58c-1.18-1.22-1.8-3-2.68-4.53h16.11A53.77,53.77,0,0,0,286,4.77q43.56,45.32,87.2,90.55c17,17.7,34,35.48,49.87,52l9.81-8.36c-2.26-1.95-4.46-3.57-6.35-5.53Q364.57,69.33,302.77,5.08c-1.56-1.63-2.4-4-3.57-6Z"/><path class="cls-6" d="M720.86,269.3c-9.89,9.89-19.93,19.62-29.64,29.69-22.9,23.75-45.64,47.65-68.26,71.31-19.4-20.3-38.24-40-56.74-59.34l23.68-24,31.46,33.79C635.69,305.63,648.77,291.78,662,278q27-28.09,54.06-56c1.27-1.32,3.22-1.93,4.85-2.86v15.32q-34.73,35.8-69.43,71.62c-9.72,10.07-19.21,20.39-29.65,31.49l-31.12-33.31-8.73,6.26L622.44,353c.86-.81,1.89-1.69,2.83-2.66q44.6-46.29,89.24-92.54c1.67-1.73,4.21-2.55,6.35-3.8Z"/><path class="cls-6" d="M-36.52,660.74l64.69-68.06L185.55,756c-7.15,7.12-14.86,14.7-22.45,22.41a67.21,67.21,0,0,0-4.9,6.28H142.08c4.39-5.05,8.6-10.28,13.2-15.11s9.49-9.11,14.05-13.45L28.53,610.36l-47.78,49.83c-4.58,4.77-9.13,9.55-13.82,14.21-.86.86-2.28,1.13-3.45,1.67Z"/><path class="cls-6" d="M214.6-.95l36.53,37.16L226.18,61.5,195.36,28.31,162.05,63.47,137,37.16C148.78,24.7,160.87,11.87,173-.95h14.77c-.9,1.7-1.48,3.74-2.76,5.06-10.66,11.06-21.44,22-32,32.8l8.45,9.84L194.21,11.5l31.43,33.17L235,37.58c-10.85-11.29-21.28-22.07-31.6-33-1.47-1.56-2.36-3.7-3.52-5.56Z"/><path class="cls-6" d="M-36.52,249.79c3.43-3.11,7-6,10.26-9.37,18.4-19,36.7-38,54.77-56.75l24.77,25.71L-14,279c-6.17,6.39-12.28,12.85-18.54,19.14-1,1-2.62,1.2-4,1.77V284.62q18.59-19,37.16-37.94l36.7-37.47-7.78-9.35c-1.65,1.63-2.77,2.69-3.85,3.81q-27.24,28.25-54.49,56.46a88,88,0,0,1-7.74,6.38Z"/><path class="cls-6" d="M-36.52,694.18C-25.35,682.93-14.11,671.75-3,660.41c10.66-10.91,21.16-22,31.28-32.5L53,653.7c-18.88,19.54-38.47,39.82-58,60.11-8.86,9.17-17.67,18.4-26.61,27.49-1.31,1.34-3.23,2-4.87,3V729l73.18-76.81c-2.24-2.58-4.58-5.27-8.1-9.3-1.86,2.67-3.06,5-4.77,6.75q-27.39,28.61-55,57c-1.36,1.39-3.54,1.91-5.34,2.84Z"/><path class="cls-6" d="M720.86,405.82c-6.73,6.67-13.57,13.23-20.19,20-15.08,15.5-30,31.12-45,46.58l-24.45-26.56c12.62-12.88,26.17-26.63,39.62-40.48,15.07-15.51,30-31.14,45.12-46.63,1.31-1.35,3.23-2.08,4.86-3.09V371L647.5,447.84l8.25,9a58.61,58.61,0,0,1,4.35-6q27.63-28.83,55.43-57.48c1.37-1.4,3.54-2,5.33-2.92Z"/><path class="cls-6" d="M504.66,784.73c1-1.69,1.69-3.67,3-5,7.9-8.12,15.94-16.1,24.3-24.49l-33-33.61,25.4-25.69c5.33,5.64,11.47,12.23,17.72,18.71q31.21,32.43,62.46,64.83c1.43,1.49,2.37,3.5,3.53,5.27H592a53.17,53.17,0,0,0-3.93-5.28c-10.52-11-21.17-21.89-31.67-32.92-10.94-11.49-21.77-23.11-32-34l-10.11,8.63,34.24,34.29c-5.2,5-10.09,9.42-14.61,14.19s-8.77,10-13.14,15.05Z"/><path class="cls-6" d="M720.86,29.69Q691.63,59.77,662.4,89.85c-2.34,2.42-4.25,5.29-6.2,7.75L630.81,71C644.67,56.75,659,42.17,673.1,27.39c8.9-9.3,17.53-18.88,26.28-28.34h16.11a23.79,23.79,0,0,1-2.66,4.29q-13.43,14.09-27,28c-13,13.34-26,26.64-39.05,40.05l8.67,8.25c1.11-1.09,2.4-2.31,3.64-3.6Q687.52,46.6,716,17.16c1.27-1.31,3.23-1.88,4.87-2.79Z"/><path class="cls-6" d="M229.37,784.73c-1.33-1.94-2.42-4.1-4-5.76-18.44-19.26-36.94-38.45-55.11-57.32l24.66-25.17a27.91,27.91,0,0,1,2.71,2.38q38.69,40.1,77.29,80.3c1.36,1.42,1.89,3.69,2.8,5.57H262.94a31.52,31.52,0,0,0-2.71-3.78c-14.05-14.61-28.17-29.14-42.2-43.76-8-8.3-15.8-16.73-23.08-24.44l-9.17,8.1c18.82,19.49,37.31,38.61,55.72,57.83,1.63,1.7,2.67,4,4,6.05Z"/><path class="cls-6" d="M413.34-.95c9,9.8,17.92,19.68,27,29.36,2.78,2.95,6.12,5.33,9.17,7.94L423.68,63,381.61,18.92c-5.18-5.44-10.42-10.81-15.51-16.34-.74-.81-.75-2.34-1.1-3.53h14.77l45.67,44.63,7.1-6.36C421.52,26,410.9,15.06,400.38,4.07c-1.32-1.39-2.11-3.34-3.15-5Z"/><path class="cls-6" d="M550.32-.95c-.06.71.15,1.7-.23,2.09C530.32,21.79,510.5,42.39,490.2,63.49c-19.34-20.17-38.38-40-57.33-59.89-1.07-1.12-1.4-3-2.07-4.55h14.77l46.21,45.79C505,31,519.22,16.21,533.36,1.37c.52-.54.57-1.54.84-2.32Z"/><path class="cls-6" d="M720.86,98c-10.25,11.57-20.51,23.13-30.65,34.56L664.15,105c18-18.68,36.5-37.83,55-56.94.33-.34,1.13-.18,1.7-.26V64.52l-41,40.48,8.25,9.91C697.65,104.75,706.77,95,716,85.34c1.24-1.29,3.21-1.83,4.83-2.71Z"/><path class="cls-6" d="M10.48,784.73c.1-.62,0-1.46.32-1.82,17-17.68,34.06-35.33,51.72-53.61,15.65,16.36,31.19,32.54,46.64,48.82,1.83,1.94,3.16,4.39,4.72,6.61H97.77c-11.65-12.79-23.31-25.57-35.58-39C53,755.44,44.46,764.46,36,773.61c-3.28,3.55-6.28,7.4-9.41,11.12Z"/><path class="cls-6" d="M56.14-.95c-.64,1.38-1,3.07-2,4.09q-43.3,45.08-86.76,90c-1,1-2.62,1.37-4,2V78.45c1.2-.67,2.65-1.09,3.57-2q35.81-37,71.46-74.14c.77-.8,1-2.13,1.51-3.21Z"/><path class="cls-6" d="M636.26,784.73c.57-1.2.89-2.65,1.75-3.55q39.65-41.26,79.41-82.38c.87-.9,2.28-1.24,3.44-1.84v16.72a21,21,0,0,0-3.59,2.45q-31.54,32.58-63,65.28a15.81,15.81,0,0,0-1.91,3.32Z"/><path class="cls-6" d="M22.57-.95c-.28,1.19-.17,2.77-.88,3.51Q-5.6,31.09-33.09,59.41c-.73.75-2.27.64-3.43.93V45c2.46-2.2,5.08-4.24,7.35-6.63C-16.8,25.32-4.52,12.17,7.8-.95Z"/><path class="cls-6" d="M649.69-.95,622.08,29.79,594.63-.95h16.12l11.41,13.31L633.58-.95Z"/><path class="cls-6" d="M669.83,784.73c.23-1,.11-2.43.72-3.06q23.6-24.67,47.39-49.16c.6-.63,1.93-.5,2.92-.72v15.32L684.6,784.73Z"/><path class="cls-6" d="M516.75-.95c-.3,1.19-.23,2.76-1,3.53-8.23,8.79-16.58,17.45-25.71,27C480.9,19.22,472,9.13,463-.95h16.12c3.61,4.31,7.22,8.62,11.16,13.34L502-.95Z"/><path class="cls-6" d="M116.57-.95c.89,1.51,1.78,3,2.7,4.6L95.5,27.71C86.46,18.76,77,9.4,67.59,0a5.64,5.64,0,0,1,.64-.95H83L95.46,11.42c3.69-3.33,7.7-6.34,6.34-12.37Z"/><path class="cls-6" d="M720.86,539.55c-1.94-1.38-4.12-2.5-5.8-4.17-6.24-6.22-12.31-12.63-18.92-19.45,7.88-8.17,15.53-16.11,23.23-24,.21-.22,1,.16,1.49.26v15.32l-8.55,8.64,8.55,6.68Z"/><path class="cls-6" d="M720.86,163.43c-1-.27-2.31-.2-3-.84-7.17-7.2-14.25-14.51-22.25-22.71l25.21-23.82v16.72l-8.57,7.2,8.57,8.12Z"/><path class="cls-6" d="M538.23,784.73c.31-1.19.25-2.73,1-3.52,5.35-5.91,10.86-11.67,16.86-18.05,6.42,6.72,12.48,13.05,18.47,19.46.33.36,0,1.39,0,2.11Z"/><polygon class="cls-6" points="702.06 784.73 720.86 765.22 720.86 784.73 702.06 784.73"/><path class="cls-6" d="M514,755.27c-7.65,7.79-15.77,16.06-23.63,24.08L302.14,583.94l23.76-23.88L514,755.27M318.75,583.42,490.7,762l7.12-6.22L325.24,576.54l-6.49,6.88"/><path class="cls-6" d="M556,301.69l-23-24.58,89.54-92.82L646,208.36,556,301.69m66.55-101.24-72.74,75.48,6,7.8,73.65-76.19-6.89-7.09"/><path class="cls-6" d="M555.88,574.77,533,550.41l89.56-92.78,23.29,23.88-90,93.26m66.74-101-73.39,75.94,6.16,7.21,74-76.34-6.76-6.81"/><path class="cls-6" d="M514.15,140.6l-23.06,23.67-56.4-58.79c7.07-7.25,15.1-15.5,22.93-23.52l56.53,58.64m-64.51-35.21,41,42.65,6.83-6.6-41-43c-2.08,2.1-4.45,4.52-6.84,7"/><path class="cls-6" d="M194.85,82.34l55.87,57.74-23.65,24.48-56.42-58.87,24.2-23.35M234.23,141l-40.6-41.82-6.75,6.67,40.53,42.27,6.82-7.12"/><path class="cls-6" d="M128.82,457.26l22.87,24.31L62.07,574.38c-7.49-7.81-15.46-16.13-23.15-24.17l89.9-93m.44,17.09L56.08,550.09l5.64,7.1,73.55-75.85-6-7"/><path class="cls-6" d="M-3.62,115.54l24.1,24.56L-3.28,164.53c-7.92-8.17-15.92-16.44-23.83-24.59l23.49-24.4m-.13,32.17L4,139.94l-6.72-7.74-9,8,8,7.47"/><path class="cls-6" d="M490.36,677.06,434.08,618.6l23.45-24.13c18.28,19.11,37.26,38.93,56.23,58.75l-23.4,23.84m-40.6-59.31,39.94,41.78,7.21-6.17-40.06-42.7-7.09,7.09"/><path class="cls-6" d="M29.93,458l23.16,23.91L-3.39,540.67l-23.13-24.84L29.93,458m6.51,23.63-6.57-7.39-41.31,42.13,7.67,7.22,40.21-42"/></g></g></g></g></g></g></svg>