<svg xmlns="http://www.w3.org/2000/svg" xmlns:xlink="http://www.w3.org/1999/xlink" viewBox="0 0 400 404"><defs><style>.cls-1,.cls-30,.cls-34,.cls-38,.cls-42,.cls-47,.cls-50,.cls-56{fill:none;}.cls-2{isolation:isolate;}.cls-3{clip-path:url(#clip-path);}.cls-4{fill:#fff;}.cls-5{fill:#cf1c31;}.cls-6{fill:#3a3870;}.cls-7{opacity:0.05;}.cls-8{clip-path:url(#clip-path-2);}.cls-9{clip-path:url(#clip-path-3);}.cls-10{fill:#bacad1;}.cls-11{fill:#f7fafb;}.cls-12{fill:#c9d6dd;}.cls-13{clip-path:url(#clip-path-5);}.cls-14{fill:#bdcfda;}.cls-15{fill:#b5c6d7;}.cls-16{fill:#f4dddf;}.cls-17{fill:#d2c2bd;}.cls-18{fill:#d5dde6;}.cls-19{fill:#a7b6c1;}.cls-20{clip-path:url(#clip-path-7);}.cls-21{fill:#ced8da;}.cls-22{fill:#f6f9fb;}.cls-23{fill:#cdd6d4;}.cls-24{fill:#d2dbe3;}.cls-25{clip-path:url(#clip-path-9);}.cls-26{clip-path:url(#clip-path-10);}.cls-27{clip-path:url(#clip-path-11);}.cls-28{fill:#ebeff3;}.cls-29{fill:#aab9bf;}.cls-30,.cls-34{stroke:#ebeff3;}.cls-30,.cls-34,.cls-38,.cls-42,.cls-47,.cls-50,.cls-56{stroke-miterlimit:10;}.cls-31,.cls-48{mix-blend-mode:multiply;}.cls-32{clip-path:url(#clip-path-12);}.cls-33{fill:#ebeef3;}.cls-34{stroke-width:0.97px;}.cls-35{fill:#eae4e5;}.cls-36{fill:#fdfaf7;}.cls-37{fill:#f4f1f0;}.cls-38,.cls-47,.cls-50{stroke:#eae7e4;}.cls-38{stroke-width:1.04px;}.cls-39{fill:#b0cdd1;}.cls-40{fill:#a8b7c1;}.cls-41{fill:#cdd9e0;}.cls-42{stroke:#0b2a4d;}.cls-43{opacity:0.26;}.cls-44{clip-path:url(#clip-path-13);}.cls-45{fill:#0b2a4d;}.cls-46{fill:#3d7faa;}.cls-47{stroke-width:0.63px;}.cls-48{opacity:0.49;}.cls-49{clip-path:url(#clip-path-14);}.cls-50{stroke-width:0.8px;}.cls-51{opacity:0.2;mix-blend-mode:overlay;}.cls-52{clip-path:url(#clip-path-15);}.cls-53{fill:#fefefe;}.cls-54{opacity:0.37;}.cls-55{clip-path:url(#clip-path-16);}.cls-56{stroke:#fdfaf7;stroke-width:0.85px;}.cls-57{clip-path:url(#clip-path-17);}.cls-58{clip-path:url(#clip-path-18);}.cls-59{fill:#fad3c2;}.cls-60{fill:#cac4b8;}.cls-61{fill:#e2dacd;}.cls-62{fill:#eac3b7;}.cls-63{fill:#c6bdac;}.cls-64{fill:#ddd5ca;}.cls-65{fill:#565554;}.cls-66{fill:#91773a;}.cls-67{fill:#675223;}.cls-68{fill:#595958;}.cls-69{fill:#211e0f;}.cls-70{fill:#c18676;}.cls-71{fill:#dfb18d;}.cls-72{fill:#e6ded1;}.cls-73{fill:#cfc9bb;}.cls-74{fill:#877138;}.cls-75{fill:#a1853c;}.cls-76{fill:#a78569;}.cls-77{fill:#826047;}</style><clipPath id="clip-path"><polygon class="cls-1" points="258.07 118.03 344.01 136.26 354.84 79.63 270.03 61.64 258.07 118.03"/></clipPath><clipPath id="clip-path-2"><rect class="cls-1" x="62.75" y="295.74" width="249.25" height="66.81"/></clipPath><clipPath id="clip-path-3"><rect class="cls-1" x="79.04" y="69.42" width="58.48" height="69.65"/></clipPath><clipPath id="clip-path-5"><rect class="cls-1" x="85.05" y="112.41" width="96.92" height="166.04"/></clipPath><clipPath id="clip-path-7"><rect class="cls-1" x="85.56" y="235.55" width="158.23" height="87.65"/></clipPath><clipPath id="clip-path-9"><rect class="cls-1" x="135.28" y="225.43" width="65.55" height="91.36"/></clipPath><clipPath id="clip-path-10"><rect class="cls-1" x="200.83" y="234.34" width="46.18" height="66.34"/></clipPath><clipPath id="clip-path-11"><rect class="cls-1" x="92.46" y="238.94" width="42.82" height="24.85"/></clipPath><clipPath id="clip-path-12"><rect class="cls-1" x="123.44" y="259.14" width="4.97" height="54.63"/></clipPath><clipPath id="clip-path-13"><rect class="cls-1" x="70.87" y="248.39" width="4.67" height="55.37"/></clipPath><clipPath id="clip-path-14"><rect class="cls-1" x="68.83" y="283.43" width="13.52" height="9.08"/></clipPath><clipPath id="clip-path-15"><rect class="cls-1" x="104.05" y="292.51" width="17.05" height="11.45"/></clipPath><clipPath id="clip-path-16"><rect class="cls-1" x="130.57" y="251.68" width="3.09" height="3.09"/></clipPath><clipPath id="clip-path-17"><rect class="cls-1" x="121.42" y="263.93" width="30.16" height="40.99"/></clipPath><clipPath id="clip-path-18"><rect class="cls-1" x="90.48" y="56.28" width="185.3" height="266.3"/></clipPath></defs><title>acarabahasa</title><g class="cls-2"><g id="Layer_1" data-name="Layer 1"><g class="cls-3"><rect class="cls-4" x="288.88" y="46.55" width="57.22" height="109.25" transform="translate(152.62 390.75) rotate(-78.02)"/><rect class="cls-5" x="320.69" y="20.6" width="4.53" height="109.16" transform="translate(182.38 375.5) rotate(-78.02)"/><rect class="cls-5" x="318.86" y="29.26" width="4.53" height="109.16" transform="translate(172.45 380.57) rotate(-78.02)"/><rect class="cls-5" x="317.02" y="37.92" width="4.53" height="109.16" transform="translate(162.53 385.63) rotate(-78.02)"/><rect class="cls-5" x="315.18" y="46.58" width="4.53" height="109.16" transform="translate(152.6 390.7) rotate(-78.02)"/><rect class="cls-5" x="313.34" y="55.24" width="4.53" height="109.16" transform="translate(142.67 395.76) rotate(-78.02)"/><rect class="cls-5" x="311.51" y="63.9" width="4.53" height="109.16" transform="translate(132.74 400.83) rotate(-78.02)"/><rect class="cls-5" x="309.67" y="72.56" width="4.53" height="109.16" transform="translate(122.82 405.89) rotate(-78.02)"/><rect class="cls-6" x="272.59" y="59.57" width="31.09" height="43.6" transform="translate(148.73 346.34) rotate(-78.02)"/><polygon class="cls-4" points="273.41 63.57 273.55 64.9 274.84 65.17 273.63 65.72 273.77 67.05 272.89 66.06 271.68 66.6 272.34 65.44 271.46 64.46 272.75 64.73 273.41 63.57"/><polygon class="cls-4" points="276.26 67.44 276.4 68.77 277.69 69.04 276.49 69.58 276.62 70.91 275.74 69.92 274.53 70.47 275.19 69.31 274.31 68.32 275.6 68.6 276.26 67.44"/><polygon class="cls-4" points="274.97 73.54 275.11 74.86 276.4 75.14 275.19 75.68 275.33 77.01 274.44 76.02 273.24 76.56 273.9 75.41 273.02 74.42 274.31 74.69 274.97 73.54"/><polygon class="cls-4" points="273.68 79.63 273.81 80.96 275.11 81.23 273.9 81.78 274.03 83.1 273.15 82.11 271.94 82.66 272.61 81.5 271.72 80.52 273.01 80.79 273.68 79.63"/><polygon class="cls-4" points="272.38 85.73 272.52 87.06 273.81 87.33 272.6 87.88 272.74 89.2 271.86 88.21 270.65 88.76 271.31 87.6 270.43 86.61 271.72 86.89 272.38 85.73"/><polygon class="cls-4" points="283.39 68.95 283.53 70.28 284.82 70.55 283.61 71.1 283.75 72.42 282.86 71.43 281.66 71.98 282.32 70.82 281.44 69.83 282.73 70.11 283.39 68.95"/><polygon class="cls-4" points="282.1 75.05 282.23 76.37 283.52 76.65 282.32 77.19 282.45 78.52 281.57 77.53 280.36 78.08 281.02 76.92 280.14 75.93 281.43 76.2 282.1 75.05"/><polygon class="cls-4" points="280.8 81.14 280.94 82.47 282.23 82.74 281.02 83.29 281.16 84.62 280.28 83.63 279.07 84.17 279.73 83.02 278.85 82.03 280.14 82.3 280.8 81.14"/><polygon class="cls-4" points="279.51 87.24 279.64 88.57 280.94 88.84 279.73 89.39 279.87 90.71 278.98 89.72 277.78 90.27 278.44 89.11 277.56 88.12 278.85 88.4 279.51 87.24"/><polygon class="cls-4" points="290.52 70.46 290.65 71.79 291.94 72.06 290.74 72.61 290.87 73.93 289.99 72.94 288.78 73.49 289.44 72.33 288.56 71.35 289.85 71.62 290.52 70.46"/><polygon class="cls-4" points="289.22 76.56 289.36 77.89 290.65 78.16 289.44 78.7 289.58 80.03 288.69 79.04 287.49 79.59 288.15 78.43 287.27 77.44 288.56 77.72 289.22 76.56"/><polygon class="cls-4" points="287.93 82.66 288.06 83.98 289.36 84.26 288.15 84.8 288.28 86.13 287.4 85.14 286.19 85.68 286.86 84.53 285.97 83.54 287.27 83.81 287.93 82.66"/><polygon class="cls-4" points="286.63 88.75 286.77 90.08 288.06 90.35 286.85 90.9 286.99 92.22 286.11 91.23 284.9 91.78 285.56 90.63 284.68 89.64 285.97 89.91 286.63 88.75"/><polygon class="cls-4" points="297.64 71.97 297.78 73.3 299.07 73.57 297.86 74.12 298 75.45 297.11 74.46 295.91 75 296.57 73.85 295.69 72.86 296.98 73.13 297.64 71.97"/><polygon class="cls-4" points="296.35 78.07 296.48 79.4 297.77 79.67 296.57 80.22 296.7 81.54 295.82 80.55 294.61 81.1 295.27 79.94 294.39 78.95 295.68 79.23 296.35 78.07"/><polygon class="cls-4" points="295.05 84.17 295.19 85.49 296.48 85.77 295.27 86.31 295.41 87.64 294.53 86.65 293.32 87.2 293.98 86.04 293.1 85.05 294.39 85.32 295.05 84.17"/><polygon class="cls-4" points="293.76 90.26 293.9 91.59 295.19 91.86 293.98 92.41 294.12 93.74 293.23 92.75 292.03 93.29 292.69 92.14 291.81 91.15 293.1 91.42 293.76 90.26"/><polygon class="cls-4" points="304.77 73.49 304.9 74.81 306.19 75.09 304.99 75.63 305.12 76.96 304.24 75.97 303.03 76.51 303.69 75.36 302.81 74.37 304.1 74.64 304.77 73.49"/><polygon class="cls-4" points="303.47 79.58 303.61 80.91 304.9 81.18 303.69 81.73 303.83 83.05 302.95 82.06 301.74 82.61 302.4 81.45 301.52 80.47 302.81 80.74 303.47 79.58"/><polygon class="cls-4" points="302.18 85.68 302.31 87.01 303.61 87.28 302.4 87.83 302.53 89.15 301.65 88.16 300.44 88.71 301.11 87.55 300.23 86.56 301.52 86.84 302.18 85.68"/><polygon class="cls-4" points="300.88 91.78 301.02 93.1 302.31 93.38 301.11 93.92 301.24 95.25 300.36 94.26 299.15 94.8 299.81 93.65 298.93 92.66 300.22 92.93 300.88 91.78"/><polygon class="cls-4" points="272.12 69.67 272.25 71 273.55 71.27 272.34 71.81 272.47 73.14 271.59 72.15 270.38 72.7 271.05 71.54 270.16 70.55 271.46 70.83 272.12 69.67"/><polygon class="cls-4" points="270.82 75.77 270.96 77.09 272.25 77.37 271.05 77.91 271.18 79.24 270.3 78.25 269.09 78.8 269.75 77.64 268.87 76.65 270.16 76.92 270.82 75.77"/><polygon class="cls-4" points="269.53 81.86 269.67 83.19 270.96 83.46 269.75 84.01 269.89 85.33 269 84.35 267.8 84.89 268.46 83.73 267.58 82.75 268.87 83.02 269.53 81.86"/><polygon class="cls-4" points="268.24 87.96 268.37 89.29 269.67 89.56 268.46 90.11 268.59 91.43 267.71 90.44 266.5 90.99 267.17 89.83 266.28 88.84 267.57 89.12 268.24 87.96"/><polygon class="cls-4" points="280.44 65.06 280.58 66.39 281.87 66.66 280.66 67.21 280.8 68.54 279.92 67.55 278.71 68.09 279.37 66.94 278.49 65.95 279.78 66.22 280.44 65.06"/><polygon class="cls-4" points="279.15 71.16 279.29 72.49 280.58 72.76 279.37 73.31 279.5 74.63 278.62 73.64 277.41 74.19 278.08 73.03 277.19 72.04 278.49 72.32 279.15 71.16"/><polygon class="cls-4" points="277.86 77.26 277.99 78.58 279.28 78.86 278.07 79.4 278.21 80.73 277.33 79.74 276.12 80.29 276.78 79.13 275.9 78.14 277.19 78.41 277.86 77.26"/><polygon class="cls-4" points="276.56 83.36 276.7 84.68 277.99 84.95 276.78 85.5 276.92 86.83 276.04 85.84 274.83 86.38 275.49 85.23 274.61 84.24 275.9 84.51 276.56 83.36"/><polygon class="cls-4" points="275.27 89.45 275.4 90.78 276.69 91.05 275.49 91.6 275.62 92.92 274.74 91.93 273.53 92.48 274.2 91.32 273.31 90.33 274.61 90.61 275.27 89.45"/><polygon class="cls-4" points="287.66 66.6 287.8 67.92 289.09 68.2 287.88 68.74 288.02 70.07 287.14 69.08 285.93 69.63 286.59 68.47 285.71 67.48 287 67.75 287.66 66.6"/><polygon class="cls-4" points="286.37 72.69 286.5 74.02 287.8 74.29 286.59 74.84 286.72 76.17 285.84 75.18 284.63 75.72 285.3 74.56 284.42 73.58 285.71 73.85 286.37 72.69"/><polygon class="cls-4" points="285.07 78.79 285.21 80.12 286.5 80.39 285.3 80.94 285.43 82.26 284.55 81.27 283.34 81.82 284 80.66 283.12 79.67 284.41 79.95 285.07 78.79"/><polygon class="cls-4" points="283.78 84.89 283.92 86.21 285.21 86.49 284 87.03 284.14 88.36 283.25 87.37 282.05 87.92 282.71 86.76 281.83 85.77 283.12 86.04 283.78 84.89"/><polygon class="cls-4" points="282.49 90.98 282.62 92.31 283.92 92.58 282.71 93.13 282.84 94.45 281.96 93.47 280.75 94.01 281.42 92.86 280.54 91.87 281.83 92.14 282.49 90.98"/><polygon class="cls-4" points="294.74 68.1 294.88 69.42 296.17 69.7 294.96 70.24 295.1 71.57 294.21 70.58 293.01 71.13 293.67 69.97 292.79 68.98 294.08 69.25 294.74 68.1"/><polygon class="cls-4" points="293.45 74.19 293.58 75.52 294.87 75.8 293.67 76.34 293.8 77.67 292.92 76.68 291.71 77.22 292.37 76.07 291.49 75.08 292.78 75.35 293.45 74.19"/><polygon class="cls-4" points="292.15 80.29 292.29 81.62 293.58 81.89 292.37 82.44 292.51 83.76 291.63 82.77 290.42 83.32 291.08 82.16 290.2 81.17 291.49 81.45 292.15 80.29"/><polygon class="cls-4" points="290.86 86.39 291 87.71 292.29 87.99 291.08 88.53 291.21 89.86 290.33 88.87 289.13 89.42 289.79 88.26 288.9 87.27 290.2 87.55 290.86 86.39"/><polygon class="cls-4" points="289.57 92.48 289.7 93.81 290.99 94.08 289.79 94.63 289.92 95.96 289.04 94.97 287.83 95.51 288.5 94.36 287.61 93.37 288.9 93.64 289.57 92.48"/><polygon class="cls-4" points="301.82 69.6 301.95 70.93 303.25 71.2 302.04 71.75 302.17 73.07 301.29 72.08 300.08 72.63 300.75 71.47 299.86 70.48 301.15 70.76 301.82 69.6"/><polygon class="cls-4" points="300.52 75.7 300.66 77.02 301.95 77.3 300.74 77.84 300.88 79.17 300 78.18 298.79 78.72 299.45 77.57 298.57 76.58 299.86 76.85 300.52 75.7"/><polygon class="cls-4" points="299.23 81.79 299.37 83.12 300.66 83.39 299.45 83.94 299.59 85.27 298.7 84.28 297.5 84.82 298.16 83.67 297.28 82.68 298.57 82.95 299.23 81.79"/><polygon class="cls-4" points="297.94 87.89 298.07 89.22 299.36 89.49 298.16 90.03 298.29 91.36 297.41 90.37 296.2 90.92 296.87 89.76 295.98 88.77 297.27 89.05 297.94 87.89"/><polygon class="cls-4" points="296.64 93.99 296.78 95.31 298.07 95.59 296.86 96.13 297 97.46 296.12 96.47 294.91 97.02 295.57 95.86 294.69 94.87 295.98 95.14 296.64 93.99"/><polygon class="cls-4" points="309.04 71.13 309.17 72.46 310.46 72.73 309.26 73.28 309.39 74.6 308.51 73.61 307.3 74.16 307.97 73 307.08 72.02 308.38 72.29 309.04 71.13"/><polygon class="cls-4" points="307.74 77.23 307.88 78.56 309.17 78.83 307.96 79.37 308.1 80.7 307.22 79.71 306.01 80.26 306.67 79.1 305.79 78.11 307.08 78.39 307.74 77.23"/><polygon class="cls-4" points="306.45 83.33 306.59 84.65 307.88 84.92 306.67 85.47 306.81 86.8 305.92 85.81 304.72 86.35 305.38 85.2 304.5 84.21 305.79 84.48 306.45 83.33"/><polygon class="cls-4" points="305.16 89.42 305.29 90.75 306.58 91.02 305.38 91.57 305.51 92.89 304.63 91.9 303.42 92.45 304.09 91.29 303.2 90.31 304.5 90.58 305.16 89.42"/><polygon class="cls-4" points="303.86 95.52 304 96.84 305.29 97.12 304.08 97.66 304.22 98.99 303.34 98 302.13 98.55 302.79 97.39 301.91 96.4 303.2 96.67 303.86 95.52"/></g><g class="cls-7"><g class="cls-8"><path d="M62.75,318.24l43.68,23.67c9,5.36,59.32,14.68,69.7,13.39L188,353.83a118,118,0,0,1,33.41.62l48,7.76A26.66,26.66,0,0,0,291.25,356l17.88-15.6a8.36,8.36,0,0,0-2.69-14.18L241,305.32l-40.66-9.58Z"/></g></g><g class="cls-9"><g class="cls-9"><path class="cls-10" d="M87.1,84.55a8.74,8.74,0,1,0,9.38,8,8.73,8.73,0,0,0-9.38-8"/><path class="cls-10" d="M82.36,105.54l2.58,33.53,5-.38-2.42-31.3a2.78,2.78,0,0,1,4.57-2.32,2.81,2.81,0,0,1,1,1.9l2.41,31.29,2-.15L96.49,126,95,106.19a10.43,10.43,0,0,0-2.25-5.72,8.73,8.73,0,0,1-9.27.37h0l-.16.34a7.83,7.83,0,0,0-.92,4.35"/><path class="cls-11" d="M87.52,107.39l2.42,31.3,5.52-.43L93.05,107a2.81,2.81,0,0,0-1-1.9,2.78,2.78,0,0,0-4.57,2.32"/><path class="cls-12" d="M127.19,69.45a8.73,8.73,0,1,0,1.35,17.41,8.63,8.63,0,0,0,4.26-1.5,8.73,8.73,0,0,0-5.61-15.91"/><path class="cls-12" d="M122.45,90.43,125,124l5-.38-2.41-31.3a2.77,2.77,0,1,1,5.53-.42l2.41,31.29,2-.15-.94-12.12-1.52-19.8a10.44,10.44,0,0,0-2.26-5.72,8.75,8.75,0,0,1-9.27.38l-.16.35a7.78,7.78,0,0,0-.92,4.34"/><path class="cls-11" d="M127.61,92.28l2.41,31.3,5.53-.43-2.41-31.29a2.77,2.77,0,0,0-5.53.42"/></g></g><g class="cls-13"><g class="cls-13"><path class="cls-14" d="M94.11,260.34l-6.86,18.11,94-7.25-6.69-17.06Zm20.62,11.51-.4-5.17,35-2.7.4,5.17Zm11.42-10a2.57,2.57,0,0,1,.62-1.89,2.61,2.61,0,0,1,1.77-.9l11.76-.9a2.59,2.59,0,1,1,.4,5.17l-11.76.9a2.6,2.6,0,0,1-2.79-2.38"/><path class="cls-15" d="M93.29,249.64l.82,10.7,80.42-6.2L177,254a5.36,5.36,0,0,0,4.93-5.76,5.38,5.38,0,0,0-5.76-4.94l-3.57.27L153.2,245Z"/><path class="cls-16" d="M92.71,242.15l.57,7.49L153.2,245l-.28-3.56a3.92,3.92,0,0,0-4.22-3.62Z"/><path class="cls-17" d="M92.46,238.94l.25,3.21,56-4.31a3.92,3.92,0,0,1,4.22,3.62l.28,3.56,19.43-1.5a10.69,10.69,0,0,0-9.07-9.77,10.48,10.48,0,0,0-2.45-.1l-16.05,1.24L98.7,238.46Z"/><path class="cls-18" d="M85.14,144l7.32,94.95,6.24-.48-6.88-89.24a26.2,26.2,0,0,1,24.11-28.14,20.29,20.29,0,0,1,21.8,18.67l7.33,95.14,16.05-1.24a10.48,10.48,0,0,1,2.45.1l.05-.29-6.56-85.06a39,39,0,0,0-41.87-35.87l-3.3.25A29.06,29.06,0,0,0,85.14,144"/><path class="cls-11" d="M91.82,149.21l6.88,89.25,46.36-3.57-7.33-95.14a20.29,20.29,0,0,0-21.8-18.67,26.2,26.2,0,0,0-24.11,28.13"/><rect class="cls-19" x="114.47" y="265.32" width="35.06" height="5.19" transform="matrix(1, -0.08, 0.08, 1, -20.18, 10.93)"/><path class="cls-19" d="M126.77,259.93a2.59,2.59,0,0,0,2.17,4.27l11.76-.9a2.59,2.59,0,1,0-.4-5.17l-11.76.9a2.61,2.61,0,0,0-1.77.9"/></g></g><g class="cls-20"><g class="cls-20"><polygon class="cls-21" points="85.56 275.48 87.36 298.9 196.48 314.61 193.58 272.24 85.56 275.48"/><polygon class="cls-22" points="89.44 271.17 85.56 275.48 193.58 272.24 193.25 267.48 89.44 271.17"/><polygon class="cls-23" points="87.36 298.9 90.53 305.9 197.07 323.2 196.48 314.61 87.36 298.9"/><polygon class="cls-21" points="87.74 249.08 89.44 271.17 193.25 267.48 191.59 243.23 191.59 243.23 87.74 249.08"/><polygon class="cls-24" points="90.56 243.23 87.74 249.08 191.59 243.23 191.59 243.23 191.08 235.78 190.2 235.55 90.56 243.23"/><polygon class="cls-23" points="196.48 314.61 197.07 323.2 241.04 305.32 241.04 305.31 243.79 297.54 196.48 314.61"/><polygon class="cls-21" points="193.58 272.24 196.48 314.61 243.79 297.54 242.1 275.64 193.58 272.24"/><polygon class="cls-22" points="193.25 267.48 193.58 272.24 242.1 275.64 238.47 271.87 193.53 267.47 193.25 267.48"/><polygon class="cls-21" points="191.59 243.23 193.25 267.48 193.53 267.47 238.47 271.87 237.06 253.62 191.59 243.23"/><polygon class="cls-24" points="191.08 235.78 191.59 243.23 237.06 253.62 240.01 248.45 191.08 235.78"/></g></g><g class="cls-7"><g class="cls-25"><path d="M157.61,316.79s15.78-5.43,14-24.2a32.4,32.4,0,0,0-7.76-18L153,261.83a2.77,2.77,0,0,1,2.77-4.49l6.5,1.61a14.1,14.1,0,0,0,10.6-1.57,8.3,8.3,0,0,1,11.62,3.33l4.19,8.11,8.75-4.84,3.36-20.46-2.19-18.09-14.15,1.39-19.88,3.38-24.45,5.29s-4.88,10.7-4.88,11.78,10.77,30,10.77,30Z"/></g></g><g class="cls-7"><g class="cls-26"><path d="M200.83,234.34l18.26,3.56,21.31,15.72L247,275.09l-.88,13-3.46,12.57s-7-20.89-14.37-34.39c-4-7.3-8.47-11-11.73-12.78a5.58,5.58,0,0,0-7.13,1.47l-4.11,5.36-2.48-10.89Z"/></g></g><g class="cls-7"><g class="cls-27"><path d="M94.22,247.6l8.32,2.61a11.65,11.65,0,0,0,6.77.06c4-1.19,5.73,6.59,9.61,8.26l15.32,5.26,1-24.15-11.83-.7-2.83,1.19a30.42,30.42,0,0,1-16.81,1.92l-11.35-1.92Z"/></g></g><rect class="cls-28" x="123.44" y="259.14" width="15.17" height="54.63"/><rect class="cls-29" x="123.31" y="264.63" width="15.31" height="4.41"/><rect class="cls-29" x="123.31" y="283.43" width="15.31" height="4.41"/><path class="cls-29" d="M137,276.48a3.56,3.56,0,1,1-3.55-3.55,3.55,3.55,0,0,1,3.55,3.55"/><line class="cls-30" x1="138.61" y1="266.84" x2="122.74" y2="266.84"/><line class="cls-30" x1="138.61" y1="285.63" x2="122.74" y2="285.63"/><g class="cls-31"><g class="cls-32"><rect class="cls-33" x="123.44" y="259.14" width="4.97" height="54.63"/></g></g><path class="cls-34" d="M136.34,276.47a2.83,2.83,0,1,1-2.83-2.83A2.83,2.83,0,0,1,136.34,276.47Z"/><path class="cls-35" d="M91.18,318.61H65.06a7.45,7.45,0,1,1,0-14.9H91.18Z"/><path class="cls-21" d="M91.18,318.61H65.06a7.45,7.45,0,1,1,0-14.9H91.18Z"/><path class="cls-36" d="M90.34,317.39h33.1V305.56H89.54A4.42,4.42,0,0,0,85.12,310v2.19a5.22,5.22,0,0,0,5.22,5.22"/><path class="cls-37" d="M90.73,305.56a5.62,5.62,0,0,0-5.61,5.6,5.61,5.61,0,0,1,5.48-4.43h32.84v-1.17Z"/><path class="cls-35" d="M70.71,311.16h0a7.46,7.46,0,0,1,7.45-7.45H73.24a7.45,7.45,0,1,0,0,14.9h4.92a7.45,7.45,0,0,1-7.45-7.45"/><line class="cls-38" x1="123.44" y1="308.36" x2="86.65" y2="308.36"/><line class="cls-38" x1="123.44" y1="310.61" x2="85.8" y2="310.61"/><line class="cls-38" x1="123.44" y1="312.86" x2="85.8" y2="312.86"/><line class="cls-38" x1="123.44" y1="315.11" x2="86.65" y2="315.11"/><path class="cls-33" d="M91.77,316.76a5.6,5.6,0,1,1,0-11.2h32.89v-1.85h-33a7.45,7.45,0,1,0,0,14.9h33.05v-1.85Z"/><path class="cls-39" d="M79.8,303.71H65.06a7.45,7.45,0,1,0,0,14.9c0-13.84,14.74-14.9,14.74-14.9"/><rect class="cls-40" x="79.21" y="248.39" width="43.53" height="55.37"/><rect class="cls-41" x="122.74" y="248.39" width="2.09" height="55.37"/><rect class="cls-36" x="79.21" y="250.43" width="43.53" height="53.34"/><path class="cls-40" d="M103.3,248.39H90.68A19.81,19.81,0,0,0,70.87,268.2V284a19.81,19.81,0,0,0,19.81,19.81H103.3a11.1,11.1,0,0,0,11.11-11.11V259.49a11.1,11.1,0,0,0-11.11-11.1"/><line class="cls-42" x1="75.54" y1="248.39" x2="75.54" y2="302.54"/><rect class="cls-41" x="114.41" y="248.39" width="2.09" height="55.37"/><g class="cls-43"><g class="cls-44"><path class="cls-45" d="M75.54,248.39H73.75a2.88,2.88,0,0,0-2.88,2.88v49.62a2.88,2.88,0,0,0,2.88,2.88h1.79Z"/></g></g><line class="cls-38" x1="117.91" y1="250.43" x2="117.91" y2="303.71"/><line class="cls-38" x1="119.62" y1="250.43" x2="119.62" y2="303.71"/><line class="cls-38" x1="121.33" y1="250.43" x2="121.33" y2="303.71"/><path class="cls-35" d="M89.29,292.51H73.37a4.54,4.54,0,0,1,0-9.08H89.29Z"/><path class="cls-45" d="M89.29,292.51H73.37a4.54,4.54,0,0,1,0-9.08H89.29Z"/><path class="cls-36" d="M88.53,291.76h19a1.38,1.38,0,0,0,1.38-1.38v-4.44a1.38,1.38,0,0,0-1.38-1.38h-19a2.94,2.94,0,0,0-2.94,2.93v1.34a2.94,2.94,0,0,0,2.94,2.93"/><path class="cls-37" d="M89,284.56A3.42,3.42,0,0,0,85.59,288a3.41,3.41,0,0,1,3.34-2.7h20v-.71Z"/><path class="cls-46" d="M76.81,288h0a4.54,4.54,0,0,1,4.54-4.54h-3a4.54,4.54,0,0,0,0,9.08h3A4.54,4.54,0,0,1,76.81,288"/><line class="cls-47" x1="108.94" y1="286.26" x2="86.52" y2="286.26"/><line class="cls-47" x1="108.94" y1="287.63" x2="86.01" y2="287.63"/><line class="cls-47" x1="108.94" y1="289" x2="86.01" y2="289"/><line class="cls-47" x1="108.94" y1="290.37" x2="86.52" y2="290.37"/><path class="cls-46" d="M89.64,291.38a3.41,3.41,0,0,1,0-6.82h20v-1.13H89.55a4.54,4.54,0,1,0,0,9.08h20.14v-1.13Z"/><g class="cls-48"><g class="cls-49"><path class="cls-45" d="M82.35,283.43h-9a4.54,4.54,0,0,0,0,9.08c0-8.44,9-9.08,9-9.08"/></g></g><path class="cls-35" d="M95.3,304h21.14a4.67,4.67,0,0,0,4.66-4.67v-2.12a4.66,4.66,0,0,0-4.66-4.66H95.3Z"/><path class="cls-28" d="M95.3,304h21.14a4.67,4.67,0,0,0,4.66-4.67v-2.12a4.66,4.66,0,0,0-4.66-4.66H95.3Z"/><path class="cls-36" d="M96.52,303h-26v-9.09H96a4,4,0,0,1,4,4v1.69A3.44,3.44,0,0,1,96.52,303"/><path class="cls-37" d="M95.65,293.93a4.3,4.3,0,0,1,4.31,4.3,4.3,4.3,0,0,0-4.21-3.4H70.51v-.9Z"/><path class="cls-28" d="M105.59,298.23h0a5.72,5.72,0,0,0-5.73-5.72h3.79a5.73,5.73,0,1,1,0,11.45H99.86a5.72,5.72,0,0,0,5.73-5.73"/><path class="cls-28" d="M113.55,298.23h0a5.73,5.73,0,0,0-5.73-5.72h3.79a5.73,5.73,0,0,1,0,11.45h-3.79a5.73,5.73,0,0,0,5.73-5.73"/><line class="cls-50" x1="70.51" y1="296.08" x2="98.79" y2="296.08"/><line class="cls-50" x1="70.51" y1="297.81" x2="99.44" y2="297.81"/><line class="cls-50" x1="70.51" y1="299.54" x2="99.44" y2="299.54"/><line class="cls-50" x1="70.51" y1="301.27" x2="98.79" y2="301.27"/><path class="cls-28" d="M94.85,302.54a4.31,4.31,0,1,0,0-8.61H69.56v-1.42H95A5.73,5.73,0,1,1,95,304H69.56v-1.42Z"/><g class="cls-51"><g class="cls-52"><path class="cls-53" d="M104.05,292.51h11.33a5.73,5.73,0,0,1,0,11.45c0-10.64-11.33-11.45-11.33-11.45"/></g></g><g class="cls-54"><g class="cls-55"><path class="cls-56" d="M133.33,253.22a1.22,1.22,0,1,1-2.43,0,1.22,1.22,0,0,1,2.43,0Z"/></g></g><g class="cls-7"><g class="cls-57"><polygon points="126.46 263.93 140.36 266.19 151.58 279.38 149.28 297.3 131.51 304.92 121.42 289.53 126.46 263.93"/></g></g><g class="cls-58"><path class="cls-59" d="M108.22,243.59a4.07,4.07,0,0,0,2.75-1.77,2.43,2.43,0,0,1,1.8-1,4,4,0,0,0,2.8-1.52l.55-.15a5.63,5.63,0,0,1,.16-3.42l5.09-13.8s5.37-8,4.82-16.6a53.87,53.87,0,0,1,2-16.94l3.29-4.52.38-.52h0l2.32-3.17.24-.34.1-.09c.05-.08.12-.15.18-.23l.43-.48a2.09,2.09,0,0,1,.2-.22c1.9-2.44,3.25-6.22,4.21-9.94.5-2,.89-3.92,1.19-5.65.59-3.47.81-6,.81-6a7.78,7.78,0,0,0,2.74-1.74,10.83,10.83,0,0,0,1.06-1.19A19.92,19.92,0,0,1,143.7,160c-.84,5.32-2.56,13.7-5.27,16.3a14.15,14.15,0,0,0,1.88-2.06,21.25,21.25,0,0,1,1.54-1.85,34.24,34.24,0,0,0,5.84-8.27,28,28,0,0,0,1.86-4.72c1.37-4.74,6.14-7.36,8.2-11.84,4.11-8.91,25.06-8.07,25.06-8.07a4.08,4.08,0,0,0,2.78-1,11.14,11.14,0,0,0-4.25-3.08s-.91.22-.73-1.83c.17-1.79,1.43-1.82,1.75-1.8a11.35,11.35,0,0,1-1.49-4h-.05l-.33,1a.63.63,0,0,1-.32.34l-.74.33a.56.56,0,0,0-.32.38l-.28,1a.59.59,0,0,1-.61.43h-.08a.6.6,0,0,0-.54.55l0,.62a.6.6,0,0,1-.26.45l-1.31.89a1.46,1.46,0,0,1-.9.24H175a.58.58,0,0,0-.36.17l-.53.51a2.1,2.1,0,0,1-2,.5,2.77,2.77,0,0,0-1-.1,3.41,3.41,0,0,0-.54.1l-1.64.46a.58.58,0,0,1-.32,0l-2.25-.66h0a9.56,9.56,0,0,1-3.64-2.57.66.66,0,0,0-.19-.15l-1.41-.77a.64.64,0,0,1-.26-.28l-.74-1.75a.62.62,0,0,0-.15-.21l-.89-.79a.55.55,0,0,1-.18-.31c-.08-.31-.17-.62-.28-.92a32.53,32.53,0,0,0-3.83,2l-.56.34a6.78,6.78,0,0,1-2.79,1,41.14,41.14,0,0,0-9.08,2,25,25,0,0,1-5.11,1.41c-3.83.61-10.17,2.21-11.68,6.19,0,0-1.57,3.46-2.57,4s-5.11,5.24-5.44,14.12A9.05,9.05,0,0,1,117,161c-.47,1.33-1.11,4.16-1.12,9.76a13.91,13.91,0,0,1-1.37,6.05,29.86,29.86,0,0,0-2.9,9.84,31.71,31.71,0,0,1-1.43,7.28c-1.66,5-4.11,13.36-3.76,17.87.52,6.75.51,14,.51,14l-.34,7.33a1.34,1.34,0,0,1-1.13,1.27l-11.86,1.92a3,3,0,0,0-2.48,2.43c-.57,3.27-1.34,9.3.57,10.32s3.1-2.13,3.5-5.68a27.38,27.38,0,0,0,13.2,1.21Z"/><path class="cls-60" d="M116.45,311.88c-3.81,2.83-3.33,6.08-3.33,6.08,12,9.73,38.21,1.47,42.86-1s9-10.24,9-10.24.91-6.17-.85-9.61-17.73-29.82-20.78-33.61c-2.54-3.16-3-11.46-3.1-14.16a6,6,0,0,1,.82-4.2,8.74,8.74,0,0,1,5-4.11c5.62-1.87,12.14-7.12,12.34-7.28h0c.57-1.51.94-2.56.94-2.56.38-.94.76-1.87,1.16-2.78h0c-4.87,2.56-19.64,10.88-16.5-2.14s.22-12,.22-12c-7.46,4.95-11.23,18.52-13.39,26.36-.16.59-.32,1.15-.46,1.66-.31,1.09-.57,2-.81,2.7-1.89,5.44,2.61,24.14,7.26,27.06,3,1.88,6.37,7,8.41,10.42a15.83,15.83,0,0,1,2.26,9c-.3,5-2.65,5.53-2.65,5.53s-3.75,1.36-6.68-.16a5.32,5.32,0,0,1-1.47-1.12,13.67,13.67,0,0,0-3.85-3,2.38,2.38,0,0,0-2.58.28c-2.1,1.78-2.87,6.07-2.87,6.07a57.49,57.49,0,0,1-5.66,5.73,22.54,22.54,0,0,0-5.32,7.09"/><path class="cls-59" d="M108.22,243.59l.18,1a19.48,19.48,0,0,0,6.52-2.25,2.64,2.64,0,0,0,1.27-2.94l0-.09c0-.06,0-.12,0-.18l-.55.15a4,4,0,0,1-2.8,1.52,2.43,2.43,0,0,0-1.8,1,4.07,4.07,0,0,1-2.75,1.77"/><path class="cls-61" d="M142.12,211h0c-.05,0-.1-.06-.17-.25-.73.71-1.45,1.45-2.16,2.24L130,225.31s-5.45,5.67-6.58,9a12.37,12.37,0,0,1-1.57.9,3.87,3.87,0,0,0-2,2c-.45,1.19-.3,2.77,2.52,4,5.75-5.22,8.46-.65,8.46-.65,2.16-7.84,5.93-21.41,13.39-26.36,0,0,2.92-1-.22,12s11.63,4.7,16.5,2.14h0A91.17,91.17,0,0,1,176,203.83a11.58,11.58,0,0,1,7-3.68l3.08-.44a17.23,17.23,0,0,1,6.24,0,27.55,27.55,0,0,0-3-.8h0a66.35,66.35,0,0,0-13.19-.61h0l-2.44-.25c-18.73-.12-31.32,13.15-31.53,13"/><path class="cls-60" d="M130.87,240.67s-2.71-4.57-8.46.65c5.24,2.36,8,1,8,1,.14-.51.3-1.07.46-1.66"/><path class="cls-61" d="M131.51,184.85a9.34,9.34,0,0,0,.88,4.24,15.29,15.29,0,0,1-.87-4.33s0,.06,0,.09"/><path class="cls-61" d="M131.52,184.76a15.29,15.29,0,0,0,.87,4.33v0c.1.25.2.51.32.77l5.63-13.48.08-.07a16.1,16.1,0,0,1-1.77,1.41,7.79,7.79,0,0,0-1.28,1.08,10.69,10.69,0,0,1-.82.92c-.12.15-.23.29-.33.44l-2.32,3.17h0a2.89,2.89,0,0,0-.38,1.39"/><path class="cls-62" d="M131.52,183.89a6.46,6.46,0,0,0,0,.87,2.89,2.89,0,0,1,.38-1.39Z"/><path class="cls-62" d="M132.4,189.12c.09.26.19.53.3.8l0,0c-.12-.25-.22-.51-.32-.76"/><path class="cls-59" d="M132.72,189.89l0,0a20.14,20.14,0,0,0,1.78,3.42c1.73,2.67,3.19,5.21,4.24,7.25a26.87,26.87,0,0,0-2.46-4.55,38.21,38.21,0,0,1-3.54-6.15"/><path class="cls-61" d="M138.35,176.41l-5.63,13.47a38.26,38.26,0,0,0,3.54,6.16l.82.43A26.54,26.54,0,0,0,154.83,199l3.8-.79c-2.65-1.71-6.94-1.81-6.94-1.81-10.83-1.33-9.85-4.94-9.24-6.09a1.08,1.08,0,0,1,0-1.22c2.86-4.46,8.8-13.17,14.32-17.84.33-.28.67-.59,1-.92-3.12-.33-7.7-1.53-9.4-5.63l-.69-.57a34,34,0,0,1-5.84,8.27,21.25,21.25,0,0,0-1.54,1.85,14.15,14.15,0,0,1-1.88,2.06l-.08.07m6.49,7.94c-5.19-.18-4.45-5.32-4.45-5.32,1.65,4.12,4.45,5.32,4.45,5.32m4.58-6.23s-5.52,2.44-5.45-5.85c0,0,.66,5,5.45,5.85"/><path class="cls-63" d="M138.2,296.87c2.93,1.52,6.68.16,6.68.16s2.35-.56,2.65-5.53a15.83,15.83,0,0,0-2.26-9c-2-3.42-5.42-8.54-8.41-10.42,0,0,7.33,12.9,6.54,17.57s-.09,6.37-5.2,7.21"/><path class="cls-62" d="M134.47,179.85l-.24.34a4.34,4.34,0,0,1,.34-.44l-.1.1"/><path class="cls-61" d="M134.75,179.53c-.06.08-.13.15-.19.22a10.69,10.69,0,0,0,.82-.92,2.09,2.09,0,0,0-.2.22Z"/><path class="cls-63" d="M141.06,245.18a6,6,0,0,0-.82,4.2c0-.54,0-.86,0-.86,7.49-5.81,12.7-3.88,12.7-3.88l.31-.54c1.57-1.25,3.9-6.93,5.19-10.31-.2.16-6.72,5.41-12.34,7.28a8.74,8.74,0,0,0-5,4.11"/><path class="cls-64" d="M137.08,196.47l-.82-.43a26.49,26.49,0,0,1,2.46,4.55,24.08,24.08,0,0,1,1.68,3.89c.38,1.43,1.28,4.82,1.63,6.19a44.37,44.37,0,0,1,18.13-10.91h0a4.73,4.73,0,0,0-1.53-1.52l-3.8.79a26.54,26.54,0,0,1-17.75-2.56"/><path class="cls-62" d="M135.38,178.83a8.23,8.23,0,0,1,1.28-1.08,16.1,16.1,0,0,0,1.77-1.41c2.71-2.6,4.43-11,5.27-16.3a19.29,19.29,0,0,1-2,3.37l-.94-.17c-.3,1.73-.69,3.68-1.19,5.65-1,3.72-2.31,7.5-4.21,9.94"/><path class="cls-64" d="M140.4,204.48a23.7,23.7,0,0,0-1.68-3.89A86.87,86.87,0,0,1,142,210.75l.08-.08c-.35-1.37-1.25-4.76-1.63-6.19"/><path class="cls-64" d="M142,210.67l-.08.08c.07.19.12.28.17.25s-.05-.2-.09-.33"/><path class="cls-64" d="M142,210.67q.06.2.09.33h0c.21.17,12.8-13.1,31.53-13h0a38.74,38.74,0,0,0-9.94.83c-1.12.24-2.3.54-3.51.91A44.37,44.37,0,0,0,142,210.67"/><path class="cls-61" d="M140.39,179s-.74,5.14,4.45,5.32c0,0-2.8-1.2-4.45-5.32"/><path class="cls-61" d="M142.45,190.34c-.61,1.15-1.59,4.76,9.24,6.09,0,0,4.29.1,6.94,1.81l1.67-.35c0-.44.1-.89.18-1.34a25.34,25.34,0,0,0-9.86-2.77c-6.74-.62-7.88-2.35-8-3.24a1.63,1.63,0,0,1-.17-.2"/><path class="cls-60" d="M142.67,190a.67.67,0,0,0,1.12.74c5.71-2.38,17.46-8.4,18.84-18a17.48,17.48,0,0,1,.5-2.32l-2.22,0a19.26,19.26,0,0,1-3.13-.09c-.35.33-.69.64-1,.92-5.52,4.68-11.46,13.38-14.32,17.84a1.08,1.08,0,0,0,0,1.22,2.2,2.2,0,0,1,.22-.35"/><path class="cls-60" d="M142.45,190.34a1.63,1.63,0,0,0,.17.2,1.1,1.1,0,0,1,0-.55,2.2,2.2,0,0,0-.22.35"/><path class="cls-62" d="M140.78,163.24l.94.17a19.29,19.29,0,0,0,2-3.37c.42-2.68.63-4.58.63-4.58a7.64,7.64,0,0,1-2.74,1.74s-.22,2.57-.81,6"/><path class="cls-61" d="M143.79,190.73a1.09,1.09,0,0,1-1.17-.19c.12.89,1.26,2.62,8,3.24a25.52,25.52,0,0,1,9.86,2.77c.83-5.06,3.34-10.55,6.42-15.74a113.3,113.3,0,0,1,8.31-11.94,51.25,51.25,0,0,1-12.08,1.53,17.48,17.48,0,0,0-.5,2.32c-1.38,9.61-13.13,15.63-18.84,18"/><path class="cls-61" d="M144,172.27c-.07,8.29,5.44,5.85,5.44,5.85-4.78-.9-5.44-5.85-5.44-5.85"/><path class="cls-62" d="M144.33,155.46s-.21,1.9-.63,4.58a19.92,19.92,0,0,0,1.69-5.77,10.83,10.83,0,0,1-1.06,1.19"/><path class="cls-60" d="M157.61,247.17a14.94,14.94,0,0,0,4.5-1.43l.76-.41a9.2,9.2,0,0,0,4.61-6.46,53.17,53.17,0,0,1,4.72-13.27,1.92,1.92,0,0,1,.62-.7,2,2,0,0,1,.89-.31,1,1,0,0,0,.94-1.09,1,1,0,0,0-.1-.37,3.47,3.47,0,0,1-.15-2.68,58.81,58.81,0,0,1,4.51-8.8h0c1.36-2.29,2.47-4,2.47-4,6.93-8.44,16.08-3.81,17.15-3.23a37.45,37.45,0,0,1,4.88.3,27.24,27.24,0,0,0-5.95-3.51.05.05,0,0,1,0,0,22.89,22.89,0,0,0-5.1-1.52,17.46,17.46,0,0,0-6.24,0l-3.08.44a11.58,11.58,0,0,0-7,3.68,91.17,91.17,0,0,0-15.5,24.61c-.4.91-.78,1.84-1.16,2.78,0,0-.37,1.06-.94,2.56h0c-1.29,3.38-3.62,9.06-5.19,10.31l-.31.54c.71,2.36,2.73,2.77,4.68,2.53"/><path class="cls-61" d="M147.69,164.16l.69.57,1.28.49a22.81,22.81,0,0,0,10.25,2.93,134.75,134.75,0,0,0,11-15,29.55,29.55,0,0,1,15.23-11.82,2.28,2.28,0,0,0,.22-1.11,2.17,2.17,0,0,0,0-.25,4,4,0,0,0-.77-1.47,4.08,4.08,0,0,1-2.78,1s-20.95-.84-25.06,8.07c-2.06,4.48-6.83,7.1-8.2,11.84a28,28,0,0,1-1.86,4.72"/><path class="cls-61" d="M149.66,165.22l-1.28-.49c1.7,4.1,6.28,5.3,9.4,5.63.69-.65,1.4-1.39,2.13-2.21a22.81,22.81,0,0,1-10.25-2.93"/><path class="cls-63" d="M157.61,247.17c-.16,7.59,5.29,10.26,8.11,11.13a4.7,4.7,0,0,0,3.12-.08c10-3.89,8.45-18.6,8.45-18.6-2.2-10.93,1.51-27.46,1.62-28a58.81,58.81,0,0,0-4.51,8.8,3.47,3.47,0,0,0,.15,2.68,1,1,0,0,1,.1.37,1,1,0,0,1-.94,1.09,2,2,0,0,0-.89.31,1.92,1.92,0,0,0-.62.7,53.17,53.17,0,0,0-4.72,13.27,9.2,9.2,0,0,1-4.61,6.46l-.76.41a14.94,14.94,0,0,1-4.5,1.43"/><path class="cls-59" d="M150.46,105.31s-2.51,2.44,1.07,7.11c.31.4.59.83.86,1.26s.41.68.61,1c.39.67,1.13,1.26,2.47.24,0-.19.06-.38.1-.58l-.15,0-1-.3a.46.46,0,0,1-.33-.39.51.51,0,0,1,.08-.29.51.51,0,0,0,.09-.31.47.47,0,0,0-.21-.36,1.53,1.53,0,0,1-.65-1.32c0-.8.09-1.92.15-2.15s-.2-.15-.48-.08a.49.49,0,0,1-.61-.45,1,1,0,0,0-.34-.69l-1.2-1.39a1.82,1.82,0,0,1-.42-1,2.44,2.44,0,0,1,0-.27Z"/><path class="cls-65" d="M150.47,105.31a2.44,2.44,0,0,0,0,.27,1.82,1.82,0,0,0,.42,1l1.2,1.39a1,1,0,0,1,.34.69.49.49,0,0,0,.61.45c.28-.07.51-.09.48.08s-.11,1.35-.15,2.15a1.53,1.53,0,0,0,.65,1.32.47.47,0,0,1,.12.67.51.51,0,0,0-.08.29.46.46,0,0,0,.32.39l1,.3.15,0a6.91,6.91,0,0,1,.59-1.66.65.65,0,0,1-.06-.34l.05-.88a.33.33,0,0,0,0-.1.72.72,0,0,0-.22-.48.76.76,0,0,1-.17-.84l.44-1a.77.77,0,0,0,0-.54l-.34-1a.8.8,0,0,1,.11-.69l1.38-1.87c-3.44.89-6-.66-6-2.4l0-2.56h-.3l-.07,1.18-.05.78-.41.89a.83.83,0,0,0,0,.72,1.71,1.71,0,0,1,.14.55,1.76,1.76,0,0,1-.1.68,1.65,1.65,0,0,0-.1.48"/><path class="cls-66" d="M157.37,105a9.88,9.88,0,0,0,1.13-.37c4-1.59,11-1.27,11-1.27,3.55-.55,10.72.43,10.72.43a8.82,8.82,0,0,0,.95.24c5.37,1,4.64-5.53,4.64-5.53a4.83,4.83,0,0,1-.37-1.59h0a19.64,19.64,0,0,1,0-3.12c0-.36.07-.72.1-1.08s-1.91-8.47-7.26-11.56-10.91-12-10.91-12a91.93,91.93,0,0,1-10,13.28,22.28,22.28,0,0,0-5.12,8.67,18.59,18.59,0,0,0-.92,6.29c0,.2,0,.4,0,.61l0,2,0,2.56c0,1.74,2.54,3.29,6,2.4m-.07-16.22s1.71-4.11,5.54-5.52a2.55,2.55,0,0,1,2.25.21,4.63,4.63,0,0,1,2.28,3.39s-2.94-.18-4.11.5-3.46,2-6,1.42M175,87c-1.31-1-4.78-.26-5.68-.07,0,0,1.64-6,5.48-3.65s5.11,4,5,4.44c0,0-3.49.25-4.79-.72"/><path class="cls-65" d="M152.39,113.68a2.17,2.17,0,0,0,.58,1.92,1.26,1.26,0,0,1,.42,1c0,.68.36,1.62,2.14,1.59h0l0-.48a.44.44,0,0,0,0-.16,7.81,7.81,0,0,1-.07-2.56c-1.34,1-2.08.43-2.47-.24-.2-.34-.4-.69-.61-1"/><path class="cls-66" d="M165.61,66.48c-17.17,7.3-15.19,25.21-14.47,29.43.58-8.93,3.54-11.86,8.81-18.22a40.35,40.35,0,0,0,6.24-10.27.91.91,0,0,1,.77-.56l0-.67a3.77,3.77,0,0,0-1.32.29"/><path class="cls-67" d="M151.14,95.91a11.8,11.8,0,0,1,.17,1.47,18.83,18.83,0,0,1,.91-6.29,22.42,22.42,0,0,1,5.13-8.67,91.93,91.93,0,0,0,10-13.28s5.47,8.83,10.91,12,7.19,11.28,7.26,11.56c0-.28,0-.56,0-.84,0-.45-.34-5.32-6.23-10.7A27,27,0,0,1,177,78.72c-2.3-2.7-7.15-8.45-9.16-11.46a.93.93,0,0,0-.83-.4.91.91,0,0,0-.77.56A40.35,40.35,0,0,1,160,77.69c-5.27,6.36-8.23,9.29-8.81,18.22"/><path class="cls-64" d="M160.3,197.89l-1.67.35a4.73,4.73,0,0,1,1.53,1.52h0c1.21-.37,2.39-.67,3.51-.91a10,10,0,0,0-1.62-1.34l-1.75.38"/><path class="cls-60" d="M160.48,196.55c-.08.45-.14.9-.18,1.34l1.75-.38a17.28,17.28,0,0,0-1.57-1"/><path class="cls-60" d="M169.14,192.05a16.74,16.74,0,0,0,1.87-3.38l-2.13,0c.78-.07,1.51-.14,2.21-.22a15.91,15.91,0,0,0,.94-3.83,20.32,20.32,0,0,1,2.47-7.12c-2.3,1.12-5.06,2.9-5.8,5.19a12.22,12.22,0,0,1-1.32,2.92l-.52.8a7.29,7.29,0,0,1,.7-5.25l-.66-.39c-3.08,5.19-5.59,10.68-6.42,15.74a17.28,17.28,0,0,1,1.57,1l1.5-.33a18.49,18.49,0,0,0,5.59-5.13"/><path class="cls-68" d="M158.59,127.26c.11.3.2.61.28.92a.61.61,0,0,0,.18.31l.89.79a.62.62,0,0,1,.15.21l.74,1.75a.64.64,0,0,0,.26.28l1.41.77a.52.52,0,0,1,.18.15,9.57,9.57,0,0,0,3.66,2.57h0l2.25.66a.58.58,0,0,0,.32,0l1.64-.46a3.41,3.41,0,0,1,.54-.1,2.77,2.77,0,0,1,1,.1,2.1,2.1,0,0,0,2-.5l.53-.51A.58.58,0,0,1,175,134h.09a1.46,1.46,0,0,0,.9-.24l1.31-.89a.6.6,0,0,0,.26-.45l0-.62a.6.6,0,0,1,.54-.55h.08a.59.59,0,0,0,.61-.43l.28-1a.56.56,0,0,1,.32-.38l.74-.33a.63.63,0,0,0,.32-.34l.33-1,.09-.26a.83.83,0,0,1,.07-.13l.83-1.25a.63.63,0,0,0,.1-.29l.07-1.21a.67.67,0,0,1,.07-.24l.63-1.24a.54.54,0,0,0,.06-.35l-.09-.63s0-.1,0-.15a2.21,2.21,0,0,1,.55-1.64,1.11,1.11,0,0,0,.29-.7l.11-1.86a.65.65,0,0,1,0-.2l.61-1.44a.56.56,0,0,0,0-.36l-.44-1.94a.61.61,0,0,1-.51-.12,1,1,0,0,1-.28.64l-.68.7a1,1,0,0,0-.28.65l0,.3a1,1,0,0,1-.62.88h0a1,1,0,0,0-.62.87,1,1,0,0,1-.44.77l-.4.28-.13.11-.87.84a.94.94,0,0,1-.39.22l-1.47.42a.47.47,0,0,1-.4-.06l-.81-.5-1.17-.68a.57.57,0,0,0-.22-.07l-.71,0h-1.1a.85.85,0,0,1-.57-.2.91.91,0,0,0-.84-.15l-.53.16a.81.81,0,0,1-.51,0l-.91-.25a.73.73,0,0,0-.25,0l-1,0a1,1,0,0,1-.3,0l-.85-.29a.93.93,0,0,0-.73.07l-1,.56,0,0-1.38.67a.5.5,0,0,0-.22.21l-.44.82a.5.5,0,0,1-.64.22l-.5-.22a.4.4,0,0,1-.15-.1l-.89-.86a.52.52,0,0,0-.38-.14.62.62,0,0,0-.24.08.5.5,0,0,1-.71-.17l-.23-.41a.49.49,0,0,0-.32-.24l-.4-.1a.51.51,0,0,1-.38-.52l0-.17V118a.74.74,0,0,0-.36-.56.65.65,0,0,1-.26-.26l-.57-1a.08.08,0,0,1,0,0l-.49-1a.8.8,0,0,1-.08-.37l.06-.94a.68.68,0,0,0-.06-.34l-.35-.83a7.06,7.06,0,0,0-.59,1.66c0,.2-.07.39-.1.58a7.81,7.81,0,0,0,.07,2.56.44.44,0,0,1,0,.16l0,.48-.1,1.63a2.16,2.16,0,0,0,0,.36,2.62,2.62,0,0,0,.76,1.64.64.64,0,0,1,.15.25l.81,2.75a.66.66,0,0,0,.09.19l.33.43a7.09,7.09,0,0,1,1,1.87m9.16-1.24c-1.46,1-2.34-.48-2.43-2a2.2,2.2,0,0,1,.47-1.47,2.25,2.25,0,0,1,.78-.65c.18-.1.39-.2.6-.3a10.19,10.19,0,0,1,3-1,10,10,0,0,1,2.89.53,2.29,2.29,0,0,1,.63.3s0,0,0,0a2.52,2.52,0,0,1,.81.88,2.25,2.25,0,0,1,.29.93,3.43,3.43,0,0,0,.33,1.24c.46.81-2,2.16-3.06,1.29a2.54,2.54,0,0,0-1.48-.59,4.43,4.43,0,0,0-2.82.85"/><path class="cls-60" d="M159.91,168.15c-.73.81-1.44,1.56-2.13,2.21a19.26,19.26,0,0,0,3.13.09l2.22,0a20.08,20.08,0,0,1,.83-2.32,31.91,31.91,0,0,1-4.05.07"/><path class="cls-59" d="M155.76,110.06a.76.76,0,0,0,.17.84.72.72,0,0,1,.22.48.33.33,0,0,1,0,.1l-.05.88a.65.65,0,0,0,.06.34l.35.83a.68.68,0,0,1,.06.34l-.06.94a.8.8,0,0,0,.08.37l.49,1a.08.08,0,0,0,0,0l.57,1a.65.65,0,0,0,.26.26.74.74,0,0,1,.36.56v.1l0,.17a.51.51,0,0,0,.38.52l.4.1a.49.49,0,0,1,.32.24l.23.41a.5.5,0,0,0,.71.17.62.62,0,0,1,.24-.08.52.52,0,0,1,.38.14l.89.86a.4.4,0,0,0,.15.1l.5.22a.5.5,0,0,0,.64-.22l.44-.82a.5.5,0,0,1,.22-.21l1.38-.67,0,0,1-.55a.93.93,0,0,1,.73-.07l.85.29a1,1,0,0,0,.3,0l1,0a.73.73,0,0,1,.25,0l.91.25a.81.81,0,0,0,.51,0l.53-.16a.88.88,0,0,1,.84.15.85.85,0,0,0,.57.2h1.1l.71,0a.57.57,0,0,1,.22.07l1.17.68.81.5a.47.47,0,0,0,.4.06l1.47-.42a.94.94,0,0,0,.39-.22l.87-.84.13-.11.4-.28a1,1,0,0,0,.44-.77,1,1,0,0,1,.62-.87h0a1,1,0,0,0,.62-.88l0-.3a1,1,0,0,1,.28-.65l.68-.7a1,1,0,0,0,.28-.65l.1-1.59a1.06,1.06,0,0,1,.09-.35l.13-.26a.94.94,0,0,0-.25-1.14.89.89,0,0,1-.34-.65.93.93,0,0,1,.16-.6l.5-.72a.94.94,0,0,0-.11-1.2l-.92-.91-.06-.07a9.7,9.7,0,0,1-1.49-2.32,8.82,8.82,0,0,1-.95-.24s-7.17-1-10.72-.43c0,0-7-.32-11,1.27a8.24,8.24,0,0,1-1.13.37L156,106.85a.77.77,0,0,0-.11.69l.34,1a.77.77,0,0,1,0,.54Zm1.93-1.81c-1-3.94,9.18-4.66,9.73-2.91s-1.66,1.11-1.66,1.11c-6.5-1.28-8.07,1.8-8.07,1.8m16-1.7s-2.27.37-1.51-1.3,10.78.28,9.3,4.07c0,0-1.18-3.25-7.79-2.77"/><path class="cls-64" d="M163.55,197.18l-1.5.33a10,10,0,0,1,1.62,1.34,38.74,38.74,0,0,1,9.94-.83v-.29a4.8,4.8,0,0,1-3.27-2.11c-2.17.53-4.49,1-6.8,1.56"/><path class="cls-68" d="M167.42,105.34c-.55-1.75-10.74-1-9.73,2.91,0,0,1.57-3.08,8.07-1.8,0,0,2.21.65,1.66-1.11"/><path class="cls-61" d="M163.55,197.18c2.31-.51,4.63-1,6.8-1.56a7.33,7.33,0,0,1-1.21-3.57,18.49,18.49,0,0,1-5.59,5.13"/><path class="cls-60" d="M159.91,168.15a31.91,31.91,0,0,0,4.05-.07c2.57-6.14,8-11.9,12.3-15.78-.09-1-.18-1.65-.18-1.65s.15.56.38,1.47a73.65,73.65,0,0,1,5.9-4.81c.35-.49.68-.95.95-1.37a7.89,7.89,0,0,0,.6-1.09c.47-1.18,1.75-2.3,2.27-3.48A29.55,29.55,0,0,0,171,153.19a134.75,134.75,0,0,1-11,15"/><path class="cls-61" d="M164,168.08a22.14,22.14,0,0,0-.83,2.32,51.25,51.25,0,0,0,12.08-1.53c1.15-1.48,2.27-2.84,3.29-4,.05-4-1.34-10-2-12.71l-.2.18c.4,4.12.93,14.61-3.83,14.84-2.51.12-5.35.7-8.47.94"/><path class="cls-67" d="M157.3,88.76s2.61-.45,3.4-1.81a5.33,5.33,0,0,1,2.14-2c2.94-1.28,4.53,1.87,4.53,1.87a4.63,4.63,0,0,0-2.28-3.39,2.58,2.58,0,0,0-2.25-.21c-3.83,1.41-5.54,5.52-5.54,5.52"/><path class="cls-69" d="M160.7,87c-.79,1.36-3.4,1.81-3.4,1.81,2.5.58,4.79-.74,6-1.42s4.11-.5,4.11-.5-1.59-3.15-4.53-1.87a5.33,5.33,0,0,0-2.14,2"/><path class="cls-60" d="M167.56,181.2a7.29,7.29,0,0,0-.7,5.25l.52-.8a12.22,12.22,0,0,0,1.32-2.92c.74-2.29,3.5-4.07,5.8-5.19.17-.32.35-.63.53-.94-2.48.58-5.88,1.85-7.47,4.6"/><path class="cls-60" d="M166.9,180.81l.66.39c1.59-2.75,5-4,7.47-4.6a52.55,52.55,0,0,1,7.27-9.48,9.08,9.08,0,0,1-2.32-4c-.46.53-1,1.11-1.48,1.73a7.88,7.88,0,0,1-.43,2.8,8.09,8.09,0,0,1-2.86,1.24,113.3,113.3,0,0,0-8.31,11.94"/><path class="cls-61" d="M185.13,194.59a31.12,31.12,0,0,1,6.22,2.57l0-.07c.54-2.15-.43-5.59-.43-5.59l.21-.17L190,189.84c-2,0-6.74-.31-7.7-2.9h0a4.2,4.2,0,0,1-3.38,1.47c-2.89.15-5.91.23-7.86.27a16.74,16.74,0,0,1-1.87,3.38,7.41,7.41,0,0,0,1.21,3.58c1.91-.46,3.71-.92,5.29-1.35a17.65,17.65,0,0,1,9.49.31"/><path class="cls-59" d="M165.32,124c.09,1.5,1,3,2.43,2a4.43,4.43,0,0,1,2.82-.85,2.54,2.54,0,0,1,1.48.59c1.1.87,3.52-.48,3.06-1.29a3.43,3.43,0,0,1-.33-1.24,2.25,2.25,0,0,0-.29-.93,4.64,4.64,0,0,1-3.61,1.38,4.28,4.28,0,0,0-1.13,0,5.44,5.44,0,0,1-4-1.15,2.2,2.2,0,0,0-.47,1.47"/><path class="cls-60" d="M171.09,188.49c-.7.08-1.43.15-2.21.22l2.13,0Z"/><path class="cls-61" d="M171.09,188.49l-.08.18c2,0,5-.12,7.86-.27a4.2,4.2,0,0,0,3.38-1.47,3.69,3.69,0,0,0,.55-2.73s-1,3-11.71,4.29"/><path class="cls-70" d="M166.57,121.92a2.25,2.25,0,0,0-.78.65,5.44,5.44,0,0,0,4,1.15,4.28,4.28,0,0,1,1.13,0,4.64,4.64,0,0,0,3.61-1.38,2.52,2.52,0,0,0-.81-.88h0a16.62,16.62,0,0,0-6.5.2c-.21.1-.42.2-.6.3"/><path class="cls-61" d="M180.61,172.11a5.21,5.21,0,0,0,1.33,2.91c-.26-.69-.5-1.4-.7-2.14a7.16,7.16,0,0,1-.2-1.2,6.73,6.73,0,0,1,1.3-4.52l0,0A52.55,52.55,0,0,0,175,176.6a18.47,18.47,0,0,1,2.89-.46,28.11,28.11,0,0,0-3.42,1.39,20.43,20.43,0,0,0-2.47,7.13,15.91,15.91,0,0,1-.94,3.83c10.72-1.29,11.71-4.29,11.71-4.29a3.69,3.69,0,0,1-.55,2.73h0c.09.11,1.47,1.92,7.59,2.76a39.78,39.78,0,0,1-5.84-9.84l-.62-1.41c-1.63-.51-2.53-1.4-2.6-4.12Z"/><path class="cls-61" d="M164,168.08c3.12-.24,6-.82,8.47-.94,4.76-.23,4.23-10.72,3.83-14.84-4.3,3.88-9.73,9.63-12.3,15.78"/><path class="cls-64" d="M185.13,194.59a17.65,17.65,0,0,0-9.49-.31c-1.58.43-3.38.89-5.29,1.35a4.81,4.81,0,0,0,3.27,2.1V198h0a18.31,18.31,0,0,1,2.44.25h0a41.72,41.72,0,0,1,13.19.61h0a30.48,30.48,0,0,1,8.11,2.32.05.05,0,0,0,0,0,38.79,38.79,0,0,0-6.12-4.06,31.12,31.12,0,0,0-6.22-2.57"/><path class="cls-64" d="M173.65,198l2.44.25a18.31,18.31,0,0,0-2.44-.25"/><path class="cls-59" d="M191.73,292.74s-2.06,6.24,2.51,6l.25.5a5.75,5.75,0,0,1,.68,3.09c0,.78.32,1.55,2.12,1.25.57.47,1.72.43,3.54-.93a1.84,1.84,0,0,0,2.47,1,2.44,2.44,0,0,0,1.26-1.83l.21.05c1.73,1.65,3.17.85,4-.31a1.9,1.9,0,0,0,0-1.78l.26-.1c.2.66.88,1.13,2.36,1.5a2.18,2.18,0,0,0,2.48-.72,2.59,2.59,0,0,0-.4-3.43l-.29-.26a5.18,5.18,0,0,0-3-1.31l-1.66-.16a7.94,7.94,0,0,1-2.13-4.44,16.17,16.17,0,0,1-2.46-5.85c-2-6.06,2.62-26.27,2.62-26.27,2.55-3.75,3.82-9.47,4.43-14.85.14-1.31.26-2.59.33-3.83.17-2.61.21-5,.2-6.8a14.82,14.82,0,0,1,1.4-6.49,20.49,20.49,0,0,0,1.78-5.37h0a22.52,22.52,0,0,0,.23-6.11c-.09-1-.23-2-.43-3.08-1-5-6.31-6.88-11.07-7.51a37.45,37.45,0,0,0-4.88-.3c-1.07-.58-10.22-5.21-17.15,3.23,0,0-1.11,1.69-2.47,4v0c-.11.51-3.82,17-1.62,28a20.76,20.76,0,0,0,11.32-2.94c-2.71,7.19-4.62,13.52-1.27,26.51,4.19,16.25,4.73,24.85,4.73,24.85s-1.48,2.47-.34,4.7"/><path class="cls-71" d="M167.17,121.62a16.62,16.62,0,0,1,6.5-.2,2.29,2.29,0,0,0-.63-.3,10,10,0,0,0-2.89-.53,10.19,10.19,0,0,0-3,1"/><path class="cls-64" d="M176.09,198.27h0"/><path class="cls-61" d="M175,176.6c-.18.31-.36.62-.53.94a27.32,27.32,0,0,1,3.42-1.4,20,20,0,0,0-2.89.46"/><path class="cls-64" d="M189.31,198.88a41.72,41.72,0,0,0-13.19-.61,66.35,66.35,0,0,1,13.19.61"/><path class="cls-66" d="M166.93,66.19l0,.67a.93.93,0,0,1,.83.4c2,3,6.86,8.76,9.16,11.46a27,27,0,0,0,2.36,2.42c5.89,5.37,6.22,10.25,6.23,10.7.87-17.92-12.79-24-17.25-25.47a3.55,3.55,0,0,0-1.36-.18"/><path class="cls-68" d="M172.19,105.25c-.76,1.67,1.51,1.3,1.51,1.3,6.61-.48,7.79,2.77,7.79,2.77,1.48-3.79-8.54-5.74-9.3-4.07"/><path class="cls-60" d="M176.08,150.65s.09.63.18,1.65l.2-.19c-.23-.9-.38-1.46-.38-1.46"/><path class="cls-69" d="M169.29,87c.9-.19,4.37-.9,5.68.07s4.79.72,4.79.72-2.6-.44-3.61-1.59-4.65-3.25-6.86.8"/><path class="cls-60" d="M175.21,168.87a8.09,8.09,0,0,0,2.86-1.24,7.88,7.88,0,0,0,.43-2.8c-1,1.2-2.14,2.56-3.29,4"/><path class="cls-67" d="M169.29,87c2.21-4,5.85-1.94,6.86-.8s3.61,1.59,3.61,1.59c.12-.47-1.14-2-5-4.44S169.29,87,169.29,87"/><path class="cls-61" d="M178.64,154.14a23.34,23.34,0,0,0,2.3,7.87c1.76-2,2.89-3.14,2.89-3.14l-1.78-2.57a8.22,8.22,0,0,1,.32-9,73.57,73.57,0,0,0-5.91,4.8c.7,2.74,2.09,8.71,2,12.72.52-.62,1-1.2,1.48-1.73a31,31,0,0,1-.91-3.45,23.8,23.8,0,0,1-.43-5.51"/><path class="cls-61" d="M178.64,154.14a23.8,23.8,0,0,0,.43,5.51,31,31,0,0,0,.91,3.45c.33-.39.66-.75,1-1.09a23.34,23.34,0,0,1-2.3-7.87"/><path class="cls-61" d="M180.78,174.33c.07,2.72,1,3.61,2.6,4.12-.48-1.1-1-2.23-1.44-3.43a5.21,5.21,0,0,1-1.33-2.91Z"/><path class="cls-72" d="M181,171.68a6.27,6.27,0,0,0,.2,1.2c.2.74.44,1.45.7,2.14a9.11,9.11,0,0,0,4.48,2.66c-3-6-1.85-9.5-.5-6.75a47,47,0,0,0,5.6,7.71c1.7,2,3.1,3.54,3.1,3.54l-.27-3.43-.31-4a3.63,3.63,0,0,1-1.16-.43,6.74,6.74,0,0,1-3.41-4.15c-2-.63-4.06-1.33-5-1.74a7.61,7.61,0,0,1-2.12-1.24,6.73,6.73,0,0,0-1.3,4.52"/><path class="cls-60" d="M180.94,162c-.3.34-.63.7-1,1.09a9.08,9.08,0,0,0,2.32,4l.46-.47s0,0,0,0a7.62,7.62,0,0,1,.88-.82,15.43,15.43,0,0,1-2.71-3.8"/><path class="cls-72" d="M181.94,175c.45,1.2,1,2.33,1.44,3.43,1,.32,2.35.49,3.93.88q-.5-.86-.9-1.65a9.12,9.12,0,0,1-4.47-2.66"/><path class="cls-61" d="M189.84,189.7c-6.12-.84-7.5-2.65-7.59-2.76,1,2.58,5.71,2.88,7.7,2.9l-.09-.11,0,0"/><path class="cls-61" d="M182.3,167.12l0,0c.14-.18.27-.35.42-.51l-.46.47"/><path class="cls-72" d="M182.77,166.63s0,0,0,0-.28.33-.42.51a7.61,7.61,0,0,0,2.12,1.24c.95.41,3,1.11,5,1.74-.08-.31-.15-.61-.2-.93-.5-.23-1-.45-1.52-.65a12,12,0,0,1-4.1-2.75,7.62,7.62,0,0,0-.88.82"/><path class="cls-72" d="M182.37,147.31a8.22,8.22,0,0,0-.33,9l1.79,2.57,1.55,2.23a2.9,2.9,0,0,1-.92,4.16,6.76,6.76,0,0,0-.81.55,12,12,0,0,0,4.1,2.75c.51.2,1,.42,1.52.65-.55-3.4.76-7.68,1-12.29.35-7.38-2.32-19.54-2.32-19.54a3.66,3.66,0,0,1-.82-1.15,12.09,12.09,0,0,1-4.76-4.4c-.32,0-1.58,0-1.75,1.8-.18,2.06.73,1.83.73,1.83a11.14,11.14,0,0,1,4.25,3.08,4,4,0,0,1,.77,1.47,2.17,2.17,0,0,1,0,.25,2.4,2.4,0,0,1-.22,1.11c-.52,1.18-1.8,2.3-2.27,3.48a7,7,0,0,1-.6,1.09c-.27.42-.6.88-.94,1.37"/><path class="cls-72" d="M183.38,178.45l.62,1.41a39.78,39.78,0,0,0,5.84,9.84l1,.12s-.33,0-.88,0l1.22,1.49,1.29,1.57.21-.4.66-1.26a11.3,11.3,0,0,0,.81-1.9,1.76,1.76,0,0,1-.95-1q-.54-1.06-1.17-2.1a42.69,42.69,0,0,0-2.48-3.61,35.1,35.1,0,0,1-2.23-3.32c-1.58-.39-2.9-.56-3.93-.88"/><path class="cls-60" d="M180.94,162a15.43,15.43,0,0,0,2.71,3.8,6.76,6.76,0,0,1,.81-.55,2.9,2.9,0,0,0,.92-4.16l-1.55-2.23S182.7,160,180.94,162"/><path class="cls-73" d="M185.92,170.93c-1.35-2.75-2.51.73.49,6.75a19.15,19.15,0,0,0,3.54.66,1.32,1.32,0,0,1,1.16.51l.41-.21a47,47,0,0,1-5.6-7.71"/><path class="cls-72" d="M182.44,131.84h-.08a12.09,12.09,0,0,0,4.76,4.4,1.49,1.49,0,0,1,0-1.35,1.39,1.39,0,0,1,.87-.62c-2.19-.76-3.22-2.19-5.53-2.42"/><path class="cls-73" d="M186.41,177.68q.41.8.9,1.65l.77.2c4.15,1.15,4.15,5.64,4.11,6.49.33-4.53-.38-6.4-1.08-7.17a1.32,1.32,0,0,0-1.16-.51,20,20,0,0,1-3.54-.66"/><path class="cls-73" d="M188.08,179.53l-.77-.2a35.1,35.1,0,0,0,2.23,3.32c.88,1.17,1.72,2.37,2.48,3.61l.17-.1V186c0-.85,0-5.34-4.11-6.49"/><path class="cls-65" d="M185.78,98.48s.73,6.49-4.64,5.53a9.7,9.7,0,0,0,1.49,2.32l.06.07.92.91a.94.94,0,0,1,.11,1.2l-.5.72a.93.93,0,0,0-.16.6.89.89,0,0,0,.34.65.94.94,0,0,1,.25,1.14l-.13.26a1.06,1.06,0,0,0-.09.35l-.1,1.6a.61.61,0,0,0,.51.12h0c.39-.1.66-.63.71-.75l0,0,.73-1.18,0-.06.46-1,.34-.78a.57.57,0,0,0,0-.29l-.16-1.4v0a.52.52,0,0,1,.32-.54.56.56,0,0,0,.27-.74,1.58,1.58,0,0,1,.08-1.19,6.16,6.16,0,0,0,.16-2.53v0l-.22-1.09a.67.67,0,0,1,0-.2l.41-2.31a.53.53,0,0,0-.11-.44l-.41-.5a.53.53,0,0,1-.12-.38l0-.35a.53.53,0,0,0-.17-.42l-.84-.8a4.83,4.83,0,0,0,.37,1.59"/><path class="cls-72" d="M189.84,189.7l0,0,.09.11c.55,0,.88,0,.88,0l-1-.12"/><path class="cls-59" d="M183.84,114c1.8.27,2.76-2.31,4.66-6.89s-1.65-3.64-1.65-3.64a6.16,6.16,0,0,1-.16,2.53,1.58,1.58,0,0,0-.08,1.19.56.56,0,0,1-.27.74.52.52,0,0,0-.32.54v0l.16,1.41a.55.55,0,0,1,0,.28l-.34.78-.46,1,0,.06-.73,1.18,0,0c-.05.12-.32.65-.71.75"/><path class="cls-61" d="M192.46,192.9l-1.29-1.57-.21.17s1,3.44.43,5.59l0,.07a38.79,38.79,0,0,1,6.12,4.06l-.59-1-.13-.22a14,14,0,0,1-1.4-2.92,5.51,5.51,0,0,0-.54-1.12l-.39-.63Z"/><path class="cls-73" d="M190.26,156.92c-.23,4.61-1.54,8.89-1,12.29l.4.2,4.12,2.06h0l.26,0a9.58,9.58,0,0,1,.41-1.76l.52-1.58a15.65,15.65,0,0,0,.69-3.16,84,84,0,0,0-2.88-12,62.54,62.54,0,0,1-2.74-14.4,5.17,5.17,0,0,1-1-.46,5.31,5.31,0,0,1-1.08-.8s2.67,12.16,2.32,19.54"/><path class="cls-73" d="M189.67,169.41l-.4-.2c0,.32.12.62.2.93,2.17.69,4.17,1.29,4.32,1.33Z"/><path class="cls-74" d="M192.85,138.16c.38-.67,0-1.7-.88-2.53h0a1.84,1.84,0,0,1,0,.33,1,1,0,0,1-.87.67h-.19a2,2,0,0,1-1.41-.86l-.07-.1a1,1,0,0,1,.22-1.35,3.23,3.23,0,0,0-1.65-.06,1.39,1.39,0,0,0-.87.62,1.49,1.49,0,0,0,0,1.35,8,8,0,0,0,.91.42,15.61,15.61,0,0,1,3.74,2.18l.25-.06a1.5,1.5,0,0,0,.61-.33,1.13,1.13,0,0,0,.22-.27h0"/><path class="cls-73" d="M193.79,171.47c-.15,0-2.15-.64-4.32-1.33a6.74,6.74,0,0,0,3.41,4.15,3.63,3.63,0,0,0,1.16.43l-.07-1a9.78,9.78,0,0,1,.08-2.23l-.26,0Z"/><path class="cls-59" d="M189.32,198.88a27.55,27.55,0,0,1,3,.8,22.89,22.89,0,0,1,5.1,1.52,30.48,30.48,0,0,0-8.11-2.32"/><path class="cls-74" d="M187.12,136.23a3.51,3.51,0,0,0,.82,1.15,5.31,5.31,0,0,0,1.08.8,5.17,5.17,0,0,0,1,.46,3.67,3.67,0,0,0,1.72.19,15.61,15.61,0,0,0-3.74-2.18,8,8,0,0,1-.91-.42"/><path class="cls-73" d="M191.52,178.64l-.41.21c.7.77,1.41,2.64,1.08,7.17v.14l-.17.1q.63,1,1.17,2.1a1.81,1.81,0,0,0,.95,1,13,13,0,0,0,.64-5.1l-.16-2.07s-1.4-1.52-3.1-3.54"/><polygon class="cls-72" points="192.46 192.91 194.42 195.31 192.67 192.5 192.46 192.91"/><path class="cls-72" d="M199.8,185.24c-.05-.23-.11-.46-.18-.68-.26-.79-.53-1.71-.78-2.73l-4.49-3.08.27,3.43s3.11,3.84.91,6.45c-.54.65-1,.82-1.39.71a12.19,12.19,0,0,1-.81,1.9l-.66,1.26,1.75,2.81,3.66-3.92a6.87,6.87,0,0,0,1.72-6.15"/><path class="cls-75" d="M189.62,134.32a1,1,0,0,0-.22,1.35l.07.1a2,2,0,0,0,1.41.86h.19a1,1,0,0,0,.87-.67,1.82,1.82,0,0,0,0-.32,1.33,1.33,0,0,0-.58-1.07l-.45-.29a1.12,1.12,0,0,0-1.29,0l0,0"/><path class="cls-72" d="M190.05,138.64a63.17,63.17,0,0,0,2.74,14.4,84,84,0,0,1,2.88,12,15.92,15.92,0,0,0,.05-2.93l-.15-1.84a7.67,7.67,0,0,1,1.34-5,6.66,6.66,0,0,0,.92-1.88,16.67,16.67,0,0,1-.51-2.17,23.72,23.72,0,0,0-1.42-4.83,40.58,40.58,0,0,0-3.49-7l-.64-.51a3.67,3.67,0,0,1-1.72-.19"/><path class="cls-61" d="M194.42,195.31l.39.63a5.51,5.51,0,0,1,.54,1.12,14,14,0,0,0,1.4,2.92l.13.22-.52-.93a8.41,8.41,0,0,1-.74-1.65c-.29-.86-.77-2.12-1.2-2.31"/><path class="cls-73" d="M194.14,189.34c.38.11.85-.06,1.39-.71,2.2-2.61-.91-6.45-.91-6.45l.16,2.07a12.9,12.9,0,0,1-.64,5.09"/><path class="cls-72" d="M194,174.72l.31,4,4.49,3.08a42.55,42.55,0,0,1-1.14-12.66,7.74,7.74,0,0,0-.82-1l-.81.07c.32,3.85-.1,6.71-2,6.46"/><path class="cls-73" d="M194,173.75l.07,1c1.93.25,2.35-2.61,2-6.46-.09-1-.23-2.12-.4-3.24a15.65,15.65,0,0,1-.69,3.16l-.52,1.58a9.58,9.58,0,0,0-.41,1.76,9.78,9.78,0,0,0-.08,2.23"/><path class="cls-72" d="M192,138.77l-.25.06.64.51-.39-.57Z"/><path class="cls-73" d="M192,138.77h0l.39.57a23.06,23.06,0,0,1,2.5,2.47c-1.23-2-2.28-3.37-2.28-3.37a1.5,1.5,0,0,1-.61.33"/><path class="cls-73" d="M197.83,153.33c.3.85.63,1,.9-1,.4-3-1.92-7.44-3.82-10.48a23.06,23.06,0,0,0-2.5-2.47,40.58,40.58,0,0,1,3.49,7,23.72,23.72,0,0,1,1.42,4.83,16.67,16.67,0,0,0,.51,2.17"/><path class="cls-72" d="M192.85,138.17a1.13,1.13,0,0,1-.22.27s1.05,1.39,2.28,3.37a33,33,0,0,1,4.14,6,19,19,0,0,0-6.2-9.64h0"/><path class="cls-72" d="M199.84,155.63a22.88,22.88,0,0,0-.79-7.83,33,33,0,0,0-4.14-6c1.9,3,4.22,7.49,3.82,10.48-.27,2-.6,1.89-.9,1a6.53,6.53,0,0,1-.92,1.88,7.61,7.61,0,0,0-1.33,5l.14,1.84a15.92,15.92,0,0,1-.05,2.93c.17,1.12.31,2.22.4,3.24l.81-.07a7.74,7.74,0,0,1,.82,1,45,45,0,0,1,.82-6.2c.14-.64.29-1.3.45-2a29.54,29.54,0,0,0,.87-5.38"/><path class="cls-64" d="M197.7,169.17a42.55,42.55,0,0,0,1.14,12.66l1.86,1.28a13.12,13.12,0,0,0,.68-3.56l-1-.06s0-1.12-.2-2.7a17.44,17.44,0,0,0-2.5-7.62"/><path class="cls-64" d="M198.84,181.83c.25,1,.52,1.94.78,2.73.07.22.13.45.18.68l.31-.66a13.26,13.26,0,0,0,.59-1.47l-1.86-1.28"/><path class="cls-64" d="M198.52,163a43.53,43.53,0,0,0-.82,6.2,17.44,17.44,0,0,1,2.5,7.62l1-.12a20.81,20.81,0,0,1,1.65-11.16,9.82,9.82,0,0,0-4.36-2.54"/><path class="cls-64" d="M199,161c-.16.66-.31,1.32-.45,2a9.82,9.82,0,0,1,4.36,2.54c.09-.19.18-.38.28-.57a11,11,0,0,0,.71-7.58A23.47,23.47,0,0,0,200.8,156l-1-.32A29.54,29.54,0,0,1,199,161"/><path class="cls-64" d="M200.4,179.49l1,.06a13.51,13.51,0,0,0-.1-2.46c0-.13,0-.28-.05-.42l-1,.12c.19,1.58.2,2.7.2,2.7"/><path class="cls-59" d="M251.61,141.2a3.33,3.33,0,0,0,.39,0c1.81-.55,2.59-1.43,2.81-2.21.28-1-.35-1.83-.86-1.65a6.4,6.4,0,0,1-2.26,0c-1-.11-2-.29-2-.29a3.34,3.34,0,0,0-2.22,1.44,10.63,10.63,0,0,1-1.88,1.79,4.55,4.55,0,0,0-1.46,3,23.37,23.37,0,0,0-2.31,9.24c-8.42,8.7-15.06,10.71-15.06,10.71-12.76,3.35-13.2,5.51-13.21,5.62a12.22,12.22,0,0,0-5.2-8.57,36.64,36.64,0,0,0-4.48-2.87,11,11,0,0,1-.71,7.58c-.1.19-.19.38-.28.57a20.81,20.81,0,0,0-1.65,11.16c0,.14,0,.29.05.42a13.51,13.51,0,0,1,.1,2.46,13.12,13.12,0,0,1-.68,3.56l3.8,2.62a23.65,23.65,0,0,0,4.55,2.38,11.32,11.32,0,0,0,8.24.06c4.22-1.61,10.72-4.47,13.4-7.66,4.08-4.86,14.8-15.42,15-15.58h0l3-13.52a3,3,0,0,1-.5-.59,1.35,1.35,0,0,1,.07-1.55s-3.39-1.77-.13-3.39c0,0-1.83-3.28,3.64-3.71Z"/><path class="cls-64" d="M199.06,147.81h0a22.88,22.88,0,0,1,.79,7.83l1,.32a4.7,4.7,0,0,0,.1-2.18,15.15,15.15,0,0,0-1.75-5.79l-.09-.17"/><path class="cls-64" d="M199.06,147.81l.09.17a15.15,15.15,0,0,1,1.75,5.79,4.7,4.7,0,0,1-.1,2.18,23.47,23.47,0,0,1,3.07,1.41,26.3,26.3,0,0,0-4.81-9.55"/><path class="cls-60" d="M211.31,240.1c-.07,1.24-.18,2.52-.33,3.83,13.5,6,6.44,8.66,14.75,13.37S239,275.1,239,275.1a1.8,1.8,0,0,1,.26-1.06c0-.23.05-.45.08-.68a17.4,17.4,0,0,0-7.91-16.21c-2.56-1.67-5.49-4.08-6.25-6.71-1.41-4.9-13.59-10.32-13.59-10.32Z"/><path class="cls-61" d="M211.31,240.1l.3,0s12.18,5.42,13.59,10.32c.76,2.63,3.69,5,6.25,6.71a17.4,17.4,0,0,1,7.91,16.21c0,.23-.05.45-.08.68a1.8,1.8,0,0,0-.26,1.06c.06.74.69,1.69,3.21,2.19l.59.1c5.24.81,4.66-4.5,3.79-6.85s0-6.9,0-6.9c1.82-5.5-2.22-8.64-2.32-10-.66-8.58-9-13.64-16.28-18.59s-13.15-13.39-13.3-13.6a20.49,20.49,0,0,1-1.78,5.37,14.85,14.85,0,0,0-1.4,6.49c0,1.82,0,4.19-.2,6.8"/><path class="cls-59" d="M214.69,221.43h0c.15.21,6.1,8.72,13.3,13.6s15.62,10,16.28,18.59c.1,1.37,4.14,4.51,2.32,10,0,0-.86,4.55,0,6.9s1.45,7.66-3.79,6.85l-.59-.1,1.57,20.42c4-4.23,8-9.31,8.47-9.64,3-2.06,7.11-10,9.45-14.95a20.81,20.81,0,0,1,3.95-5.66,11.74,11.74,0,0,0,1.82-2.41,13.87,13.87,0,0,0-.59-14.68,31.3,31.3,0,0,0-7.75-8.06,55.27,55.27,0,0,1-8.51-7.52,81.4,81.4,0,0,1-6.08-6.69c-.82-1.13-3.34-2.65-6.44-4.17-1.53-.76-3.21-1.51-4.89-2.22-5.19-2.19-10.46-3.94-11.94-3.89-2.93.1-6.37-2.5-6.37-2.5h0a22.52,22.52,0,0,1-.23,6.11"/><path class="cls-76" d="M245.65,164.93l-12.42,56.78c1.68.71,3.36,1.46,4.89,2.22l14.46-63.55,1.58-6.93a3.71,3.71,0,0,1-1.68-1.51c-2,.56-3.15.13-3.87-.54l-3,13.52Z"/><path class="cls-59" d="M254.16,153.45l-1.58,6.93a70,70,0,0,0,5.65-5.34,3.43,3.43,0,0,0,.68-3.41,4,4,0,0,0-2.33-2.54,10.29,10.29,0,0,0-7.73-.31,1.32,1.32,0,0,0-.67.48,1.35,1.35,0,0,0-.07,1.55,3,3,0,0,0,.5.59c.72.67,1.91,1.1,3.87.55a3.72,3.72,0,0,0,1.68,1.5"/><path class="cls-59" d="M259.1,147.62c-1.38-2.16-5.05-3.58-9.09-2.46a10.58,10.58,0,0,0-2,.72c-3.26,1.61.13,3.38.13,3.38a1.32,1.32,0,0,1,.67-.48,10.29,10.29,0,0,1,7.73.31,4,4,0,0,1,2.33,2.54,3.35,3.35,0,0,0,.19-4"/><path class="cls-59" d="M251.69,142.16c-5.47.43-3.64,3.71-3.64,3.71a11.44,11.44,0,0,1,2-.71c4-1.12,7.71.3,9.09,2.46.51-2,.51-3.34.11-4.2-.88-1.89-3.72-1.56-7.49-1.27h0"/><path class="cls-59" d="M251.61,141.2l.08,1h0c3.77-.29,6.61-.62,7.49,1.27h0c1.93-.7,2.19-1.83,1.89-2.87a3,3,0,0,0-3.54-2.06h0l-2.63.54-.12-.09c-.22.78-1,1.66-2.81,2.21a3.33,3.33,0,0,1-.39,0"/><path class="cls-76" d="M269.33,58.14,251.69,137.3a6.4,6.4,0,0,0,2.26,0c.51-.18,1.14.65.86,1.65l.12.09,2.63-.54,17.9-78.79s-1.92-3.08-6.13-1.56Z"/><path class="cls-77" d="M269.62,56.81l-.29,1.33h0c4.21-1.52,6.13,1.56,6.13,1.56l.31-1.36a.58.58,0,0,0-.15-.53c-.55-.56-2.21-1.87-5.52-1.45a.59.59,0,0,0-.48.45"/></g><rect class="cls-1" x="90.48" y="56.28" width="185.3" height="266.3"/></g></g></svg>