<svg id="Layer_1" data-name="Layer 1" xmlns="http://www.w3.org/2000/svg" xmlns:xlink="http://www.w3.org/1999/xlink" viewBox="0 0 400 404"><defs><style>.cls-1,.cls-50{fill:none;}.cls-2{fill:#fff;}.cls-3{fill:#bc0807;}.cls-4{opacity:0.16;}.cls-5{clip-path:url(#clip-path);}.cls-6{fill:#553711;}.cls-7{clip-path:url(#clip-path-2);}.cls-8{fill:#ccc5bb;}.cls-9{fill:#9fb0b8;}.cls-10{fill:#b5c9d4;}.cls-11{opacity:0.08;}.cls-12{clip-path:url(#clip-path-3);}.cls-13{fill:#000001;}.cls-14{fill:#b0c2cc;}.cls-15{fill:#e9ebef;}.cls-16{fill:#f7fbfc;}.cls-17{fill:#fafbfd;}.cls-18{fill:#f1f5f8;}.cls-19{fill:#dde8ec;}.cls-20{fill:#e7e8eb;}.cls-21{fill:#9fafbc;}.cls-22{fill:#e1e2e6;}.cls-23{fill:#d5dee2;}.cls-24{clip-path:url(#clip-path-4);}.cls-25{fill:#a3b6bd;}.cls-26{fill:#ede4e5;}.cls-27{opacity:0.05;}.cls-28{clip-path:url(#clip-path-6);}.cls-29{fill:#fad3c2;}.cls-30{fill:#928388;}.cls-31{fill:#afa8a9;}.cls-32{fill:#bebfc4;}.cls-33{fill:#ecedef;}.cls-34{fill:#faf3ed;}.cls-35{opacity:0.29;}.cls-36{clip-path:url(#clip-path-7);}.cls-37{fill:#96977d;}.cls-38{clip-path:url(#clip-path-8);}.cls-39{clip-path:url(#clip-path-9);}.cls-40{clip-path:url(#clip-path-10);}.cls-41{fill:#f9f5eb;}.cls-42{fill:#ab96b5;}.cls-43{fill:#f7f1ec;}.cls-44{fill:#fdf5ee;}.cls-45{opacity:0.25;}.cls-46{clip-path:url(#clip-path-11);}.cls-47{clip-path:url(#clip-path-12);}.cls-48{clip-path:url(#clip-path-13);}.cls-49{fill:#292309;}.cls-50{stroke:#87967c;stroke-miterlimit:10;}.cls-51{fill:#efc1b1;}.cls-52{opacity:0.07;}.cls-53{clip-path:url(#clip-path-14);}.cls-54{clip-path:url(#clip-path-15);}.cls-55{clip-path:url(#clip-path-16);}.cls-56{fill:#e9efea;}.cls-57{fill:#ddebe5;}.cls-58{fill:#d6eae2;}.cls-59{fill:#fef2ee;}</style><clipPath id="clip-path"><rect class="cls-1" x="255.56" y="94.65" width="5.82" height="31.27"/></clipPath><clipPath id="clip-path-2"><rect class="cls-1" x="282.73" y="103.49" width="12.32" height="5.24"/></clipPath><clipPath id="clip-path-3"><rect class="cls-1" x="133.5" y="231.16" width="95.76" height="56.72"/></clipPath><clipPath id="clip-path-4"><rect class="cls-1" x="75.38" y="256.94" width="154.48" height="19.32"/></clipPath><clipPath id="clip-path-6"><rect class="cls-1" x="54.85" y="247.02" width="284.56" height="124.56"/></clipPath><clipPath id="clip-path-7"><rect class="cls-1" x="177.28" y="204.22" width="2.42" height="25.05"/></clipPath><clipPath id="clip-path-8"><rect class="cls-1" x="160.26" y="186.02" width="13.56" height="59.36"/></clipPath><clipPath id="clip-path-9"><rect class="cls-1" x="152.53" y="207.95" width="10.11" height="41.69"/></clipPath><clipPath id="clip-path-10"><rect class="cls-1" x="140.55" y="210.5" width="11.55" height="43.25"/></clipPath><clipPath id="clip-path-11"><rect class="cls-1" x="112.96" y="142.49" width="14.24" height="28.25"/></clipPath><clipPath id="clip-path-12"><rect class="cls-1" x="110.56" y="130.89" width="16.45" height="31.55"/></clipPath><clipPath id="clip-path-13"><rect class="cls-1" x="109.15" y="127.08" width="14.39" height="17.93"/></clipPath><clipPath id="clip-path-14"><rect class="cls-1" x="139.58" y="106.43" width="2.94" height="3.68"/></clipPath><clipPath id="clip-path-15"><rect class="cls-1" x="106.91" y="89.31" width="32.72" height="19.42"/></clipPath><clipPath id="clip-path-16"><rect class="cls-1" x="140.54" y="102.23" width="2.52" height="1.08"/></clipPath></defs><title>acarapaskibra</title><path class="cls-2" d="M316,133c.21,2.38.64,5-.74,7a8.67,8.67,0,0,1-3.7,2.56c-2.65,1.22-5.6,2.74-6.41,5.54a29.34,29.34,0,0,0-.44,3.88,3.49,3.49,0,0,1-2.15,3c-2.06-.81-4.37-.85-6.44-1.65a95.62,95.62,0,0,1-15.32-7c-4.79-2.95-9.14-6.85-11.75-11.84a36.66,36.66,0,0,0-2.75-5.09c-2.56-3.4-6.89-4.85-11-6.11q-4.34-1.36-8.67-2.7a13.54,13.54,0,0,0-5.77-.92c-3.52.47-5.64,5.21-9.18,5.21l.12-36.57a3.2,3.2,0,0,0,1.06,0c1.56-.3,3-1.46,4.44-2a14.78,14.78,0,0,1,5.85-.92A23.11,23.11,0,0,1,253,88.53a54.1,54.1,0,0,1,9.81,6.85c1.88,1.64,3.68,3.45,5.94,4.5,3.42,1.61,7.44,1.29,11,2.45a28,28,0,0,1,6,3l21.79,13.32a56.16,56.16,0,0,0,10,5.19A15.79,15.79,0,0,0,316,133"/><path class="cls-3" d="M323.8,102.84c-1.24,2.7-2.5,5.51-2.53,8.49,0,2.6.88,5.34-.19,7.71-.65,1.43-1.92,2.46-2.87,3.71a9,9,0,0,0-.73,1.12,56.16,56.16,0,0,1-10-5.19l-21.79-13.32a28,28,0,0,0-6-3c-3.6-1.16-7.62-.84-11-2.45-2.26-1-4.06-2.86-5.94-4.5A54.1,54.1,0,0,0,253,88.53a23.11,23.11,0,0,0-9.81-3.24,14.78,14.78,0,0,0-5.85.92c-1.48.56-2.88,1.72-4.44,2a3.2,3.2,0,0,1-1.06,0l.08-27.18a63.24,63.24,0,0,1,28.54.6,10.4,10.4,0,0,1,4.78,2.23c3.2,3.08,2.16,9.18,5.81,11.71,1.71,1.19,3.94,1.18,6,1.13l11.25-.27a30.82,30.82,0,0,1,6.79.33,31.33,31.33,0,0,1,6.63,2.4c4.1,1.85,8.25,3.73,11.76,6.55,2.67,2.14,5.09,4.88,8.4,5.73,2.08.54,4.41.29,6.21,1.43-1.49,3.28-2.78,6.63-4.28,9.91"/><g class="cls-4"><g class="cls-5"><path class="cls-6" d="M261.31,125.92a25.59,25.59,0,0,0-1.37-10.27c-1.25-3.52-3.28-6.84-3.62-10.57-.32-3.57,1-7.07,2.23-10.43a29,29,0,0,0-1.79,21.1c.34,1.16.77,2.29,1.05,3.46a15.66,15.66,0,0,1,.38,5.15c.6-.32.88-.09,1.47.26a6.32,6.32,0,0,1,1.65,1.3"/></g></g><g class="cls-4"><g class="cls-7"><path class="cls-6" d="M283.52,106.09a4.79,4.79,0,0,0,4.24,2.64c2.57,0,4.73-2.08,7.29-2.32a5,5,0,0,0-3.42-.91c-1.61.17-3.11,1.12-4.74,1a4.65,4.65,0,0,1-2.84-1.26,3.93,3.93,0,0,1-1.32-1.79,14.72,14.72,0,0,0,.79,2.6"/></g></g><rect class="cls-8" x="228.92" y="59.69" width="3.63" height="215.17"/><path class="cls-9" d="M301.09,290.27a47.42,47.42,0,0,0-13.57-31,6.23,6.23,0,0,0-2-1.53,8.75,8.75,0,0,0-3.85-.1,14.47,14.47,0,0,1-10.69-3.83,73.54,73.54,0,0,0-20.11-12.71,59,59,0,0,1-7.69-4c-3.63-2.25-7.29-5.48-8.39-9.39a5.11,5.11,0,0,0-3.92-3.6c-1-.2,5.43-.12-1.9-2-.79,8.92-25.7,16.13-32.28,22.21-7.19,6.65-18.16,6.45-27.94,5.86-.42,5.67-6.79,8.89-9.16,14.05a21.19,21.19,0,0,0-1.47,7.29c-.48,5.75-.85,11.58-1.32,17.33Z"/><path class="cls-10" d="M239.47,249.85c4.79,6.4,11,11.37,16.84,16.72,6.75,6.2,12.91,13.41,16,22.33H186.94a35.16,35.16,0,0,1,11-28.29c2.43-2.2,5.16-4,7.76-6,8.22-6.23,15.12-14.17,21.63-22.32,4.82-6,4.54-1.4,5.74,4.06a35.45,35.45,0,0,0,6.43,13.47"/><g class="cls-11"><g class="cls-12"><path class="cls-13" d="M225.43,246c-1,7.27-.65,14.85-3.37,21.66a52.87,52.87,0,0,1-4.3,7.93c-2.57,4.13-5.3,8.2-7.87,12.33H133.5c.1-7.67,1-16.27,6.42-21.7a27.89,27.89,0,0,1,5.77-4.12,46.36,46.36,0,0,1,5.22-2.75c11-4.77,23.79-2.07,35.44-4.86,7.46-1.79,14.19-5.76,20.79-9.68l8.11-4.82,5.37-3.19c2.94-1.75,5.75-3.91,8.64-5.59-1.52,4.92-3.15,9.64-3.83,14.79"/></g></g><path class="cls-14" d="M89.38,50.26a9.43,9.43,0,1,0,9.42,9.43,9.43,9.43,0,0,0-9.42-9.43"/><path class="cls-14" d="M82.53,72.44v36.3h5.4V74.87a3,3,0,0,1,3-3,3,3,0,0,1,2.12.88,3,3,0,0,1,.87,2.11v33.87H96V74.19a11.29,11.29,0,0,0-2-6.34,9.46,9.46,0,0,1-10-.36l-.2.36a8.49,8.49,0,0,0-1.35,4.59"/><path class="cls-15" d="M87.93,74.87v33.87h6V74.87a3,3,0,1,0-6,0"/><path class="cls-14" d="M133.76,37.33a9.43,9.43,0,1,0,9.43,9.43,9.43,9.43,0,0,0-9.43-9.43"/><path class="cls-14" d="M126.91,59.52V95.81h5.41V61.94a3,3,0,0,1,5.11-2.12,3,3,0,0,1,.87,2.12V95.81h2.13V61.26a11.29,11.29,0,0,0-2-6.34,9.43,9.43,0,0,1-10-.37h0l-.21.36a8.5,8.5,0,0,0-1.35,4.6"/><path class="cls-16" d="M132.32,61.94V95.81h6V61.94a3,3,0,0,0-.87-2.12,3,3,0,0,0-5.11,2.12"/><path class="cls-10" d="M82.33,240l-8.88,18.92H175.16L169.38,240Zm21.23,8.5h37.83v5.59H103.56Zm13.13-4.25a2.8,2.8,0,0,1,2.8-2.8h12.73a2.8,2.8,0,0,1,0,5.6H119.49a2.8,2.8,0,0,1-2.8-2.8"/><path class="cls-17" d="M82.33,228.4V240h89.75a5.79,5.79,0,1,0,0-11.57H82.33Z"/><path class="cls-18" d="M82.33,220.29v8.11h64.85v-3.86a4.25,4.25,0,0,0-4.25-4.25Z"/><path class="cls-19" d="M82.33,216.81v3.48h60.6a4.25,4.25,0,0,1,4.25,4.25v3.86h21a11.6,11.6,0,0,0-11.57-11.59H82.33Z"/><path class="cls-17" d="M82.33,114.05V216.82h6.76v-96.6A28.27,28.27,0,0,1,117.36,92a21.89,21.89,0,0,1,21.9,21.9v103h17.38a11.47,11.47,0,0,1,2.63.3l.07-.3V124.76a42.07,42.07,0,0,0-42.08-42.07H113.7a31.36,31.36,0,0,0-31.37,31.36"/><path class="cls-20" d="M89.09,120.22v96.59h50.17v-103A21.89,21.89,0,0,0,117.36,92a28.27,28.27,0,0,0-28.27,28.27"/><rect class="cls-21" x="103.56" y="248.47" width="37.83" height="5.6"/><path class="cls-21" d="M117.51,242.24a2.8,2.8,0,0,0,2,4.78h12.73a2.8,2.8,0,0,0,0-5.6H119.49a2.81,2.81,0,0,0-2,.82"/><path class="cls-9" d="M54.54,284.22v3.27a4.16,4.16,0,0,0,.45,1.88,6.75,6.75,0,0,0,1.66,2.11,7.81,7.81,0,0,0,2.46,1.39,17.61,17.61,0,0,0,5.87,1H307c5.83-.63,11.54-5.35,11.54-5.35H62.6a11.5,11.5,0,0,1-4-.68,6.52,6.52,0,0,1-4.05-3.61"/><path class="cls-22" d="M54.54,279.33v4.89a6.52,6.52,0,0,0,4.05,3.61,11.5,11.5,0,0,0,4,.68H318.51c4.77-3.75,5.13-7.2,4-9.89-1.41-3.45-5.26-5.67-9.45-5.67H65a17.79,17.79,0,0,0-5.87,1,8,8,0,0,0-2.46,1.4,6.83,6.83,0,0,0-1.66,2.1,4.2,4.2,0,0,0-.45,1.89m3.89,0v-2.42a1.81,1.81,0,0,1,1.92-1.67H86.67a1.81,1.81,0,0,1,1.92,1.67v2.42A1.81,1.81,0,0,1,86.67,281H60.35a1.81,1.81,0,0,1-1.92-1.67"/><path class="cls-23" d="M58.43,276.91v2.42A1.81,1.81,0,0,0,60.35,281H86.67a1.81,1.81,0,0,0,1.92-1.67v-2.42a1.81,1.81,0,0,0-1.92-1.67H60.35a1.81,1.81,0,0,0-1.92,1.67"/><g class="cls-24"><g class="cls-24"><path class="cls-25" d="M75.38,266.6v4.57a5,5,0,0,0,.54,2.27,5.09,5.09,0,0,0,4.55,2.82H217.1a13.33,13.33,0,0,0,10.61-5.12,11.33,11.33,0,0,0,1.34-2.19,9.17,9.17,0,0,1-2,2,10.61,10.61,0,0,1-6.33,2H81.86a5.15,5.15,0,0,1-4.54-2.72Z"/><path class="cls-26" d="M75.38,264.45v2.15l1.94,3.63A5.15,5.15,0,0,0,81.86,273H220.77a10.61,10.61,0,0,0,6.33-2,9.35,9.35,0,0,0,2-2h0a8.39,8.39,0,0,0-7.75-12H83.53a8.56,8.56,0,0,0-2.89.49,8.76,8.76,0,0,0-2.57,1.42,7.17,7.17,0,0,0-2.69,5.6"/></g></g><g class="cls-27"><g class="cls-28"><path d="M94,261.74,70.14,266.6,55,277.44s-2.16,34.81,10.26,40.67c5.24,2.48,12.33,8.52,18.77,14.68a81,81,0,0,0,43.13,21.36l31.07,5a89.71,89.71,0,0,0,18.74,1l47.19-2.46a107.47,107.47,0,0,1,36.7,4.44l26.63,8a31.79,31.79,0,0,0,37.31-15.6l9.2-17.42a47,47,0,0,0-5.7-52.24l-.63-.74a42.42,42.42,0,0,0-18.48-12.67l-39-13.51a145.65,145.65,0,0,0-40.53-7.86L166.12,247,119,252.9l-17.56,8.84Z"/></g></g><path class="cls-29" d="M155.2,252.91c-.06,1.79,1.09,3.39,2.32,4.71a25.87,25.87,0,0,0,8.06,5.8,4.06,4.06,0,0,1,1.36.85,1.24,1.24,0,0,1,.2,1.49,1.57,1.57,0,0,1-.8.49c-2,.63-4.09,0-6.1-.51a44.62,44.62,0,0,0-9.69-1.27,11.49,11.49,0,0,1-3.21-.32,3.34,3.34,0,0,1-2.3-2.09,4.4,4.4,0,0,1-.09-1.45,26.55,26.55,0,0,1,.67-4.61"/><path class="cls-29" d="M170.9,249.06a11.49,11.49,0,0,0,4.89,6.27c2.22,1.55,4.72,2.65,7,4.08a5.6,5.6,0,0,1,2,1.84,2.17,2.17,0,0,1-.16,2.56c-1,1-2.63.36-3.94-.12a22.25,22.25,0,0,0-6.54-1.15c-3-.17-6.2-.11-8.94-1.42s-4.88-4.56-3.77-7.39"/><path class="cls-30" d="M131.42,130.33c.34,0,.54-.35.71-.68a4.56,4.56,0,0,0,.61-2,4.93,4.93,0,0,0-.47-1.92c-.41-1-2.37-4.41-3.06-2.1a6.84,6.84,0,0,0,.53,3.2,13.05,13.05,0,0,0,1.68,3.46"/><path class="cls-29" d="M116.4,125a4.56,4.56,0,0,0,2.67,3.49c3.57,1.95,8.18,1.36,11.58-.88a15.27,15.27,0,0,1,.43-5.3c-.73-1.62-1.5-3.23-2.3-4.81-1.22-2.4-2.51-4.75-3.8-7.11a16.5,16.5,0,0,0,4,2.15l1.34.56c1,.43,2.06.85,3.11,1.25a28.3,28.3,0,0,0,2.83.92,9.63,9.63,0,0,1,2.33.55h.61c1.54,0,3.37-.66,3.68-2.18.23-1.15-.52-2.4-.68-3.52a1.84,1.84,0,0,1,.27-1.37,1.75,1.75,0,0,1-1.17-.73,1.2,1.2,0,0,0,.78-1.15c0-.13,0-.25,0-.38a3.46,3.46,0,0,1,.1-1.11c.3-.91,1.4-1.35,1.74-2.25a2.24,2.24,0,0,0-.48-2.12,11.62,11.62,0,0,0-1.7-1.51c-1.54-1.27-2.83-1.8-3.46-3.69-.1-.29-.2-.59-.32-.87-1.21-3.1-3.28-6-6.42-7a3,3,0,0,1-1.44,1.23,4.27,4.27,0,0,1-3.5,5.7,1.77,1.77,0,0,0-2-1.49A2.45,2.45,0,0,0,123,94.92a15.19,15.19,0,0,0-.68,2.3,8.49,8.49,0,0,1-1.1,2.41,1.27,1.27,0,0,0-.9-1.11,3.78,3.78,0,0,0-1.5-.12,1.14,1.14,0,0,0-.75.23,1.12,1.12,0,0,0-.23.69,8.49,8.49,0,0,0,.31,3.44,4.47,4.47,0,0,0,2.17,2.61,3.76,3.76,0,0,0,.24,2,1.27,1.27,0,0,0-1.24,1.11,5,5,0,0,0,.14,1.81,9.35,9.35,0,0,1,.06,2.94,10,10,0,0,1-2.18,5.07,21.34,21.34,0,0,1-.72,5.17,6.68,6.68,0,0,0-.18,1.54"/><path class="cls-31" d="M166.12,184.46c-1.71-.52-3.41-1.06-5.11-1.64-4.15-1.4-8.18-3.07-12.22-4.73a16.6,16.6,0,0,1,0,2.82,5.1,5.1,0,0,0,.05,1.91c.77,2.52,5.72.87,7.48.73a23.8,23.8,0,0,1,7.19.44l-1-.61a3.41,3.41,0,0,0,1.81.55c-1.36.21-3.81.06-5.13.39s-1.64.08-2.87.37c-2.53.6-4.58,2.6-7.17,2.95a4.3,4.3,0,0,1-3.5-.65,4.83,4.83,0,0,1-1.12-2,62.23,62.23,0,0,1-2.76-9.67c-.57-.21-1.16-.38-1.73-.58v.83a35.75,35.75,0,0,0,.33,4c.34,2.51.93,5,1.51,7.43a4.32,4.32,0,0,0,1,2.17,3.64,3.64,0,0,0,1.28.7,3.83,3.83,0,0,0,3.09.07,8.37,8.37,0,0,0,1.43-1.24,9.3,9.3,0,0,1,2.78-1.48c4.67-1.81,9.69-3.28,14.63-2.73"/><path class="cls-32" d="M103.17,250.13a26.05,26.05,0,0,1-.47,8.7,1.15,1.15,0,0,1-.38.8,1,1,0,0,1-.54.1c-2.85,0-5.32-2.28-6.33-4.94a16,16,0,0,1-.32-8.43c.42-2.33-1.31-1.93-1.77-.12A27.32,27.32,0,0,0,94.89,264a12.4,12.4,0,0,0,1.84,3c2.13,2.47,5.64,3.38,8.89,3.14a30.69,30.69,0,0,0,9.35-2.77,8,8,0,0,1,2.45-.73,11.72,11.72,0,0,1,2.21.2,13.75,13.75,0,0,0,13.47-6.82,6.91,6.91,0,0,0,8,.77c1.72,2.36,5.27,2,8.12,1.36a9.78,9.78,0,0,0,4.08-1.58c1.53-1.23,2.22-3.31,3.82-4.45a10.88,10.88,0,0,1,4.45-1.37,26.59,26.59,0,0,0,13.6-6.95,5.56,5.56,0,0,0,7.42-4.33,1.8,1.8,0,0,0,.87-1.63,1.19,1.19,0,0,1-.8-1,12.86,12.86,0,0,1,0-1.39,21.29,21.29,0,0,0-.52-2.34,11.22,11.22,0,0,1,.21-3.41c.75-5.2.19-10.27-.45-15.44-.68-5.58-1.49-11.13-2.49-16.65-.47-2.62-1-5.23-1.51-7.84-.42-2.22-1-4.54-2.78-6.09s-4.16-1.85-6.31-2.46l-1.89-.56h0c-4.25.19-8.65,1.14-11.79,4s-4.77,7.63-8.29,10.33a3.27,3.27,0,0,1-2,.83,3.1,3.1,0,0,1-1.86-.89c-2.2-1.94-3-5-4.48-7.54s-3.55-4.55-5.22-6.9-2.92-5.27-2.3-8.09l6.83-2.94a2.93,2.93,0,0,1-.42-1.58,18.31,18.31,0,0,0-.19-2,25.25,25.25,0,0,1-.45-3.24c-.21-5.84,3.17-11.2,2-16.94-.64-3.24-1.62-6.58-2.31-9.87a40.27,40.27,0,0,1-.76-5.12c-.13-1.67.15-3.35-1-4.73-.82-1-2.15-1.44-2.79-2.53-.17-.28-.32-.63-.63-.73a1.17,1.17,0,0,0-.84.2c-4.73,2.45-10.64,1.34-15.24-1.34a4.34,4.34,0,0,0-2-.78c-1.22,0-2.18,1-3.06,1.82a15.49,15.49,0,0,1-6.48,3.68c0,.7.69,1.15,1.26,1.56,4.1,3,1.55,10.07,1.94,14.7.44,5.09,1.85,10.07,1.49,15.17-.33,4.63,1,9.1-1.9,12.95a16.4,16.4,0,0,1-6,4.38,27.58,27.58,0,0,0-12.89,14.68c-2.4,6.1-.59,11.9,1.38,17.8,1.67,5,3.55,10,5.47,14.94,1.81,4.69,2.89,9.63,5,14.25,1.38,3.08,3.22,6,3.8,9.35"/><path class="cls-33" d="M114.47,170.74c2.63.23,5.26.48,7.93.5.71-2.45,1.41-4.9,1.91-7.39s.79-4.78,1.09-7.18l1.38-10.8a9.88,9.88,0,0,0-3,4.86c-1.22,3.66-1.67,7.54-2.86,11.22s-3.18,7-6.45,8.79"/><path class="cls-33" d="M108.09,170.38c1.64,0,3.26.11,4.87.24a14.18,14.18,0,0,0,6.12-8.11c.64-2.33.68-4.78,1.09-7.16a22.9,22.9,0,0,1,7-12.86c.23-2,.42-4,.49-5.94a11.11,11.11,0,0,0-.69-5,45,45,0,0,0-7.79,16.3c-.23.94-.42,1.87-.72,2.79a19.26,19.26,0,0,1-1.4,3.15,35.59,35.59,0,0,1-6.54,8.65,32,32,0,0,1-2.47,7.94"/><path class="cls-33" d="M110,145c.26.64.5,1.28.7,2a23.61,23.61,0,0,1,.69,7.07c0,1.55-.11,3.11-.27,4.67.49-.6,1-1.19,1.51-1.76a23.61,23.61,0,0,0,4.91-9.3c.53-2,.78-4,1.43-6,1.29-3.83,4.06-7,6.87-10.08a2.76,2.76,0,0,1,.88-.71,14.78,14.78,0,0,0-1.66-2.14q-.72-.83-1.47-1.62a21.78,21.78,0,0,0-5.4,5.56c-1.53,2.29-2.61,4.83-4,7.21A16.61,16.61,0,0,1,110,145"/><path class="cls-33" d="M96.35,131.8a22.55,22.55,0,0,1,2.48.42,17.19,17.19,0,0,1,3,1,9.44,9.44,0,0,1,3.32,2.23c.06.06.11.13.17.2a7.59,7.59,0,0,1,.87,1.35c.21.4.4.8.59,1.21.73,1.56,1.45,3.13,2.18,4.69,0,.08.07.16.11.23a1,1,0,0,0,.07.15c.65-.78,1.28-1.6,2-2.31a19.14,19.14,0,0,0,2.32-2.77c1-1.5,1.48-3.23,2.3-4.82a13.13,13.13,0,0,1,7.76-6.27q-1.49-1.59-3-3.11l-.27-.27,0,0A11.43,11.43,0,0,1,118,121a4,4,0,0,1-.19-3.74,13.77,13.77,0,0,0-2.86,3.41,14.68,14.68,0,0,1-1.42,2.22,8.14,8.14,0,0,1-2.11,1.56c-4.9,2.71-10.69,3.85-15.05,7.37"/><path class="cls-29" d="M138.83,146.05a16.52,16.52,0,0,1,1.23,4.68l18.4-4a55.13,55.13,0,0,1,6.73-1.19c1.9-.18,3.81-.15,5.7-.38,5.17-.6,9.92-3,14.56-5.35a34.7,34.7,0,0,0-7.15-14.34c-3.38-4.22-7.29-8-10.9-12-1.83-2-3.67-4.3-4-7-1.25.41-2.38-.85-3.27-1.81A122.51,122.51,0,0,0,147.32,92.7c0,.1-.06.2-.08.3a2.58,2.58,0,0,0,.56,2,8.35,8.35,0,0,0,1.83,1.57,13.78,13.78,0,0,1,3.58,3.48c1.29,2,1.7,4.39,2.42,6.65a12,12,0,0,0,1.71,3.57,5.92,5.92,0,0,0,2.37,2,213.91,213.91,0,0,1,12,20.94,150.18,150.18,0,0,1-31.41,1.38c-2,3.46-2.85,7.74-1.49,11.5"/><path class="cls-34" d="M96.78,267.21c0,.5.46.86.86,1.15,4.34,3,10.25,4.31,15,1.95,1.68-.84,3.12-2.08,4.76-3,1.47-.83,3.08-1.38,4.59-2.16a8.27,8.27,0,0,0,4.1-4.16,24.81,24.81,0,0,0,1.25-7.21,68.89,68.89,0,0,0,.22-9.31,81.5,81.5,0,0,0-3-18.34,71.25,71.25,0,0,0-2.76-8c.65,1.2,1.72,2.59,3,2.23Q121.42,212,118,203.67a37,37,0,0,1-1.82-5.18c-1.39-5.68,0-11.67-.57-17.5-.35,3.93-2.62,7.2-3.46,11.06-1.83,8.43.79,15.87,3.92,23.57a60.65,60.65,0,0,1,4.24,21.49,49.15,49.15,0,0,1-.72,9.42,59.27,59.27,0,0,1-4.07,12.36c-1.19,2.87-2.47,5.84-4.81,7.9a10.58,10.58,0,0,1-7.26,2.55,9.36,9.36,0,0,1-1.83-.24,15.81,15.81,0,0,1-4.87-1.89"/><g class="cls-35"><g class="cls-36"><path class="cls-37" d="M179.2,214.85c-.2-1.33-.46-2.65-.63-4a61.78,61.78,0,0,1-.36-6.66c-.34,5,.85,10,.43,15-.28,3.37-1.29,6.66-1.36,10,0-.11,1.1-1,1.24-1.18a5.89,5.89,0,0,0,.73-1.13,10.19,10.19,0,0,0,.41-3.44,45.57,45.57,0,0,0-.46-8.66"/></g></g><g class="cls-35"><g class="cls-38"><path class="cls-37" d="M160.26,245.38c.57-4.95,3.46-9.27,5.52-13.8,3.18-7,4.4-14.77,4.81-22.46s0-15.4.22-23.1c2.76,11.12,3.14,22.7,3,34.16-.07,4.63-.22,9.32-1.48,13.77a10.86,10.86,0,0,1-1.32,2.72l-1.68,2.77a18.58,18.58,0,0,1-1.9,2.74,11.66,11.66,0,0,1-7.15,3.2"/></g></g><g class="cls-35"><g class="cls-39"><path class="cls-37" d="M161.8,228.58a94.22,94.22,0,0,0,.54-20.63c-.36,8.53-1,17.24-4.3,25.12-1.14,2.72-2.58,5.3-3.7,8-1.05,2.54-2.18,5.78-1.69,8.55,1.65-.21,2.2-1.87,2.85-3.13,1-1.88,2.05-3.67,2.88-5.62a52.73,52.73,0,0,0,3.42-12.31"/></g></g><g class="cls-35"><g class="cls-40"><path class="cls-37" d="M151.29,210.5q-.81,12-2.62,24a33.7,33.7,0,0,1-1.09,5.17,25.42,25.42,0,0,1-5.62,9c-.73.8-1.54,1.74-1.39,2.81.19,1.43,1.9,2.06,3.34,2.2,3.14.32,4.22-1.13,4.9-3.86.79-3.12,1.45-6.26,2-9.44a106.55,106.55,0,0,0,1.3-19.21c0-1.81-.13-3.62-.26-5.43a39.34,39.34,0,0,1-.52-5.27"/></g></g><path class="cls-41" d="M141.82,175.29a61.92,61.92,0,0,0,2.76,9.67,4.83,4.83,0,0,0,1.12,2,4.34,4.34,0,0,0,3.5.66c2.59-.36,4.64-2.36,7.17-3,1.23-.29,1.67-.06,2.87-.37s3.77-.18,5.13-.39a3.41,3.41,0,0,1-1.81-.55l1,.61a23.8,23.8,0,0,0-7.19-.44c-1.76.13-6.71,1.79-7.48-.73a5.1,5.1,0,0,1-.05-1.91,15.63,15.63,0,0,0,0-2.82c-2.23-.91-4.46-1.83-6.71-2.7l-.26-.1"/><path class="cls-41" d="M133.23,184.5c1.67,2.35,3.77,4.4,5.22,6.9s2.28,5.6,4.48,7.54a3.1,3.1,0,0,0,1.85.89,3.27,3.27,0,0,0,2-.83c3.52-2.7,5-7.36,8.29-10.33l.09-.08c0-.47,0-1,.08-1.42a3.39,3.39,0,0,0-.12-1.28c-1.24.39-2.46.83-3.66,1.3a9.3,9.3,0,0,0-2.78,1.48,8,8,0,0,1-1.43,1.24,3.83,3.83,0,0,1-3.09-.07,3.37,3.37,0,0,1-1.27-.7,4.25,4.25,0,0,1-1-2.17c-.58-2.46-1.17-4.92-1.51-7.43a35.75,35.75,0,0,1-.33-4v-.83l-.31-.1c-1,.26-2,.57-3,.82l-6,1.54c-.35,2.65.85,5.33,2.4,7.53"/><path class="cls-41" d="M155.15,185.89a3.39,3.39,0,0,1,.12,1.28c0,.47-.07,1-.08,1.42a13.85,13.85,0,0,1,4.67-2.67,24.58,24.58,0,0,1,7-1.22l-.77-.24h0a22.39,22.39,0,0,0-6.68.33,36.49,36.49,0,0,0-4.29,1.1"/><path class="cls-29" d="M96.79,180.31c.51,2.58,6.92,1,8.61.92a123.71,123.71,0,0,0,23.89-3.86l1.54-.4,6-1.54c1-.25,2-.56,3-.83a12.67,12.67,0,0,1,5.78-.48,3.43,3.43,0,0,1,2,1.16,6.88,6.88,0,0,1,.85,1.89,12,12,0,0,0,3.71,4.9c1.17,1,2.57,2.27,3,3.82a3.39,3.39,0,0,1,.12,1.28c0,.47-.07,1-.08,1.42A26.7,26.7,0,0,0,156,196a3,3,0,0,0,.13.39.25.25,0,0,0,.48-.14,8.9,8.9,0,0,1,.91-5l2.79,3.43a.25.25,0,0,0,.43-.25l-1.86-4.55a3.31,3.31,0,0,0,2,.95,17.79,17.79,0,0,0-.94-4.9,11.83,11.83,0,0,0-.42-1.13,17.22,17.22,0,0,0-1.25-2.46c-1.72-2.83-4.2-5.14-5.83-8-.89-1.56-1.57-3.32-3-4.43a7.2,7.2,0,0,0-5.23-1.18c-1.82.19-3.58.77-5.38,1.1a41.69,41.69,0,0,1-5.1.48c-8.48.42-17,.85-25.43-.19.67-5.12,1.26-10.14,1.42-15.29a53.43,53.43,0,0,0-.68-11.93c-.73-1.56-1.45-3.13-2.18-4.69a12,12,0,0,0-1.46-2.56,9.1,9.1,0,0,0-3.49-2.43,17.19,17.19,0,0,0-3-1,7.24,7.24,0,0,0-.76.9,10.5,10.5,0,0,0-1.8,4.43,19.24,19.24,0,0,0-.17,3c-.11,13.47-2,26.44.69,39.72"/><path class="cls-33" d="M132.55,125.16c.28.78.27,1.65.62,2.4a6.72,6.72,0,0,0,2.52,2.35,30.6,30.6,0,0,1,5.46,5.39c-2.38,3.75-1.06,6.35-1.3,12.79,0,.54.41,1,.51,1.52.33,1.77-.74,3.46-1.77,4.94a9.29,9.29,0,0,0-.24-3.49,12.29,12.29,0,0,0-1.16-2.25c-2.71-4.68-3.39-10.23-4-15.61l-.3-2.59c-.11-.91-.22-1.83-.35-2.74a20.13,20.13,0,0,0-1.73-4.6c-.77-1.45,1.49,1.15,1.76,1.89"/><path class="cls-42" d="M103.48,269.34a10.58,10.58,0,0,0,7.26-2.55c2.34-2.06,3.62-5,4.81-7.9,2.3-5.54,4.2-11,4.68-17a26.64,26.64,0,0,0,0-4.64,39.53,39.53,0,0,0-2.69-9.92,59.27,59.27,0,0,1-1.8,17.08,82.49,82.49,0,0,1-4.61,13.94c-1.33,3.07-2.73,6.59-5.09,9-.47.49-1.86,2-2.59,2"/><path class="cls-43" d="M167.54,184.67c-.47-.09-.95-.16-1.42-.21l.77.24h0c.21,0,.42,0,.64,0"/><path class="cls-44" d="M125.78,150.44a1.46,1.46,0,1,0,1.45-1.46,1.46,1.46,0,0,0-1.45,1.46"/><path class="cls-44" d="M125.78,139.37a1.46,1.46,0,1,0,1.45-1.45,1.45,1.45,0,0,0-1.45,1.45"/><path class="cls-44" d="M133.08,141.07a1,1,0,1,0,1-1,1,1,0,0,0-1,1"/><path class="cls-44" d="M136.82,152.1a1,1,0,1,0,1-1,1,1,0,0,0-1,1"/><path class="cls-44" d="M123.83,163.9a1.46,1.46,0,1,0,1.46-1.46,1.45,1.45,0,0,0-1.46,1.46"/><g class="cls-45"><g class="cls-46"><path class="cls-44" d="M113,170.62l1.51.12c3.27-1.75,5.29-5.25,6.45-8.79s1.64-7.56,2.86-11.22a9.88,9.88,0,0,1,3-4.86c0-.18,0-.37.08-.56.11-.94.24-1.88.35-2.82a22.93,22.93,0,0,0-7,12.86c-.41,2.38-.45,4.83-1.09,7.16a14.18,14.18,0,0,1-6.12,8.11"/></g></g><g class="cls-45"><g class="cls-47"><path class="cls-44" d="M110.56,162.44a35.73,35.73,0,0,0,6.54-8.64,19.74,19.74,0,0,0,1.4-3.16c.3-.91.49-1.86.72-2.79a45,45,0,0,1,7.79-16.3l0-.09c-.1-.19-.2-.39-.31-.58a2.76,2.76,0,0,0-.88.71c-2.81,3-5.58,6.25-6.87,10.08-.65,1.94-.91,4-1.43,6a23.61,23.61,0,0,1-4.91,9.3c-.49.57-1,1.16-1.51,1.76-.12,1.25-.28,2.5-.51,3.74"/></g></g><g class="cls-45"><g class="cls-48"><path class="cls-44" d="M109.15,143.25c.28.58.55,1.17.8,1.76a16.68,16.68,0,0,0,4.21-5.11c1.37-2.39,2.45-4.94,4-7.22a21.78,21.78,0,0,1,5.4-5.56l0,0a13.13,13.13,0,0,0-7.76,6.27c-.82,1.59-1.33,3.32-2.3,4.82a19.14,19.14,0,0,1-2.32,2.77c-.69.71-1.32,1.53-2,2.31"/></g></g><path class="cls-44" d="M123.67,127l-.16.06,0,0,.13-.1"/><path class="cls-44" d="M105.17,135.42c.06.06.11.13.17.2a7.59,7.59,0,0,1,.87,1.35,14,14,0,0,0,2.44-2.31,29.89,29.89,0,0,1,4.09-4.39c1.39-1.06,3-1.72,4.49-2.68a6.36,6.36,0,0,0,3-3.89,2.23,2.23,0,0,0,0-.23l-.08.18c-.91,1.88-4,2.75-5.71,3.83a26.54,26.54,0,0,0-5.27,3.6c-1,1-1.77,2.3-2.81,3.31a10.64,10.64,0,0,1-1.21,1"/><path class="cls-44" d="M134.1,129.59l1.33.68a2.23,2.23,0,0,1,.33.2,2.89,2.89,0,0,1,.35.35,4.15,4.15,0,0,0,1,.7l1.22.68a2.07,2.07,0,0,1-1.49,0,6.26,6.26,0,0,1-1.33-.7l-1.71-1.09c-.29-.18-1-.46-.83-.9s.84-.05,1.12.09"/><path class="cls-44" d="M137.69,136.4c1.13,1.21,1.57,2.92,3.13,3.71a5,5,0,0,1-1.39-.51c-1.93-1-3.56-2.56-5.79-2.9.12,0-.78-2.56.92-2.19a7,7,0,0,1,3.13,1.89"/><path class="cls-49" d="M107.65,98.5a5,5,0,0,0-1.14,1.78,2,2,0,0,1,1,.22c-1,2-.48,4.34,0,6.48a2.83,2.83,0,0,0,2-.7,9.2,9.2,0,0,0,.94,2.3,1.3,1.3,0,0,0,.81.75,2.53,2.53,0,0,0,2.38,1.14,8.64,8.64,0,0,1-.8,2.77l4.31.45a2.92,2.92,0,0,0,1.92-.23,2,2,0,0,0,.31-.27,9.35,9.35,0,0,0-.06-2.94,5.07,5.07,0,0,1-.14-1.81,1.27,1.27,0,0,1,1.24-1.11,3.76,3.76,0,0,1-.24-2,4.47,4.47,0,0,1-2.17-2.61,8.49,8.49,0,0,1-.31-3.44,1.1,1.1,0,0,1,.23-.69,1.14,1.14,0,0,1,.75-.23,3.78,3.78,0,0,1,1.5.12,1.27,1.27,0,0,1,.9,1.11,8.62,8.62,0,0,0,1.1-2.41,15.19,15.19,0,0,1,.68-2.3,2.47,2.47,0,0,1,1.72-1.52,1.77,1.77,0,0,1,2,1.49,4.27,4.27,0,0,0,3.5-5.71A2.91,2.91,0,0,0,131.59,88c3.14,1,5.21,3.86,6.42,7a16.11,16.11,0,0,0,1.26-1.36,5.63,5.63,0,0,0,.72-1.1c.11-.23.23-1.07.39-1.19a15.06,15.06,0,0,0-1.8,1.59,6,6,0,0,0,1.12-3,2.93,2.93,0,0,0-.56-2.22,1.48,1.48,0,0,0-2.08-.17l-.66-1.22c-.19.44-.86.44-1.24.15a5.31,5.31,0,0,1-.88-1.15,3,3,0,0,0-2.2-1.18,1.3,1.3,0,0,1-1.35-.71,2.8,2.8,0,0,0-4.94,1.88c-.42-1-1.7-1.29-2.78-1.43a3.91,3.91,0,0,0-1.77,0,8.92,8.92,0,0,0-1.25.68,6.14,6.14,0,0,1-2,.56q-2.86.47-5.76.67a2.1,2.1,0,0,0-1.9,1.78,5.23,5.23,0,0,1-1.1,2.33c-.89,1.12-2.06,2-3,3.08a8.76,8.76,0,0,0-2,5.74,3.17,3.17,0,0,1,3.42-.24"/><path class="cls-49" d="M121.55,99,123,100.2a4.17,4.17,0,0,0,1.05.72,4.68,4.68,0,0,0,2.47.12,2,2,0,0,0,1.16-.42,4.67,4.67,0,0,1-2-.58c-.15-.08-.31-.2-.31-.36s.2-.3.36-.39a1.91,1.91,0,0,0,1.07-1.85,2.52,2.52,0,0,0-.52-1.08,8.34,8.34,0,0,0-.86-1,3,3,0,0,1-.78-1,.92.92,0,0,1,.21-1l-.16,0A2.48,2.48,0,0,0,123,94.92a16.4,16.4,0,0,0-.67,2.3,8.82,8.82,0,0,1-.73,1.8"/><path class="cls-50" d="M121.53,99s0,0,0,0a8.82,8.82,0,0,0,.73-1.8,16.4,16.4,0,0,1,.67-2.3,2.48,2.48,0,0,1,1.73-1.52l.16,0a.56.56,0,0,1,.17-.09,2.38,2.38,0,0,0-1.94,1,7,7,0,0,0-.89,2.17A10.33,10.33,0,0,1,121.53,99Z"/><path class="cls-51" d="M125,110.36c1.29,2.36,2.58,4.71,3.8,7.11.8,1.58,1.57,3.19,2.3,4.81a15.31,15.31,0,0,1,1.54-3.8,5.53,5.53,0,0,1,2.06-2.25,7.93,7.93,0,0,1,3.95-.44,9.63,9.63,0,0,0-2.33-.55,28.3,28.3,0,0,1-2.83-.92c-1.05-.4-2.08-.82-3.11-1.25l-1.34-.56a16.5,16.5,0,0,1-4-2.15"/><g class="cls-52"><g class="cls-53"><path class="cls-13" d="M139.58,106.84a.67.67,0,0,1,.41.41,4,4,0,0,1,.17.74,3.19,3.19,0,0,0,1,1.53,1.87,1.87,0,0,0,1,.58h.12a1.84,1.84,0,0,1,.27-1.37,1.75,1.75,0,0,1-1.17-.73,1.2,1.2,0,0,0,.78-1.15c0-.13,0-.25,0-.38-.81-.22-1.72.45-2.55.37"/></g></g><g class="cls-52"><g class="cls-54"><path class="cls-13" d="M139.63,89.31s-10.79,17.49-29.16,19.42a11.49,11.49,0,0,1-.94-2.3l-2,.7s-.89-4-.47-5.22Z"/></g></g><g class="cls-52"><g class="cls-55"><path class="cls-13" d="M142.51,102.39a.92.92,0,0,0-.24-.13.89.89,0,0,0-.28,0l-.55,0a1,1,0,0,0-.65.18.74.74,0,0,0-.24.46.55.55,0,0,0,0,.18.38.38,0,0,0,.35.25,1.46,1.46,0,0,0,.46-.1,3.09,3.09,0,0,1,.75-.12c.26,0,.53.09.79.07.49,0-.27-.7-.38-.78"/></g></g><path class="cls-56" d="M106.3,90.9a37.68,37.68,0,0,0-5.8,4,13.57,13.57,0,0,0-2.59,2.6c-.56.87-1.71,2.29-1.13,3.37s2.91,1.37,4,1.35c3.56-.07,7.54-.63,11.08-1A40.8,40.8,0,0,0,121,99a87.07,87.07,0,0,0,8.08-3.44,68.71,68.71,0,0,0,7.82-4.25,23,23,0,0,0,6.25-5.44,7,7,0,0,0,1.45-3.72,2.9,2.9,0,0,0-1.17-2.71,5.67,5.67,0,0,0-4.25-.1c-1.4.39-2.75,1-4.17,1.3-1.15.26-2.34.33-3.52.5a43,43,0,0,0-4.76,1.06l-5.88,1.55a53,53,0,0,0-5.51,1.67,54.64,54.64,0,0,0-6.15,3c-1.13.62-1.79,1.83-2.89,2.5"/><path class="cls-57" d="M106.83,92.66a6.81,6.81,0,0,0-.58-2.65,8.64,8.64,0,0,1,.72-4.85,26.09,26.09,0,0,1,1.94-4.51,25.51,25.51,0,0,1,1.51-2.22c1.48-2,3-4.11,5.25-5.27a3,3,0,0,1,1.75-.44,3.5,3.5,0,0,1,1.55.75c1.1.8,2.26,1.83,2.29,3.19a5.4,5.4,0,0,1,3.56-.47,9.21,9.21,0,0,1,3.34,1.45c2,1.34,3.72,3,4,5.4.21,1.82-1.63,3.28-3,4a59,59,0,0,1-6.55,3.29A38.8,38.8,0,0,1,113.82,93l-.91.14-.67.08a11.44,11.44,0,0,1-3,0,10.12,10.12,0,0,1-2.43-.62"/><path class="cls-58" d="M132.17,83.22l1.54,2.45S133,90,122.15,93.3c0,0-8.61,3.28-14.19,1.85l-1.13-2.49s2.62,2.18,14.51-2,10.83-7.4,10.83-7.4"/><path class="cls-56" d="M130.3,90.41a20.24,20.24,0,0,0-4.36,2.06,10.08,10.08,0,0,1-1.47,1,6.44,6.44,0,0,1-1,.37,18.64,18.64,0,0,1-3.29.67,32.21,32.21,0,0,0-3.41.28,13.68,13.68,0,0,0-2.16.72l-2.62,1a.28.28,0,0,1,0-.41,1,1,0,0,1,.43-.18,6.61,6.61,0,0,0,1.26-.6,10.74,10.74,0,0,1,4.7-1.26,13.56,13.56,0,0,0,3.72-.24c1.34-.44,2.35-1.51,3.56-2.23a40.06,40.06,0,0,1,4-1.71c.52-.25,1-.53,1.54-.82l1.39-.79c.23-.13,1.4-1,1.55-.83.32.28-.68,1.07-.87,1.23a10.69,10.69,0,0,1-2.95,1.65"/><path class="cls-58" d="M132,82.31a13.47,13.47,0,0,0,5.81-2.18,7,7,0,0,0,1.56.46,2.19,2.19,0,0,1-.2.66,3,3,0,0,0-.25,1c-2,.89-4,1.87-6.19,1.84a3.09,3.09,0,0,0-.53-.8c0-.29-.17-.72-.2-1"/><path class="cls-58" d="M126,76.7a4.87,4.87,0,0,0,1.24,1.51c.7.62,1.41,1.22,2.15,1.79a23.45,23.45,0,0,1-2.9.51,3.82,3.82,0,0,1-2.63-.54,2.86,2.86,0,0,1-.59-.33,2.52,2.52,0,0,1-.39-.41,16.65,16.65,0,0,1-1.76-2.34,2.39,2.39,0,0,1,1.11-.53,5.76,5.76,0,0,1,3.77.34"/><path class="cls-58" d="M117.54,77.3a16.67,16.67,0,0,1,0,2.12,6,6,0,0,1-.26,1.46A5.22,5.22,0,0,1,115,83.45c-1,.63-2.07,1.08-3.06,1.69a6.2,6.2,0,0,1-1.1.6,1.52,1.52,0,0,1-1.22,0,1.55,1.55,0,0,1,.09-1.1,4.44,4.44,0,0,1,.59-1c1.18-1.57,2.45-3.07,3.51-4.71a20.07,20.07,0,0,1,2.12-3.11c.3-.31.77-.72,1.16-.31a3.08,3.08,0,0,1,.47,1.74"/><path class="cls-29" d="M150.77,102.28c.08.49-.06,1.17-.56,1.17a.85.85,0,0,1-.56-.27c-.45-.41-.82-.89-1.28-1.29a2.43,2.43,0,0,0-1.62-.71,1.26,1.26,0,0,0-1.26,1.07,6.14,6.14,0,0,1,3.11,2.6c.28.44.5.92.78,1.36a8.09,8.09,0,0,0,3.93,3.07,16.82,16.82,0,0,0,4,1,12,12,0,0,1-1.71-3.57c-.72-2.26-1.13-4.67-2.42-6.65a13.78,13.78,0,0,0-3.58-3.48A8.35,8.35,0,0,1,147.8,95a2.58,2.58,0,0,1-.56-2,18.87,18.87,0,0,0-2.38-2c-.34-.25-.84-.49-1.17-.2s-.07.93.24,1.32l4.2,5.32a10.86,10.86,0,0,1,2.64,4.83"/><path class="cls-50" d="M158.46,110.43a2,2,0,0,0,.1.21C158.6,110.56,158.55,110.48,158.46,110.43Z"/><path class="cls-59" d="M132.77,258.45a7.72,7.72,0,0,0,5.69,2,2.12,2.12,0,0,0-.6-1l4-.64a1,1,0,0,0-.46,1.44,2.41,2.41,0,0,0,1.3,1c1.68.71,3.91.66,5-.81a15.35,15.35,0,0,1,1.2-2c.55-.55,1.74-.55,1.9.21s-.63,1.24-.53,1.9a1,1,0,0,0,1,.77,2.35,2.35,0,0,0,1.28-.46c1.89-1.25,3-3.38,4.73-4.85a8.63,8.63,0,0,1,3.69-1.87,5.09,5.09,0,0,0,1.39-.42,6.29,6.29,0,0,0,1-.82,13.37,13.37,0,0,1,1.85-1.21,40.22,40.22,0,0,0,5.85-4.65,2.11,2.11,0,0,0,.57-.69c.25-.63-.18-1.33-.21-2a2.51,2.51,0,0,1,1.18-2c.66-.48,1.43-.77,2.12-1.21,1.76-1.11,2.83-3,3.83-4.83a6.22,6.22,0,0,1,.47,3.41,2.37,2.37,0,0,1-2.48,2,1.55,1.55,0,0,0-.56-.06.77.77,0,0,0-.38.22,1.5,1.5,0,0,0-.29,1.68,1.48,1.48,0,0,0,1.49.8,3.66,3.66,0,0,0,1.46-.73,7.14,7.14,0,0,1,3.69-1.16c-.14.47.49.88.94.7a1.34,1.34,0,0,0,.7-1.2,5.06,5.06,0,0,1-1.54-4.07,13.6,13.6,0,0,1,.74-4.24,1.71,1.71,0,0,0-2.21-1,7.8,7.8,0,0,0-1.63-5.42,24.78,24.78,0,0,1-3.07,2.81,4.41,4.41,0,0,1-2.18,2.59,18.74,18.74,0,0,0-2.91,1.87,5.25,5.25,0,0,0-1.45,5.2c-3.24.92-5,5-8.31,5.47-.65.1-1.31.05-2,.2a6.3,6.3,0,0,0-1.63.74l-3.42,2a5.11,5.11,0,0,0-1.6,1.23c-.54.74-.87,1.9-1.79,1.94-.64,0-1.2-.6-1.84-.51a1.89,1.89,0,0,0-1,.62,8.74,8.74,0,0,1-4.74,2.24,1.05,1.05,0,0,1-.68-.07c-.57-.32-.24-1.26-.62-1.79s-1.44-.27-2.23-.22a3.9,3.9,0,0,1-1.85-.49,16.61,16.61,0,0,1-8.21-8.68,35,35,0,0,1,1.91,6.3c.39,1.66.77,3.32,1.16,5a13.26,13.26,0,0,1,.21,4.86"/></svg>