<svg width="356" height="499" viewBox="0 0 356 499" fill="none" xmlns="http://www.w3.org/2000/svg">
<path d="M323.08 160.81C302.97 159.53 286.48 175.73 286.48 195.88V397.88C285.136 406.348 280.982 414.118 274.688 419.94C268.394 425.761 260.324 429.297 251.777 429.978C243.231 430.659 234.703 428.446 227.566 423.694C220.429 418.942 215.098 411.928 212.43 403.78C211.806 401.855 211.344 399.882 211.05 397.88V397.88V305.93H211.14C211.14 305.53 211.14 305.14 211.14 304.75V98C211.145 96.8209 211.085 95.6425 210.96 94.47C208.159 68.4736 195.849 44.4298 176.395 26.9595C156.941 9.48931 131.717 -0.174477 105.57 -0.174477C79.4232 -0.174477 54.1989 9.48931 34.7452 26.9595C15.2914 44.4298 2.98105 68.4736 0.180003 94.47C0.0554782 95.6425 -0.00461211 96.8209 2.72272e-06 98V304C2.72272e-06 323.38 15.86 339.66 35.24 339.23C44.2444 339.031 52.8128 335.314 59.11 328.875C65.4072 322.436 68.9322 313.787 68.93 304.78V103.29C68.8691 94.8237 71.984 86.6421 77.66 80.36C81.21 76.4958 85.5238 73.4108 90.3281 71.3006C95.1324 69.1903 100.323 68.1006 105.57 68.1006C110.817 68.1006 116.008 69.1903 120.812 71.3006C125.616 73.4108 129.93 76.4958 133.48 80.36C139.158 86.6411 142.273 94.8234 142.21 103.29V304.75C142.21 305.14 142.21 305.53 142.21 305.93V397.84C144.51 441.2 173.08 477.64 212.4 491.77C235.895 500.17 261.575 500.17 285.07 491.77C324.37 477.64 352.94 441.2 355.24 397.84V195.13C355.238 186.396 351.914 177.989 345.942 171.615C339.969 165.242 331.796 161.379 323.08 160.81V160.81Z" fill="white"/>
</svg>
