<svg xmlns="http://www.w3.org/2000/svg" viewBox="0 0 427.88 502.37"><defs><style>.cls-1{fill:#a2a280;}</style></defs><title>aaa</title><g id="Layer_2" data-name="Layer 2"><g id="Layer_1-2" data-name="Layer 1"><path class="cls-1" d="M133.19,495.33c0,6.7-4.6,7-9.51,7q-45.95,0-91.89,0c-5.15,0-10.31-.25-15.44,0-6.86.39-10.07-2.28-9.73-9.41.32-6.77.17-13.56,0-20.33-.12-5.53.25-10.36,7.38-11.22,2.89-.36,3.54-3.07,3.68-5.62.15-2.71.17-5.42.2-8.13.15-10.92.58-11.35,11.62-11.43,14.17-.11,14.35-.29,14.24-14.67q-.65-83.29-1.25-166.58c-.08-12.41.38-12.7,12.87-12.73,11.38,0,22.77-.05,34.15,0,10.34.06,11.39.93,11.42,11,.11,29,0,58,0,87h-.6c0,29,.09,58-.08,87,0,6.1,2,8.77,8.42,8.95,11.77.34,11.83.63,11.84,12,0,6.84-1.1,14,9.23,14.49,2.72.13,3.33,3.27,3.34,5.83C133.19,477.44,133.16,486.38,133.19,495.33Z"/><path class="cls-1" d="M401,421.38c-12.21,27.33-30,48.85-58.93,59.47a87.27,87.27,0,0,1-30.3,5.23c-40.67,0-81.34-.18-122,0-7.56,0-10.85-2.33-10.65-10.25.38-15.45.33-30.92,0-46.36-.16-7.48,2.88-9.9,10.15-9.86q56.13.33,112.25,0c24.68-.17,39.35-20.45,32.2-43.82-3.8-12.43-13.71-19.75-27.5-19.85-38.49-.28-77-.42-115.49-.63-11.7-.06-13-1.32-13.14-13.07-.12-13.29.23-26.58-.12-39.86-.19-7.51,3-10,10.21-10,22.5.21,45,.08,69.07.08,23.89,1.43,49.36-1.23,74.82,1.45C379,298.94,428,361.05,401,421.38Z"/><path class="cls-1" d="M412.1,252.9c-9.14,5.3-21,.18-21.47-10.25-.4-8.9-4.83-9.29-11.39-9.26q-57.37.21-114.74.19-108.65.09-217.28,0c-7.55,0-11.86.59-11.84,10.16,0,9.82-11.81,15-20.82,10.33A23.35,23.35,0,0,1,2.62,229.43c2.05-10.36,12.07-19.3,23-19.94,11.9-.71,23.84-1.46,35.75-1.35,39.86.35,79.72-.43,119.59.69,23.5.66,47.19-.43,70.69-.16,49.07.54,98.12-1.61,147.17-.34a25.13,25.13,0,0,1,24.48,25.29C423.76,241.75,419.75,248.46,412.1,252.9Z"/><path class="cls-1" d="M423.66,170.53q-102.11-82-204-164.3c-10.42-8.39-10.43-8.36-20.72.4q-95,81-190.08,162c-12,10.26-11.6,9.69.24,20.28,9.35,8.36,19.3,11.2,31.71,11,42.57-.63,85.15-.24,127.73-.23H184q103.7.06,207.39.08c5.6,0,11.41.89,16.21-3.51,5.39-4.95,10.87-9.84,16.61-14.36C429.64,177.56,428.69,174.57,423.66,170.53Zm-42.34,3.57c-1,2.27-3.85,1.22-5.91,1.54-11.88,1.83-23.82.55-35.73.71-4.74.06-8.09-2.6-11.47-5.41q-55.15-45.63-110.33-91.22c-8.4-7-8.67-7-16.86.17-33,28.94-66.47,57.42-98.9,87-10.54,9.61-22,8.6-34.06,8.58-6,0-11.94.06-17.9,0-1.79,0-4.2.57-5-1.61s1.3-3.38,2.64-4.59q16-14.46,32.06-28.81C120.4,104.06,161.1,67.82,201.41,31.15c6.32-5.76,10.39-5.22,16.36,0q79.95,69.22,160.17,138.11C379.48,170.53,382.42,171.55,381.32,174.1Z"/></g></g></svg>